<svg id="Layer_1" data-name="Layer 1" xmlns="http://www.w3.org/2000/svg" viewBox="0 0 1200 75"><defs><style>.cls-1{fill:#fff;}</style></defs><path class="cls-1" d="M998,1.69c-25.86-.79-52-.9-78-.34C888,2,856.49,3.66,825.31,5.82c-51.64,3.57-101.62,8.51-151,13.93-45.15,4.94-90.06,10.07-136.37,14.15C466.16,40.23,393,44.35,317.48,45c-1.66,0-3.24.11-4.82.21h-25c-1.41-.12-2.91-.19-4.4-.24-32-.37-63.37-1.94-94.38-4.12C124.57,36.24,63.45,29.38,4.49,20.91c-1.5-.2-3-.37-4.49-.55V76H1200V20.13c-1.16-.14-2.33-.26-3.41-.42A1610.55,1610.55,0,0,0,998,1.69Z" transform="translate(0 -1)"/></svg>