<?xml version="1.0" encoding="UTF-8" standalone="no"?><!DOCTYPE svg PUBLIC "-//W3C//DTD SVG 1.1//EN" "http://www.w3.org/Graphics/SVG/1.1/DTD/svg11.dtd"><svg width="100%" height="100%" viewBox="0 0 13 8" version="1.1" xmlns="http://www.w3.org/2000/svg" xmlns:xlink="http://www.w3.org/1999/xlink" xml:space="preserve" xmlns:serif="http://www.serif.com/" style="fill-rule:evenodd;clip-rule:evenodd;stroke-linejoin:round;stroke-miterlimit:2;"><path d="M13,1.774c0,0.136 -0.051,0.254 -0.153,0.352l-5.984,5.727c-0.102,0.098 -0.223,0.147 -0.363,0.147c-0.14,0 -0.261,-0.049 -0.363,-0.147l-5.984,-5.727c-0.102,-0.098 -0.153,-0.216 -0.153,-0.352c-0,-0.137 0.051,-0.254 0.153,-0.352l1.339,-1.275c0.102,-0.098 0.223,-0.147 0.363,-0.147c0.14,0 0.261,0.049 0.363,0.147l4.282,4.104l4.282,-4.104c0.102,-0.098 0.223,-0.147 0.363,-0.147c0.14,0 0.261,0.049 0.363,0.147l1.339,1.275c0.102,0.098 0.153,0.215 0.153,0.352Z" style="fill:#787878;fill-rule:nonzero;"/></svg>