<?xml version="1.0" encoding="utf-8"?>
<svg version="1.1" xmlns:xlink="http://www.w3.org/1999/xlink" width="36px" height="30px" xmlns="http://www.w3.org/2000/svg">
  <g transform="matrix(1 0 0 1 -32 -19 )">
    <path d="M 26.19 14.0325  L 28.89 12.0075  L 27.81 10.5675  L 25.11 12.5925  L 26.19 14.0325  Z M 28.8 7.8  C 28.8 9.785625  30.414375 11.4  32.4 11.4  C 33.148125 11.4  33.84 11.175  34.41375 10.786875  C 34.79625 10.528125  35.128125 10.19625  35.386875 9.81375  C 35.775 9.24  36 8.548125  36 7.8  C 36 7.051875  35.775 6.36  35.386875 5.78625  C 35.2575 5.595  35.11125 5.415  34.948125 5.251875  C 34.785 5.08875  34.605 4.9425  34.41375 4.813125  C 33.84 4.425  33.148125 4.2  32.4 4.2  C 31.651875 4.2  30.96 4.425  30.38625 4.813125  C 30.00375 5.071875  29.671875 5.40375  29.413125 5.78625  C 29.025 6.36  28.8 7.051875  28.8 7.8  Z M 30.6 7.8  C 30.6 6.81  31.41 6  32.4 6  C 33.39 6  34.2 6.81  34.2 7.8  C 34.2 8.79  33.39 9.6  32.4 9.6  C 31.41 9.6  30.6 8.79  30.6 7.8  Z M 6.586875 15.68625  C 6.328125 15.30375  5.99625 14.971875  5.61375 14.713125  C 5.04 14.325  4.348125 14.1  3.6 14.1  C 2.851875 14.1  2.16 14.325  1.58625 14.713125  C 1.20375 14.971875  0.871875 15.30375  0.613125 15.68625  C 0.225 16.26  0 16.951875  0 17.7  C 0 19.685625  1.614375 21.3  3.6 21.3  C 5.585625 21.3  7.2 19.685625  7.2 17.7  C 7.2 16.951875  6.975 16.26  6.586875 15.68625  Z M 5.4 17.7  C 5.4 18.69  4.59 19.5  3.6 19.5  C 2.61 19.5  1.8 18.69  1.8 17.7  C 1.8 16.71  2.61 15.9  3.6 15.9  C 4.59 15.9  5.4 16.71  5.4 17.7  Z M 8.55 16.8  L 8.55 18.6  L 11.25 18.6  L 11.25 16.8  L 8.55 16.8  Z M 35.386875 23.78625  C 35.2575 23.595  35.105625 23.415  34.948125 23.251875  C 34.785 23.08875  34.605 22.9425  34.41375 22.813125  C 33.84 22.425  33.148125 22.2  32.4 22.2  C 31.651875 22.2  30.96 22.425  30.38625 22.813125  C 30.200625 22.936875  30.031875 23.0775  29.874375 23.235  L 24.710625 20.135625  C 25.025625 19.3875  25.2 18.560625  25.2 17.7  C 25.2 14.218125  22.381875 11.4  18.9 11.4  C 18.264375 11.4  17.668125 11.52375  17.08875 11.6925  L 14.878125 6.961875  C 15.6825 6.30375  16.2 5.319375  16.2 4.2  C 16.2 3.451875  15.975 2.76  15.586875 2.18625  C 15.328125 1.80375  14.99625 1.471875  14.61375 1.213125  C 14.04 0.825  13.348125 0.600000000000001  12.6 0.600000000000001  C 11.851875 0.600000000000001  11.16 0.825  10.58625 1.213125  C 10.20375 1.471875  9.871875 1.80375  9.613125 2.18625  C 9.225 2.76  9 3.451875  9 4.2  C 9 6.185625  10.614375 7.8  12.6 7.8  C 12.825 7.8  13.044375 7.771875  13.258125 7.7325  L 15.451875 12.435  C 13.73625 13.56  12.6 15.495  12.6 17.7  C 12.6 21.181875  15.418125 24  18.9 24  C 20.86875 24  22.60125 23.0775  23.76 21.665625  L 28.9575 24.781875  C 28.861875 25.108125  28.805625 25.445625  28.805625 25.8  C 28.805625 27.785625  30.42 29.4  32.405625 29.4  C 33.15375 29.4  33.845625 29.175  34.419375 28.786875  C 34.801875 28.528125  35.13375 28.19625  35.3925 27.81375  C 35.775 27.24  36 26.548125  36 25.8  C 36 25.051875  35.775 24.36  35.386875 23.78625  Z M 14.4 4.2  C 14.4 5.19  13.59 6  12.6 6  C 11.61 6  10.8 5.19  10.8 4.2  C 10.8 3.21  11.61 2.4  12.6 2.4  C 13.59 2.4  14.4 3.21  14.4 4.2  Z M 23.4 17.7  C 23.4 20.180625  21.380625 22.2  18.9 22.2  C 16.419375 22.2  14.4 20.180625  14.4 17.7  C 14.4 15.219375  16.419375 13.2  18.9 13.2  C 21.380625 13.2  23.4 15.219375  23.4 17.7  Z M 34.2 25.8  C 34.2 26.79  33.39 27.6  32.4 27.6  C 31.41 27.6  30.6 26.79  30.6 25.8  C 30.6 24.81  31.41 24  32.4 24  C 33.39 24  34.2 24.81  34.2 25.8  Z " fill-rule="nonzero" fill="#5d1bc0" stroke="none" transform="matrix(1 0 0 1 32 19 )" />
  </g>
</svg>