<?xml version="1.0" encoding="utf-8"?>
<svg version="1.1" xmlns:xlink="http://www.w3.org/1999/xlink" width="30px" height="30px" xmlns="http://www.w3.org/2000/svg">
  <g transform="matrix(1 0 0 1 -37 -19 )">
    <path d="M 29.53125 15  C 29.53125 6.97265625  23.02734375 0.46875  15 0.46875  C 6.97265625 0.46875  0.46875 6.97265625  0.46875 15  C 0.46875 23.02734375  6.97265625 29.53125  15 29.53125  C 23.02734375 29.53125  29.53125 23.02734375  29.53125 15  Z M 22.5 24.375  L 22.5 25.171875  C 20.396484375 26.724609375  17.806640625 27.65625  15 27.65625  C 12.193359375 27.65625  9.603515625 26.724609375  7.5 25.171875  L 7.5 24.375  C 7.5 22.306640625  9.181640625 20.625  11.25 20.625  C 11.900390625 20.625  12.861328125 21.29296875  15 21.29296875  C 17.14453125 21.29296875  18.09375 20.625  18.75 20.625  C 20.818359375 20.625  22.5 22.306640625  22.5 24.375  Z M 27.65625 15  C 27.65625 18.3046875  26.373046875 21.3046875  24.29296875 23.560546875  C 23.89453125 20.841796875  21.580078125 18.75  18.75 18.75  C 17.548828125 18.75  16.96875 19.41796875  15 19.41796875  C 13.03125 19.41796875  12.45703125 18.75  11.25 18.75  C 8.419921875 18.75  6.10546875 20.841796875  5.70703125 23.560546875  C 3.626953125 21.3046875  2.34375 18.3046875  2.34375 15  C 2.34375 8.021484375  8.021484375 2.34375  15 2.34375  C 21.978515625 2.34375  27.65625 8.021484375  27.65625 15  Z M 20.15625 12.1875  C 20.15625 9.33984375  17.84765625 7.03125  15 7.03125  C 12.15234375 7.03125  9.84375 9.33984375  9.84375 12.1875  C 9.84375 15.03515625  12.15234375 17.34375  15 17.34375  C 17.84765625 17.34375  20.15625 15.03515625  20.15625 12.1875  Z M 18.28125 12.1875  C 18.28125 13.998046875  16.810546875 15.46875  15 15.46875  C 13.189453125 15.46875  11.71875 13.998046875  11.71875 12.1875  C 11.71875 10.376953125  13.189453125 8.90625  15 8.90625  C 16.810546875 8.90625  18.28125 10.376953125  18.28125 12.1875  Z " fill-rule="nonzero" fill="#5d1bc0" stroke="none" transform="matrix(1 0 0 1 37 19 )" />
  </g>
</svg>