<?xml version="1.0" encoding="utf-8"?>
<svg version="1.1" xmlns:xlink="http://www.w3.org/1999/xlink" width="34px" height="30px" xmlns="http://www.w3.org/2000/svg">
  <g transform="matrix(1 0 0 1 -100 -678 )">
    <path d="M 33.740234375 29.199609375  C 33.92156098447 29.0159055556555  33.9202512898073 28.7201765008136  33.7373046875 28.5380859375  L 28.52890625 23.3302734375  C 29.516796875 22.0599609375  30.1291015625 20.4837890625  30.1291015625 18.75  C 30.1291015625 14.607864376269  26.7712371862309 11.25  22.6291015625 11.25  C 18.486965938769 11.25  15.1291015625 14.607864376269  15.1291015625 18.75  C 15.1291015625 22.892135623731  18.486965938769 26.25  22.6291015625 26.25  C 24.360546875 26.25  25.935546875 25.639453125  27.2052734375 24.65390625  L 32.4142578125 29.8623046875  C 32.5021804330354 29.9503251764204  32.6214878524536 29.9997828076949  32.7458984375 29.9997828076949  C 32.8703090225464 29.9997828076949  32.9896164419646 29.9503251764204  33.0775390625 29.8623046875  L 33.740234375 29.199609375  Z M 28.2529296875 18.75  C 28.249055702137 21.8549956448437  25.7329253323437 24.3711260146371  22.6279296875 24.375  C 19.5213279697018 24.375  17.0029296875 21.8566017177982  17.0029296875 18.75  C 17.0029296875 15.6433982822018  19.5213279697018 13.125  22.6279296875 13.125  C 25.7345314052982 13.125  28.2529296875 15.6433982822018  28.2529296875 18.75  Z M 20.4705078125 27.8525390625  C 20.2958745543045 28.026864238091  20.0592509210095 28.1248428573984  19.8125 28  L 2.9375 28  C 2.41973304703363 28.125  2 27.7052669529664  2 27.1875  L 2 2.8177734375  C 2 2.30000648453363  2.41973304703363 1.8802734375  2.9375 2  L 13.25 2  L 13.25 7.9740234375  C 13.249995988957 7.97539262685014  13.2499939834323 7.97676182134239  13.2499939834323 7.9781310165677  C 13.2499939834323 8.75251621559802  13.877757221902 9.3802794540677  14.6521424209323 9.3802794540677  C 14.6535116161579 9.3802794540677  14.6548808106496 9.38027744854298  14.65625 9.3802734375  L 22.625 9.375  L 22.625 7.734375  C 22.6237984199667 6.98720689406275  22.3267505935237 6.27092135512211  21.798828125 5.7421875  L 16.8828125 0.826171875  C 16.3560643650398 0.298145219262073  15.6411508280029 0.000967127510297667  14.8953125 0  L 2.9375 0  C 1.38428314534439 0.00515858907830275  0.127249028684188 1.26454964470724  0.124999999999999 2.8177734375  L 0.124999999999999 27.1875  C 0.124999999999999 28.7408008588991  1.38419914110089 30  2.9375 30  L 19.8125 30  C 21.007297451533 29.9971615309253  22.0691455725989 29.2377578580745  22.4580078125 28.1080078125  C 21.7882800947693 28.09414717157  21.1219701260106 28.0085011968121  20.4705078125 27.8525390625  Z M 15.125 7.5041015625  L 15.125 1.9095703125  C 15.289394613622 1.95021099167905  15.4394148456434 2.03535760985333  15.55859375 2.1556640625  L 20.474609375 7.07109375  C 20.5947747740898 7.19014785494165  20.6799065880596 7.33993930856951  20.720703125 7.5041015625  L 15.125 7.5041015625  Z " fill-rule="nonzero" fill="#ff8e08" stroke="none" transform="matrix(1 0 0 1 100 678 )" />
  </g>
</svg>