<?xml version="1.0" encoding="utf-8"?>
<svg version="1.1" xmlns:xlink="http://www.w3.org/1999/xlink" width="32px" height="28px" xmlns="http://www.w3.org/2000/svg">
  <g transform="matrix(1 0 0 1 -327 -17 )">
    <path d="M 17 1.71634615384615  C 17 0.902246995192308  17.6715625 0.242307692307692  18.5 0.242307692307692  L 30.5 0.242307692307692  C 31.3284375 0.242307692307692  32 0.902246995192308  32 1.71634615384615  L 32 11.5432692307692  C 32 12.3573683894231  31.3284375 13.0173076923077  30.5 13  L 18.5 13  C 17.6715625 13.0173076923077  17 12.3573683894231  17 11.5432692307692  L 17 1.71634615384615  Z M 15 1.71634615384615  C 15 0.902246995192308  14.3284375 0.242307692307692  13.5 0.242307692307692  L 1.5 0.242307692307692  C 0.6715625 0.242307692307692  0 0.902246995192308  0 1.71634615384615  L 0 11.5432692307692  C 0 12.3573683894231  0.6715625 13.0173076923077  1.5 13  L 13.5 13  C 14.3284375 13.0173076923077  15 12.3573683894231  15 11.5432692307692  L 15 1.71634615384615  Z M 1.5 15  C 0.6715625 14.9826923076923  0 15.6426316105769  0 16.4567307692308  L 0 26.2836538461538  C 0 27.0977530048077  0.6715625 27.7576923076923  1.5 27.7576923076923  L 13.5 27.7576923076923  C 14.3284375 27.7576923076923  15 27.0977530048077  15 26.2836538461538  L 15 16.4567307692308  C 15 15.6426316105769  14.3284375 14.9826923076923  13.5 15  L 1.5 15  Z M 17 26.2836538461538  C 17 27.0977530048077  17.6715625 27.7576923076923  18.5 27.7576923076923  L 30.5 27.7576923076923  C 31.3284375 27.7576923076923  32 27.0977530048077  32 26.2836538461538  L 32 16.4567307692308  C 32 15.6426316105769  31.3284375 14.9826923076923  30.5 15  L 18.5 15  C 17.6715625 14.9826923076923  17 15.6426316105769  17 16.4567307692308  L 17 26.2836538461538  Z " fill-rule="nonzero" fill="#2b016a" stroke="none" transform="matrix(1 0 0 1 327 17 )" />
  </g>
</svg>