<svg id="Layer_1" xmlns="http://www.w3.org/2000/svg" viewBox="0 0 218.6 206.9"><style>.st0{fill:#442e79}.st1{fill:#fded8b}.st2{fill:#74528f}.st3{fill:#959595;stroke:#231f20;stroke-width:5.93;stroke-miterlimit:10}.st4{fill:#c1c0c0}.st5,.st6{fill:none;stroke:#000;stroke-width:5.95;stroke-miterlimit:10}.st6{fill:#74528f;stroke-width:4}.st7{fill:#959595}.st8{fill:#bdae68}.st10,.st9{fill:none;stroke:#000;stroke-miterlimit:10}.st9{stroke-width:1.04}.st10{stroke-width:4}</style><path class="st0" d="M1.6 206.2c-1.1 0-1.6-.5-1.6-1.6v-29.2c0-1.1.5-1.6 1.6-1.6h13.8c8.2 0 10.6 3.6 10.6 8.8v5.8c0 5.2-2.4 8.8-10.6 8.8h-5.2v7.5c0 1.1-.5 1.6-1.6 1.6h-7zm8.5-17.2h4.1c1.8 0 2.1-1 2.1-2.2v-2.4c0-1.2-.4-2.2-2.1-2.2h-4.1v6.8zm23 17.2c-1.1 0-1.6-.5-1.6-1.6v-29.2c0-1.1.5-1.6 1.6-1.6H54c1.1 0 1.6.5 1.6 1.6v5.3c0 1.1-.5 1.6-1.6 1.6H41.6v3.5h8.8c1.1 0 1.6.5 1.6 1.6v4.8c0 1.1-.5 1.6-1.6 1.6h-8.8v3.9H54c1.1 0 1.6.5 1.6 1.6v5.3c0 1.1-.5 1.6-1.6 1.6H33.1zm38.4 0c-7.6 0-11.1-2.9-11.1-9.2v-14c0-6.3 3.5-9.2 11.1-9.2h11.2c1.1 0 1.6.5 1.6 1.6v5.4c0 1.1-.5 1.6-1.6 1.6h-9.4c-1.9 0-2.8.7-2.8 2.2v10.8c0 1.5.7 2.2 2.1 2.2H77v-7c0-1.1.5-1.6 1.6-1.6h7c1.1 0 1.6.5 1.6 1.6v13.9c0 1.1-.5 1.6-1.6 1.6l-14.1.1zm29.6 0h-6.6c-1.1 0-1.6-.5-1.6-1.6v-11.9c.2-2.5.7-4.9 1.8-7.2l3.9-10.2c.3-1 1.3-1.6 2.3-1.5H113c1-.1 2 .5 2.2 1.5l3.9 10.2c1 2.3 1.6 4.7 1.8 7.2v11.9c0 1.1-.5 1.6-1.6 1.6h-6.8c-1.2 0-1.8-.5-1.8-1.6v-6.3h-8v6.3c0 1.1-.5 1.6-1.6 1.6zm2.1-16.1h7.1l-2.1-6.8c-.2-.5-.5-.8-.9-.8h-1.1c-.4 0-.6.2-.9.8l-2.1 6.8zm24.8 16.1c-1.1 0-1.6-.5-1.6-1.6v-29.2c0-1.1.5-1.6 1.6-1.6h14.4c5.9 0 8.6 2.2 8.6 6.9v2.2c0 2.5-.9 4.1-2.6 4.9 3.9.4 5.7 2.6 5.7 7v4.1c0 5-2.8 7.4-8.7 7.4l-17.4-.1zm8.5-19.9h3.8c1.2 0 1.7-.6 1.7-1.8v-1.3c0-1.2-.5-1.8-1.7-1.8h-3.8v4.9zm0 12.3h5.9c1.2 0 1.7-.6 1.7-1.8V195c0-1.2-.5-1.8-1.7-1.8h-5.9v5.4zm36.4 8.3c-11.2 0-14-3.7-14-9.2v-15.3c0-5.5 2.8-9.2 14-9.2s13.9 3.7 13.9 9.2v15.3c0 5.5-2.7 9.2-13.9 9.2zm0-8.7c3.3 0 3.8-.9 3.8-2.1V184c0-1.2-.5-2.1-3.8-2.1s-3.8.9-3.8 2.1v12.1c0 1.2.5 2.1 3.8 2.1zm28.6 8c-1.1 0-1.6-.5-1.6-1.6v-22.1h-6.6c-1.1 0-1.6-.5-1.6-1.6v-5.4c0-1.1.5-1.6 1.6-1.6H217c1.1 0 1.6.5 1.6 1.6v5.4c0 1.1-.5 1.6-1.6 1.6h-6.6v22.1c0 1.1-.5 1.6-1.6 1.6h-7.3z"/><path class="st1" d="M196 24.5C194.1 12.2 178.6 0 163.1 0c-16.7 0-30.2 11.2-30.2 25 0 13.5 12.9 24.4 29 25 .8 0 1.6 0 2.4.1h.3c3.6.3 7 1.6 9.7 3.9 3.1 2.7 5.4 6.6.7 11.2l-3.7 3.6-7.1 7.3c-.2.2-.2.4 0 .6.1.1.2.1.4.1 1.2-.3 2.9-.7 3.5-.8 21-7.3 32.6-26.7 28.9-48.1-.2-1.1-.6-2.3-1-3.4z"/><path class="st2" d="M154.4 27.8c-.8-.1-1.1-.5-1-1.3l.4-4.5c.1-.9.6-1.2 1.4-1l6.7.8c.7.1 1-.1 1.1-.8.2-.4 0-.9-.4-1.1-.1 0-.1 0-.2-.1l-9-2.3c-.6 0-1-.5-1-1 0-.2 0-.3.1-.4l1-3.9c0-.6.5-1 1-1 .2 0 .3 0 .4.1l10.5 2.7c4.2 1.1 6.2 3.7 5.2 7.4l-.9 3.4c-.9 3.6-3.2 4.5-6.4 4.1l-8.9-1.1zm-2.8 7.4c-.6 0-1-.5-1-1 0-.2 0-.3.1-.4l1.1-4.2c.2-.8.6-1.1 1.5-.9l5.9 1.5c.8.2 1.1.6.9 1.5l-1.1 4.2c0 .6-.5 1-1 1-.2 0-.3 0-.4-.1l-6-1.6zm22.6-3.2c-.6-.1-1-.6-1-1.2 0-.1 0-.2.1-.3l2.7-12.6c.2-.8.6-1.1 1.4-.9l6.2 1.6c.8.2 1 .6.8 1.5l-3.7 12.4c-.1.6-.6 1-1.2.9-.1 0-.2 0-.3-.1l-5-1.3zm-2.6 8.4c-.6 0-1-.5-1-1 0-.2 0-.3.1-.5l1.1-4.2c.2-.8.6-1.1 1.5-.9l6 1.5c.8.2 1.1.6.9 1.5L179 41c0 .6-.5 1-1 1-.2 0-.3 0-.4-.1l-6-1.5z"/><path class="st3" d="M156.1 103h13.7c.9 0 1.7.8 1.7 1.7v15.7c0 .9-.8 1.7-1.7 1.7h-13.7c-.9 0-1.7-.8-1.7-1.7v-15.7c0-.9.8-1.7 1.7-1.7zm-105.4 0h13.7c.9 0 1.7.8 1.7 1.7v15.7c0 .9-.8 1.7-1.7 1.7H50.7c-.9 0-1.7-.8-1.7-1.7v-15.7c0-.9.8-1.7 1.7-1.7z"/><path class="st4" d="M101.5 59.9h15.7c21.5 0 39 17.5 39 39v37.8c0 5.3-4.3 9.6-9.6 9.6H73.2c-5.3 0-9.6-4.3-9.6-9.6v-39c0-20.9 17-37.8 37.9-37.8z"/><path class="st5" d="M109.9 48.8v11.1"/><circle class="st6" cx="109.9" cy="39.9" r="9.1"/><path class="st7" d="M156.5 124.2V99.3c0-12.6-6.6-23.8-16.7-31l-50.9 78.3L152 145c2-6.8 3.5-13.7 4.5-20.8z"/><circle cx="94.8" cy="90.9" r="6"/><circle cx="124.1" cy="90.9" r="6"/><path class="st1" d="M86.6 110.6h44.6c4.5 0 8.1 3.6 8.1 8.1s-3.6 8.1-8.1 8.1H86.6c-4.5 0-8.1-3.6-8.1-8.1s3.6-8.1 8.1-8.1z"/><path class="st8" d="M78.7 118.1l60.4 2.2-3.8 5.8H84.1z"/><path class="st9" d="M87.3 111.8v12.9m4.8-12.9v12.9m4.7-12.9v12.9m4.8-12.9v12.9m4.7-12.9v12.9m4.8-12.9v12.9m4.8-12.9v12.9m4.7-12.9v12.9m4.8-12.9v12.9m4.7-12.9v12.9"/><path class="st10" d="M86.6 110.6h44.6c4.5 0 8.1 3.6 8.1 8.1s-3.6 8.1-8.1 8.1H86.6c-4.5 0-8.1-3.6-8.1-8.1s3.6-8.1 8.1-8.1z"/><path class="st5" d="M100.5 59.9h15.7c21.5 0 39 17.5 39 39v37.8c0 5.3-4.3 9.6-9.6 9.6H72.3c-5.3 0-9.6-4.3-9.6-9.6v-39c0-20.9 16.9-37.8 37.8-37.8z"/></svg>