<svg id="Layer_1" xmlns="http://www.w3.org/2000/svg" viewBox="0 0 495.1 149.2"><style>.st0{fill:#442e79}.st1{fill:#fded8b}.st2{fill:#74528f}.st3{fill:#959595;stroke:#231f20;stroke-width:5.93;stroke-miterlimit:10}.st4{fill:#c1c0c0}.st5,.st6{fill:none;stroke:#000;stroke-width:5.95;stroke-miterlimit:10}.st6{fill:#74528f;stroke-width:4}.st7{fill:#959595}.st8{fill:#bdae68}.st10,.st9{fill:none;stroke:#000;stroke-miterlimit:10}.st9{stroke-width:1.04}.st10{stroke-width:4}</style><path class="st0" d="M2.4 127.8c-1.6 0-2.4-.7-2.4-2.4V82.6c0-1.7.7-2.4 2.4-2.4h20.2c12 0 15.6 5.2 15.6 12.9v8.5c0 7.7-3.6 12.9-15.6 12.9H15v11c0 1.7-.7 2.4-2.4 2.4l-10.2-.1zm12.5-25.2h5.9c2.6 0 3.1-1.5 3.1-3.2v-3.5c0-1.7-.5-3.2-3.1-3.2h-5.9v9.9zm32.7 25.2c-1.7 0-2.4-.7-2.4-2.4V82.6c0-1.7.7-2.4 2.4-2.4h30.7c1.7 0 2.4.7 2.4 2.4v7.7c0 1.7-.7 2.4-2.4 2.4H60v5.1h12.9c1.7 0 2.4.7 2.4 2.4v7.1c0 1.7-.7 2.4-2.4 2.4H60v5.7h18.3c1.7 0 2.4.7 2.4 2.4v7.7c0 1.7-.7 2.4-2.4 2.4l-30.7-.1zm55.4 0c-11.1 0-16.2-4.3-16.2-13.5V93.7c0-9.2 5.2-13.5 16.2-13.5h16.5c1.7 0 2.4.7 2.4 2.4v8c0 1.7-.7 2.4-2.4 2.4h-13.7c-2.8 0-4 1.1-4 3.3v15.8c0 2.2 1 3.2 3 3.2h6.4V105c0-1.7.7-2.4 2.4-2.4h10.2c1.7 0 2.4.7 2.4 2.4v20.4c0 1.7-.7 2.4-2.4 2.4H103zm43.5 0h-9.7c-1.6 0-2.4-.7-2.4-2.4V108c0-2.6.8-6 2.6-10.6l5.8-15c.4-1.5 1.9-2.4 3.4-2.2H164c1.5-.2 2.9.7 3.3 2.2l5.8 15c1.8 4.6 2.6 7.9 2.6 10.6v17.4c0 1.7-.7 2.4-2.4 2.4h-10c-1.8 0-2.6-.7-2.6-2.4v-9.2H149v9.2c-.1 1.7-.9 2.4-2.5 2.4zm3-23.7h10.4l-3.1-10c-.3-.8-.7-1.1-1.2-1.1h-1.7c-.5 0-.9.3-1.2 1.1l-3.2 10zm36.5 23.7c-1.6 0-2.4-.7-2.4-2.4V82.6c0-1.7.7-2.4 2.4-2.4h21.1c8.7 0 12.7 3.2 12.7 10.1v3.2c0 3.7-1.2 6-3.9 7.1 5.7.5 8.3 3.8 8.3 10.2v6.1c0 7.4-4 10.8-12.8 10.8l-25.4.1zm12.5-29.2h5.6c1.7 0 2.5-.9 2.5-2.7v-1.8c0-1.8-.8-2.6-2.5-2.6h-5.6v7.1zm0 18h8.6c1.7 0 2.5-.9 2.5-2.6v-2.6c0-1.8-.8-2.6-2.5-2.6h-8.6v7.8zm52.3 11.2c-16.5 0-20.6-5.4-20.6-13.5V91.8c0-8.1 4-13.5 20.6-13.5s20.5 5.5 20.5 13.5v22.5c0 8.1-3.9 13.5-20.5 13.5zm0-12.8c4.8 0 5.6-1.3 5.6-3.1V94.2c0-1.7-.7-3-5.6-3s-5.6 1.3-5.6 3V112c.1 1.7.9 3 5.6 3zm41.1 12.8c-1.6 0-2.4-.7-2.4-2.4V93h-9.7c-1.6 0-2.4-.7-2.4-2.4v-8c0-1.7.7-2.4 2.4-2.4h34.9c1.6 0 2.4.7 2.4 2.4v8c0 1.7-.7 2.4-2.4 2.4H305v32.4c0 1.7-.7 2.4-2.4 2.4h-10.7z"/><path class="st1" d="M493.4 24.5C491.6 12.2 476 0 460.5 0c-16.7 0-30.2 11.2-30.2 25 0 13.5 12.9 24.4 29 25 .8 0 1.6 0 2.4.1h.3c3.6.3 6.9 1.7 9.7 3.9 3.1 2.7 5.4 6.6.7 11.2l-3.7 3.6-7.1 7.3c-.2.2-.2.4 0 .6.1.1.2.1.4.1 1.2-.3 3-.7 3.5-.8 21-7.3 32.6-26.7 28.9-48.1-.2-1.1-.6-2.2-1-3.4z"/><path class="st2" d="M451.8 27.8c-.8-.1-1.1-.5-1-1.3l.4-4.5c.1-.9.6-1.2 1.4-1l6.7.8c.5.1 1-.1 1.1-.6V21c.2-.4 0-.9-.4-1.1-.1 0-.1 0-.2-.1l-8.9-2.3c-.6 0-1-.4-1-1 0-.2 0-.4.2-.6l1-3.9c0-.6.5-1 1-1 .2 0 .3 0 .5.1l10.5 2.7c4.2 1.1 6.2 3.7 5.2 7.4l-.9 3.4c-.9 3.6-3.2 4.5-6.4 4.1l-9.2-.9zm-2.7 7.4c-.8-.2-1.1-.7-.9-1.5l1.1-4.2c.2-.8.6-1.1 1.5-.9l5.9 1.5c.8.2 1.1.6.9 1.5l-1.1 4.2c0 .6-.5 1-1 1-.2 0-.3 0-.4-.1l-6-1.5zm22.5-3.2c-.6-.1-1-.6-1-1.2 0-.1 0-.2.1-.3l2.7-12.6c.2-.8.6-1.1 1.4-.9l6.2 1.6c.8.2 1 .6.8 1.5l-3.7 12.4c-.1.6-.6 1-1.2.9-.1 0-.2 0-.3-.1l-5-1.3zm-2.6 8.4c-.6 0-1-.5-1-1 0-.2 0-.3.1-.4l1.1-4.2c0-.6.5-1 1-1 .2 0 .3 0 .4.1l6 1.5c.6 0 1 .5 1 1 0 .2 0 .3-.1.4l-1.1 4.2c0 .6-.5 1-1 1-.2 0-.3 0-.4-.1l-6-1.5z"/><path class="st3" d="M453.6 103h13.7c.9 0 1.7.8 1.7 1.7v15.7c0 .9-.8 1.7-1.7 1.7h-13.7c-.9 0-1.7-.8-1.7-1.7v-15.7c0-.9.7-1.7 1.7-1.7zm-105.4 0h13.7c.9 0 1.7.8 1.7 1.7v15.7c0 .9-.8 1.7-1.7 1.7h-13.7c-.9 0-1.7-.8-1.7-1.7v-15.7c0-.9.7-1.7 1.7-1.7z"/><path class="st4" d="M398.9 59.9h15.7c21.5 0 39 17.5 39 39v37.8c0 5.3-4.3 9.6-9.6 9.6h-73.3c-5.3 0-9.6-4.3-9.6-9.6v-39c0-20.9 16.9-37.8 37.8-37.8z"/><path class="st5" d="M407.3 48.8v11.1"/><circle class="st6" cx="407.3" cy="39.9" r="9.1"/><path class="st7" d="M453.9 124.2V99.3c0-12.6-6.6-23.8-16.7-31l-50.9 78.3 63.2-1.7c1.9-6.7 3.4-13.6 4.4-20.7z"/><circle cx="392.2" cy="90.9" r="6"/><circle cx="421.6" cy="90.9" r="6"/><path class="st1" d="M384 110.6h44.6c4.5 0 8.1 3.6 8.1 8.1s-3.6 8.1-8.1 8.1H384c-4.5 0-8.1-3.6-8.1-8.1.1-4.5 3.7-8.1 8.1-8.1z"/><path class="st8" d="M376.1 118.1l60.5 2.2-3.9 5.8h-51.1z"/><path class="st9" d="M384.8 111.8v12.9m4.7-12.9v12.9m4.8-12.9v12.9m4.7-12.9v12.9m4.8-12.9v12.9m4.7-12.9v12.9m4.8-12.9v12.9m4.7-12.9v12.9m4.8-12.9v12.9m4.8-12.9v12.9"/><path class="st10" d="M384 110.6h44.6c4.5 0 8.1 3.6 8.1 8.1s-3.6 8.1-8.1 8.1H384c-4.5 0-8.1-3.6-8.1-8.1.1-4.5 3.7-8.1 8.1-8.1z"/><path class="st5" d="M398 59.9h15.7c21.5 0 39 17.5 39 39v37.8c0 5.3-4.3 9.6-9.6 9.6h-73.4c-5.3 0-9.6-4.3-9.6-9.6v-39c0-20.9 17-37.8 37.9-37.8z"/></svg>