<?xml version="1.0" encoding="UTF-8" standalone="no"?><!DOCTYPE svg PUBLIC "-//W3C//DTD SVG 1.1//EN" "http://www.w3.org/Graphics/SVG/1.1/DTD/svg11.dtd"><svg width="100%" height="100%" viewBox="0 0 32 28" version="1.1" xmlns="http://www.w3.org/2000/svg" xmlns:xlink="http://www.w3.org/1999/xlink" xml:space="preserve" xmlns:serif="http://www.serif.com/" style="fill-rule:evenodd;clip-rule:evenodd;stroke-linejoin:round;stroke-miterlimit:2;"><path d="M17,1.716c0,-0.814 0.672,-1.474 1.5,-1.474l12,0c0.828,0 1.5,0.66 1.5,1.474l0,9.827c0,0.814 -0.672,1.474 -1.5,1.457l-12,0c-0.828,0.017 -1.5,-0.643 -1.5,-1.457l0,-9.827Zm-2,0c0,-0.814 -0.672,-1.474 -1.5,-1.474l-12,0c-0.828,0 -1.5,0.66 -1.5,1.474l0,9.827c0,0.814 0.672,1.474 1.5,1.457l12,0c0.828,0.017 1.5,-0.643 1.5,-1.457l0,-9.827Zm-13.5,13.284c-0.828,-0.017 -1.5,0.643 -1.5,1.457l0,9.827c0,0.814 0.672,1.474 1.5,1.474l12,-0c0.828,-0 1.5,-0.66 1.5,-1.474l0,-9.827c0,-0.814 -0.672,-1.474 -1.5,-1.457l-12,0Zm15.5,11.284c0,0.814 0.672,1.474 1.5,1.474l12,-0c0.828,-0 1.5,-0.66 1.5,-1.474l0,-9.827c0,-0.814 -0.672,-1.474 -1.5,-1.457l-12,0c-0.828,-0.017 -1.5,0.643 -1.5,1.457l0,9.827Z" style="fill:#2b016a;fill-rule:nonzero;"/></svg>