<?xml version="1.0" encoding="utf-8"?>
<svg version="1.1" xmlns:xlink="http://www.w3.org/1999/xlink" width="55px" height="57px" xmlns="http://www.w3.org/2000/svg">
  <defs>
    <path d="M 0 0  L 106.77 0  L 106.77 110.52  L 0 110.52  Z " fill-rule="evenodd" fill="black" id="path21" />
    <clipPath id="clip22">
      <use xlink:href="#path21" />
    </clipPath>
    <defs>
      <style>.cls-1{fill:#3b2461;}.cls-2{fill:#683c96;}.cls-3,.cls-4{fill:none;stroke:#f68d28;stroke-miterlimit:10;}.cls-3{stroke-width:3px;}.cls-4{stroke-width:2.5px;}</style>
    </defs>
    <path class="cls-1" d="M72.85,110.35H33.92C15.26,112.35,0,97.08,0,78.43V41.57A34,34,0,0,1,33.92,7.65H72.85a34,34,0,0,1,33.92,33.92V78.43C106.77,97.08,91.51,112.35,72.85,110.35Z" />
    <rect class="cls-2" width="106.77" height="104.7" rx="33.92" />
    <path class="cls-3" d="M37.55,53.37" />
    <circle class="cls-3" cx="41.38" cy="52.27" r="3.46" />
    <circle class="cls-3" cx="64.4" cy="52.27" r="3.46" />
    <path class="cls-3" d="M81,47.33H78.12V68.79H81A2.89,2.89,0,0,0,84,66.14V50A2.89,2.89,0,0,0,81,47.33Z" />
    <path class="cls-3" d="M25.8,47.33A2.88,2.88,0,0,0,22.75,50V66.14a2.88,2.88,0,0,0,3.05,2.65h2.32V47.33Z" />
    <path class="cls-3" d="M66.11,74.41h6.34c3.12,0,5.67-2.22,5.67-4.93V46.63c0-2.71-2.55-4.92-5.67-4.92H33.8c-3.12,0-5.68,2.21-5.68,4.92V69.48c0,2.71,2.56,4.93,5.68,4.93H66.11Z" />
    <circle class="cls-4" cx="53.39" cy="32.8" r="2.52" />
    <line class="cls-3" x1="53.43" y1="35.32" x2="53.34" y2="41.63" />
    <path class="cls-3" d="M53.47,70.2A7.24,7.24,0,0,0,60.7,63H46.23A7.24,7.24,0,0,0,53.47,70.2Z" />
    <filter x="-50.00%" y="-50.00%" width="200.00%" height="200.00%" filterUnits="objectBoundingBox" id="filter23">
      <feColorMatrix type="matrix" values="1 0 0 0 0  0 1 0 0 0  0 0 1 0 0  0 0 0 1 0  " in="SourceGraphic" />
    </filter>
    <filter x="189px" y="102px" width="55px" height="57px" filterUnits="userSpaceOnUse" id="filter24">
      <feOffset dx="2" dy="2" in="SourceAlpha" result="shadowOffsetInner" />
      <feGaussianBlur stdDeviation="1" in="shadowOffsetInner" result="shadowGaussian" />
      <feComposite in2="shadowGaussian" operator="atop" in="SourceAlpha" result="shadowComposite" />
      <feColorMatrix type="matrix" values="0 0 0 0 0.76078431372549  0 0 0 0 0.756862745098039  0 0 0 0 0.756862745098039  0 0 0 0.929411764705882 0  " in="shadowComposite" />
    </filter>
    <g id="widget25">
      <g transform="matrix(0.47766226468109 0 0 0.47766226468109 189 102.104383253723 )" clip-path="url(#clip22)" filter="url(#filter23)">
        <path class="cls-1" d="M72.85,110.35H33.92C15.26,112.35,0,97.08,0,78.43V41.57A34,34,0,0,1,33.92,7.65H72.85a34,34,0,0,1,33.92,33.92V78.43C106.77,97.08,91.51,112.35,72.85,110.35Z" />
        <rect class="cls-2" width="106.77" height="104.7" rx="33.92" />
        <path class="cls-3" d="M37.55,53.37" />
        <circle class="cls-3" cx="41.38" cy="52.27" r="3.46" />
        <circle class="cls-3" cx="64.4" cy="52.27" r="3.46" />
        <path class="cls-3" d="M81,47.33H78.12V68.79H81A2.89,2.89,0,0,0,84,66.14V50A2.89,2.89,0,0,0,81,47.33Z" />
        <path class="cls-3" d="M25.8,47.33A2.88,2.88,0,0,0,22.75,50V66.14a2.88,2.88,0,0,0,3.05,2.65h2.32V47.33Z" />
        <path class="cls-3" d="M66.11,74.41h6.34c3.12,0,5.67-2.22,5.67-4.93V46.63c0-2.71-2.55-4.92-5.67-4.92H33.8c-3.12,0-5.68,2.21-5.68,4.92V69.48c0,2.71,2.56,4.93,5.68,4.93H66.11Z" />
        <circle class="cls-4" cx="53.39" cy="32.8" r="2.52" />
        <line class="cls-3" x1="53.43" y1="35.32" x2="53.34" y2="41.63" />
        <path class="cls-3" d="M53.47,70.2A7.24,7.24,0,0,0,60.7,63H46.23A7.24,7.24,0,0,0,53.47,70.2Z" />
      </g>
    </g>
  </defs>
  <g transform="matrix(1 0 0 1 -189 -102 )">
    <use xlink:href="#widget25" filter="url(#filter24)" />
    <use xlink:href="#widget25" />
  </g>
</svg>