<?xml version="1.0" encoding="utf-8"?>
<svg version="1.1" xmlns:xlink="http://www.w3.org/1999/xlink" width="87px" height="90px" xmlns="http://www.w3.org/2000/svg">
  <defs>
    <path d="M 0 0  L 106.8 0  L 106.8 110.5  L 0 110.5  Z " fill-rule="evenodd" fill="black" id="path11" />
    <clipPath id="clip12">
      <use xlink:href="#path11" />
    </clipPath>
    <filter x="-50.00%" y="-50.00%" width="200.00%" height="200.00%" filterUnits="objectBoundingBox" id="filter13">
      <feColorMatrix type="matrix" values="1 0 0 0 0  0 1 0 0 0  0 0 1 0 0  0 0 0 1 0  " in="SourceGraphic" />
    </filter>
    <filter x="147px" y="392px" width="87px" height="90px" filterUnits="userSpaceOnUse" id="filter14">
      <feOffset dx="2" dy="2" in="SourceAlpha" result="shadowOffsetInner" />
      <feGaussianBlur stdDeviation="4" in="shadowOffsetInner" result="shadowGaussian" />
      <feComposite in2="shadowGaussian" operator="atop" in="SourceAlpha" result="shadowComposite" />
      <feColorMatrix type="matrix" values="0 0 0 0 0.129411764705882  0 0 0 0 0.129411764705882  0 0 0 0 0.129411764705882  0 0 0 0.619607843137255 0  " in="shadowComposite" />
    </filter>
    <g id="widget15">
      <g transform="matrix(0.664794007490637 0 0 0.664794007490637 153 398.270131086142 )" clip-path="url(#clip12)" filter="url(#filter13)">
        <style type="text/css">
	.st0{fill:#3B2461;}
	.st1{fill:#800080;}
	.st2{fill:none;stroke:#F68D28;stroke-width:3;stroke-miterlimit:10;}
	.st3{fill:none;stroke:#FEEE8D;stroke-width:3;stroke-miterlimit:10;}
	.st4{fill:none;stroke:#FEEE8D;stroke-width:2.5;stroke-miterlimit:10;}
	.st5{fill:none;stroke:#FEEE8D;stroke-width:3;stroke-linecap:round;stroke-linejoin:round;}
</style>
        <path class="st0" d="M72.8,110.3H33.9C15.3,112.3,0,97.1,0,78.4V41.6C0,22.9,15.2,7.7,33.9,7.7h38.9c18.7,0,33.9,15.2,33.9,33.9  v36.9C106.8,97.1,91.5,112.3,72.8,110.3z" />
        <path class="st1" d="M33.9,0h38.9c18.7,0,33.9,15.2,33.9,33.9v36.9c0,18.7-15.2,33.9-33.9,33.9H33.9C15.2,104.7,0,89.5,0,70.8V33.9  C0,15.2,15.2,0,33.9,0z" />
        <path class="st2" d="M37.5,53.4" />
        <circle class="st3" cx="41.4" cy="52.3" r="3.5" />
        <circle class="st3" cx="64.4" cy="52.3" r="3.5" />
        <path class="st3" d="M81,47.3h-2.9v21.5H81c1.5,0.1,2.9-1.1,3-2.7V50C83.9,48.4,82.6,47.3,81,47.3z" />
        <path class="st3" d="M25.8,47.3c-1.6-0.1-2.9,1.1-3,2.7v16.1c0.1,1.6,1.5,2.7,3,2.7h2.3V47.3H25.8z" />
        <path class="st3" d="M66.1,74.4h6.3c3.1,0,5.7-2.2,5.7-4.9V46.6c0-2.7-2.6-4.9-5.7-4.9H33.8c-3.1,0-5.7,2.2-5.7,4.9v22.9  c0,2.7,2.6,4.9,5.7,4.9H66.1z" />
        <circle class="st4" cx="53.4" cy="32.8" r="2.5" />
        <line class="st3" x1="53.4" y1="35.3" x2="53.3" y2="41.6" />
        <path class="st5" d="M53.5,70.2c4,0,7.2-3.2,7.2-7.2H46.2C46.3,67,49.5,70.2,53.5,70.2z" />
      </g>
    </g>
  </defs>
  <g transform="matrix(1 0 0 1 -147 -392 )">
    <use xlink:href="#widget15" filter="url(#filter14)" />
    <use xlink:href="#widget15" />
  </g>
</svg>