<svg xmlns:xlink="http://www.w3.org/1999/xlink" width="55" height="57" xmlns="http://www.w3.org/2000/svg"><defs><path d="M0 0h106.77v110.52H0z" fill-rule="evenodd" id="path21"/><clipPath id="clip22"><use xlink:href="#path21"/></clipPath><style>.cls-1{fill:#3b2461}.cls-2{fill:#683c96}.cls-3,.cls-4{fill:none;stroke:#f68d28;stroke-miterlimit:10}.cls-3{stroke-width:3px}.cls-4{stroke-width:2.5px}</style><filter x="-50%" y="-50%" width="200%" height="200%" filterUnits="objectBoundingBox" id="filter23"><feColorMatrix values="1 0 0 0 0 0 1 0 0 0 0 0 1 0 0 0 0 0 1 0" in="SourceGraphic"/></filter><filter x="189" y="102" width="55" height="57" filterUnits="userSpaceOnUse" id="filter24"><feOffset dx="2" dy="2" in="SourceAlpha" result="shadowOffsetInner"/><feGaussianBlur stdDeviation="1" in="shadowOffsetInner" result="shadowGaussian"/><feComposite in2="shadowGaussian" operator="atop" in="SourceAlpha" result="shadowComposite"/><feColorMatrix values="0 0 0 0 0.76078431372549 0 0 0 0 0.756862745098039 0 0 0 0 0.756862745098039 0 0 0 0.929411764705882 0" in="shadowComposite"/></filter><g transform="translate(189 102.104) scale(.47766)" clip-path="url(#clip22)" filter="url(#filter23)" id="widget25"><path class="cls-1" d="M72.85 110.35H33.92C15.26 112.35 0 97.08 0 78.43V41.57A34 34 0 0 1 33.92 7.65h38.93a34 34 0 0 1 33.92 33.92v36.86c0 18.65-15.26 33.92-33.92 31.92z"/><rect class="cls-2" width="106.77" height="104.7" rx="33.92"/><circle class="cls-3" cx="41.38" cy="52.27" r="3.46"/><circle class="cls-3" cx="64.4" cy="52.27" r="3.46"/><path class="cls-3" d="M81 47.33h-2.88v21.46H81a2.89 2.89 0 0 0 3-2.65V50a2.89 2.89 0 0 0-3-2.67zm-55.2 0A2.88 2.88 0 0 0 22.75 50v16.14a2.88 2.88 0 0 0 3.05 2.65h2.32V47.33z"/><path class="cls-3" d="M66.11 74.41h6.34c3.12 0 5.67-2.22 5.67-4.93V46.63c0-2.71-2.55-4.92-5.67-4.92H33.8c-3.12 0-5.68 2.21-5.68 4.92v22.85c0 2.71 2.56 4.93 5.68 4.93h32.31z"/><circle class="cls-4" cx="53.39" cy="32.8" r="2.52"/><path class="cls-3" d="M53.43 35.32l-.09 6.31m.13 28.57A7.24 7.24 0 0 0 60.7 63H46.23a7.24 7.24 0 0 0 7.24 7.2z"/></g></defs><g transform="translate(-189 -102)"><use xlink:href="#widget25" filter="url(#filter24)"/><use xlink:href="#widget25"/></g></svg>