<?xml version="1.0" encoding="utf-8"?>
<svg version="1.1" xmlns:xlink="http://www.w3.org/1999/xlink" width="18px" height="18px" xmlns="http://www.w3.org/2000/svg">
  <g transform="matrix(1 0 0 1 -125 -551 )">
    <path d="M 10.93359375 10.4709302325581  C 11.23828125 10.0949612403101  11.44140625 9.90697674418605  11.54296875 9.90697674418605  C 11.64453125 9.90697674418605  12.025390625 10.077519379845  12.685546875 10.4186046511628  C 13.345703125 10.7596899224806  13.6953125 10.9651162790698  13.734375 11.0348837209302  C 13.75 11.0736434108527  13.7578125 11.1317829457364  13.7578125 11.2093023255814  C 13.7578125 11.4651162790698  13.69140625 11.7596899224806  13.55859375 12.093023255814  C 13.43359375 12.3953488372093  13.15625 12.6492248062016  12.7265625 12.8546511627907  C 12.296875 13.0600775193798  11.8984375 13.1627906976744  11.53125 13.1627906976744  C 11.0859375 13.1627906976744  10.34375 12.922480620155  9.3046875 12.4418604651163  C 8.5390625 12.093023255814  7.875 11.6356589147287  7.3125 11.0697674418605  C 6.75 10.5038759689922  6.171875 9.78682170542636  5.578125 8.91860465116279  C 5.015625 8.0891472868217  4.73828125 7.33720930232558  4.74609375 6.66279069767442  L 4.74609375 6.56976744186046  C 4.76953125 5.86434108527132  5.05859375 5.25193798449612  5.61328125 4.73255813953488  C 5.80078125 4.56201550387597  6.00390625 4.47674418604651  6.22265625 4.47674418604651  C 6.26953125 4.47674418604651  6.33984375 4.48255813953488  6.43359375 4.49418604651163  C 6.52734375 4.50581395348837  6.6015625 4.51162790697674  6.65625 4.51162790697674  C 6.8046875 4.51162790697674  6.908203125 4.53682170542636  6.966796875 4.58720930232558  C 7.025390625 4.63759689922481  7.0859375 4.74418604651163  7.1484375 4.90697674418605  C 7.2109375 5.06201550387597  7.33984375 5.4031007751938  7.53515625 5.93023255813954  C 7.73046875 6.45736434108527  7.828125 6.74806201550387  7.828125 6.80232558139535  C 7.828125 6.96511627906977  7.693359375 7.18798449612403  7.423828125 7.47093023255814  C 7.154296875 7.75387596899225  7.01953125 7.93410852713178  7.01953125 8.01162790697675  C 7.01953125 8.06589147286822  7.0390625 8.12403100775194  7.078125 8.18604651162791  C 7.34375 8.75193798449612  7.7421875 9.28294573643411  8.2734375 9.77906976744186  C 8.7109375 10.1899224806202  9.30078125 10.5813953488372  10.04296875 10.953488372093  C 10.13671875 11.0077519379845  10.22265625 11.0348837209302  10.30078125 11.0348837209302  C 10.41796875 11.0348837209302  10.62890625 10.8468992248062  10.93359375 10.4709302325581  Z M 5.12109375 14.8604651162791  C 6.35546875 15.6666666666667  7.703125 16.0697674418605  9.1640625 16.0697674418605  C 10.15625 16.0697674418605  11.107421875 15.8759689922481  12.017578125 15.4883720930233  C 12.927734375 15.1007751937985  13.7109375 14.5813953488372  14.3671875 13.9302325581395  C 15.0234375 13.2790697674419  15.546875 12.5019379844961  15.9375 11.5988372093023  C 16.328125 10.6957364341085  16.5234375 9.75193798449612  16.5234375 8.76744186046512  C 16.5234375 7.78294573643411  16.328125 6.8391472868217  15.9375 5.93604651162791  C 15.546875 5.03294573643411  15.0234375 4.25581395348837  14.3671875 3.6046511627907  C 13.7109375 2.95348837209302  12.927734375 2.43410852713178  12.017578125 2.04651162790698  C 11.107421875 1.65891472868217  10.15625 1.46511627906977  9.1640625 1.46511627906977  C 8.171875 1.46511627906977  7.220703125 1.65891472868217  6.310546875 2.04651162790698  C 5.400390625 2.43410852713178  4.6171875 2.95348837209302  3.9609375 3.6046511627907  C 3.3046875 4.25581395348837  2.78125 5.03294573643411  2.390625 5.93604651162791  C 2 6.8391472868217  1.8046875 7.78294573643411  1.8046875 8.76744186046512  C 1.8046875 10.3410852713178  2.2734375 11.7674418604651  3.2109375 13.046511627907  L 2.28515625 15.7558139534884  L 5.12109375 14.8604651162791  Z M 5.736328125 0.69767441860465  C 6.826171875 0.232558139534883  7.96875 0  9.1640625 0  C 10.359375 0  11.501953125 0.232558139534883  12.591796875 0.69767441860465  C 13.681640625 1.16279069767442  14.62109375 1.78682170542636  15.41015625 2.56976744186046  C 16.19921875 3.35271317829457  16.828125 4.28488372093023  17.296875 5.36627906976744  C 17.765625 6.44767441860465  18 7.58139534883721  18 8.76744186046512  C 18 9.95348837209302  17.765625 11.0872093023256  17.296875 12.1686046511628  C 16.828125 13.25  16.19921875 14.1821705426357  15.41015625 14.9651162790698  C 14.62109375 15.7480620155039  13.681640625 16.3720930232558  12.591796875 16.8372093023256  C 11.501953125 17.3023255813954  10.359375 17.5348837209302  9.1640625 17.5348837209302  C 7.640625 17.5348837209302  6.21484375 17.1705426356589  4.88671875 16.4418604651163  L 0 18  L 1.59375 13.2906976744186  C 0.75 11.9108527131783  0.328125 10.4031007751938  0.328125 8.76744186046512  C 0.328125 7.58139534883721  0.5625 6.44767441860465  1.03125 5.36627906976744  C 1.5 4.28488372093023  2.12890625 3.35271317829457  2.91796875 2.56976744186046  C 3.70703125 1.78682170542636  4.646484375 1.16279069767442  5.736328125 0.69767441860465  Z " fill-rule="nonzero" fill="#ffffff" stroke="none" transform="matrix(1 0 0 1 125 551 )" />
  </g>
</svg>