<?xml version="1.0" encoding="utf-8"?>
<svg version="1.1"
	xmlns:xlink="http://www.w3.org/1999/xlink"
	width="96px"
	height="96px"
	xmlns="http://www.w3.org/2000/svg"
	viewBox="0 0 96 96"
	xml:space="preserve"
>
	<path
		d="M70.305,12.547c-7.052,-4.431 -14.924,-6.547
		-22.702,-6.547c-14.041,0.001 -27.78,6.892 -35.863,19.492c-2.842,4.432
		-4.732,9.19 -5.74,14.043l7.973,1.362c0.826,-3.844 2.341,-7.61
		4.591,-11.117c6.338,-9.881 17.194,-15.78 29.039,-15.781c6.499,-0
		12.851,1.834 18.37,5.301c15.991,10.047 20.74,31.096
		10.589,46.921c-6.339,9.881 -17.194,15.78 -29.04,15.78c-6.499,0
		-12.85,-1.833 -18.369,-5.3c-2.568,-1.613 -4.826,-3.522
		-6.797,-5.635l-6.108,5.246c2.476,2.68 5.325,5.101
		8.572,7.142c7.053,4.431 14.924,6.546 22.702,6.546c14.041,0 27.781,-6.892
		35.863,-19.491c12.56,-19.581 6.705,-45.53 -13.08,-57.962Z"
		fill="#5d1bc0"
	>
		<animateTransform
			attributeType="xml"
			attributeName="transform"
			type="rotate"
			from="0 48 48"
			to="360 48 48"
			dur="0.8s"
			repeatCount="indefinite"
		/>
	</path>
</svg>
