<?xml version="1.0" encoding="utf-8"?>
<svg version="1.1" xmlns:xlink="http://www.w3.org/1999/xlink" width="49px" height="46px" xmlns="http://www.w3.org/2000/svg">
  <g transform="matrix(1 0 0 1 -201 -190 )">
    <path d="M 27.0411458333333 1.909375  C 26.0052083333333 -0.180208333333335  23.0036458333333 -0.206770833333334  21.9588541666667 1.909375  L 16.1770833333333 13.6322916666667  L 3.24114583333333 15.5182291666667  C 0.921354166666667 15.8546875  -0.00833333333333364 18.7145833333333  1.67395833333333 20.3526041666667  L 11.0328125 29.4723958333333  L 8.81927083333333 42.3552083333333  C 8.42083333333333 44.6838541666667  10.8734375 46.428125  12.9276041666667 45.3390625  L 24.5 39.25625  L 36.0723958333333 45.3390625  C 38.1265625 46.4192708333333  40.5791666666667 44.6838541666667  40.1807291666667 42.3552083333333  L 37.9671875 29.4723958333333  L 47.3260416666667 20.3526041666667  C 49.0083333333333 18.7145833333333  48.0786458333333 15.8546875  45.7588541666667 15.5182291666667  L 32.8229166666667 13.6322916666667  L 27.0411458333333 1.909375  Z " fill-rule="nonzero" fill="#ffcc00" stroke="none" transform="matrix(1 0 0 1 201 190 )" />
  </g>
</svg>