<?xml version="1.0" encoding="utf-8"?>
<svg version="1.1" xmlns:xlink="http://www.w3.org/1999/xlink" width="36px" height="30px" xmlns="http://www.w3.org/2000/svg">
  <g transform="matrix(1 0 0 1 -48 -292 )">
    <path d="M 31.751269035533 4.734375  C 33.1675126903553 4.578125  34.5837563451777 4.18749999999999  36 3.5625  C 34.9796954314721 5.09375  33.746192893401 6.3984375  32.2994923857868 7.4765625  C 32.3147208121827 7.6953125  32.3223350253807 8.0234375  32.3223350253807 8.4609375  C 32.3223350253807 10.4921875  32.0329949238579 12.51953125  31.4543147208122 14.54296875  C 30.8756345177665 16.56640625  29.996192893401 18.5078125  28.8159898477157 20.3671875  C 27.6357868020305 22.2265625  26.2309644670051 23.87109375  24.6015228426396 25.30078125  C 22.9720812182741 26.73046875  21.007614213198 27.87109375  18.7081218274112 28.72265625  C 16.4086294416244 29.57421875  13.9492385786802 30  11.3299492385787 30  C 7.20304568527919 30  3.42639593908629 28.8671875  0 26.6015625  C 0.532994923857868 26.6640625  1.12690355329949 26.6953125  1.78172588832487 26.6953125  C 5.20812182741117 26.6953125  8.26142131979695 25.6171875  10.9416243654822 23.4609375  C 9.34263959390863 23.4296875  7.91116751269036 22.92578125  6.64720812182741 21.94921875  C 5.38324873096447 20.97265625  4.51522842639594 19.7265625  4.04314720812183 18.2109375  C 4.54568527918782 18.2890625  5.01015228426396 18.328125  5.43654822335025 18.328125  C 6.09137055837563 18.328125  6.73857868020305 18.2421875  7.37817258883249 18.0703125  C 5.67258883248731 17.7109375  4.26015228426396 16.83984375  3.14086294416244 15.45703125  C 2.02157360406091 14.07421875  1.46192893401015 12.46875  1.46192893401015 10.640625  L 1.46192893401015 10.546875  C 2.49746192893401 11.140625  3.60913705583756 11.4609375  4.79695431472081 11.5078125  C 3.79187817258883 10.8203125  2.99238578680203 9.921875  2.39847715736041 8.8125  C 1.80456852791878 7.70312499999999  1.50761421319797 6.5  1.50761421319797 5.203125  C 1.50761421319797 3.828125  1.84263959390863 2.5546875  2.51269035532995 1.3828125  C 4.35532994923858 3.7109375  6.59771573604061 5.57421875  9.23984771573604 6.97265625  C 11.8819796954315 8.37109375  14.7106598984772 9.1484375  17.7258883248731 9.3046875  C 17.6040609137056 8.7109375  17.5431472081218 8.1328125  17.5431472081218 7.5703125  C 17.5431472081218 5.47656249999999  18.2626903553299 3.69140625  19.7017766497462 2.21484375  C 21.1408629441624 0.738281250000001  22.8807106598985 0  24.9213197969543 0  C 27.0532994923858 0  28.8502538071066 0.796875000000001  30.3121827411168 2.390625  C 31.9720812182741 2.0625  33.5329949238579 1.453125  34.994923857868 0.562500000000001  C 34.4314720812183 2.359375  33.3502538071066 3.75  31.751269035533 4.734375  Z " fill-rule="nonzero" fill="#2c106a" stroke="none" transform="matrix(1 0 0 1 48 292 )" />
  </g>
</svg>