<?xml version="1.0" encoding="utf-8"?>
<svg version="1.1" xmlns:xlink="http://www.w3.org/1999/xlink" width="54px" height="45px" xmlns="http://www.w3.org/2000/svg">
  <g transform="matrix(1 0 0 1 -199 -191 )">
    <path d="M 47.6269035532995 7.1015625  C 49.751269035533 6.8671875  51.8756345177665 6.28124999999999  54 5.34375  C 52.4695431472081 7.640625  50.6192893401015 9.59765625  48.4492385786802 11.21484375  C 48.4720812182741 11.54296875  48.4835025380711 12.03515625  48.4835025380711 12.69140625  C 48.4835025380711 15.73828125  48.0494923857868 18.779296875  47.1814720812183 21.814453125  C 46.3134517766498 24.849609375  44.9942893401015 27.76171875  43.2239847715736 30.55078125  C 41.4536802030457 33.33984375  39.3464467005076 35.806640625  36.9022842639594 37.951171875  C 34.4581218274112 40.095703125  31.511421319797 41.806640625  28.0621827411168 43.083984375  C 24.6129441624366 44.361328125  20.9238578680203 45  16.994923857868 45  C 10.8045685279188 45  5.13959390862944 43.30078125  0 39.90234375  C 0.799492385786802 39.99609375  1.69035532994924 40.04296875  2.67258883248731 40.04296875  C 7.81218274111675 40.04296875  12.3921319796954 38.42578125  16.4124365482234 35.19140625  C 14.0139593908629 35.14453125  11.8667512690355 34.388671875  9.97081218274112 32.923828125  C 8.0748730964467 31.458984375  6.77284263959391 29.58984375  6.06472081218274 27.31640625  C 6.81852791878173 27.43359375  7.51522842639594 27.4921875  8.15482233502538 27.4921875  C 9.13705583756345 27.4921875  10.1078680203046 27.36328125  11.0672588832487 27.10546875  C 8.50888324873096 26.56640625  6.39022842639594 25.259765625  4.71129441624365 23.185546875  C 3.03236040609137 21.111328125  2.19289340101523 18.703125  2.19289340101523 15.9609375  L 2.19289340101523 15.8203125  C 3.74619289340102 16.7109375  5.41370558375635 17.19140625  7.19543147208122 17.26171875  C 5.68781725888325 16.23046875  4.48857868020304 14.8828125  3.59771573604061 13.21875  C 2.70685279187817 11.5546875  2.26142131979696 9.74999999999999  2.26142131979696 7.8046875  C 2.26142131979696 5.7421875  2.76395939086294 3.83203125  3.76903553299492 2.07421875  C 6.53299492385787 5.56640625  9.89657360406091 8.361328125  13.8597715736041 10.458984375  C 17.8229695431472 12.556640625  22.0659898477157 13.72265625  26.5888324873096 13.95703125  C 26.4060913705584 13.06640625  26.3147208121827 12.19921875  26.3147208121827 11.35546875  C 26.3147208121827 8.21484374999999  27.3940355329949 5.537109375  29.5526649746193 3.322265625  C 31.7112944162437 1.107421875  34.3210659898477 0  37.3819796954315 0  C 40.5799492385787 0  43.2753807106599 1.1953125  45.4682741116751 3.5859375  C 47.9581218274112 3.09375  50.2994923857868 2.1796875  52.492385786802 0.843750000000002  C 51.6472081218274 3.53906249999999  50.0253807106599 5.625  47.6269035532995 7.1015625  Z " fill-rule="nonzero" fill="#791a7f" stroke="none" transform="matrix(1 0 0 1 199 191 )" />
  </g>
</svg>