<?xml version="1.0" encoding="UTF-8" standalone="no"?><!DOCTYPE svg PUBLIC "-//W3C//DTD SVG 1.1//EN" "http://www.w3.org/Graphics/SVG/1.1/DTD/svg11.dtd"><svg width="100%" height="100%" viewBox="0 0 36 30" version="1.1" xmlns="http://www.w3.org/2000/svg" xmlns:xlink="http://www.w3.org/1999/xlink" xml:space="preserve" xmlns:serif="http://www.serif.com/" style="fill-rule:evenodd;clip-rule:evenodd;stroke-linejoin:round;stroke-miterlimit:2;"><g><path d="M4.249,4.734c-1.417,-0.156 -2.833,-0.547 -4.249,-1.171c1.02,1.531 2.254,2.835 3.701,3.914c-0.016,0.218 -0.023,0.546 -0.023,0.984c0,2.031 0.289,4.059 0.868,6.082c0.578,2.023 1.458,3.965 2.638,5.824c1.18,1.86 2.585,3.504 4.214,4.934c1.63,1.429 3.594,2.57 5.894,3.422c2.299,0.851 4.759,1.277 7.378,1.277c4.127,0 7.904,-1.133 11.33,-3.398c-0.533,0.062 -1.127,0.093 -1.782,0.093c-3.426,0 -6.479,-1.078 -9.16,-3.234c1.599,-0.031 3.031,-0.535 4.295,-1.512c1.264,-0.976 2.132,-2.222 2.604,-3.738c-0.503,0.078 -0.967,0.117 -1.394,0.117c-0.654,0 -1.302,-0.086 -1.941,-0.258c1.705,-0.359 3.118,-1.23 4.237,-2.613c1.119,-1.383 1.679,-2.988 1.679,-4.816l-0,-0.094c-1.035,0.594 -2.147,0.914 -3.335,0.961c1.005,-0.688 1.805,-1.586 2.399,-2.695c0.593,-1.11 0.89,-2.313 0.89,-3.61c-0,-1.375 -0.335,-2.648 -1.005,-3.82c-1.842,2.328 -4.085,4.191 -6.727,5.59c-2.642,1.398 -5.471,2.175 -8.486,2.332c0.122,-0.594 0.183,-1.172 0.183,-1.735c0,-2.093 -0.72,-3.879 -2.159,-5.355c-1.439,-1.477 -3.179,-2.215 -5.219,-2.215c-2.132,-0 -3.929,0.797 -5.391,2.391c-1.66,-0.328 -3.221,-0.938 -4.683,-1.828c0.564,1.796 1.645,3.187 3.244,4.171Z" style="fill:#5d1bc0;fill-rule:nonzero;"/></g></svg>
