<svg viewBox="0 0 36 30" xmlns="http://www.w3.org/2000/svg" fill-rule="evenodd" clip-rule="evenodd" stroke-linejoin="round" stroke-miterlimit="2"><path d="M31.751 4.734c1.417-.156 2.833-.547 4.249-1.171a15.696 15.696 0 0 1-3.701 3.914c.016.218.023.546.023.984 0 2.031-.289 4.059-.868 6.082a22.231 22.231 0 0 1-2.638 5.824 22.727 22.727 0 0 1-4.214 4.934c-1.63 1.429-3.594 2.57-5.894 3.422C16.409 29.574 13.949 30 11.33 30 7.203 30 3.426 28.867 0 26.602a15.52 15.52 0 0 0 1.782.093c3.426 0 6.479-1.078 9.16-3.234a7.075 7.075 0 0 1-4.295-1.512 7.397 7.397 0 0 1-2.604-3.738c.503.078.967.117 1.394.117.654 0 1.302-.086 1.941-.258-1.705-.359-3.118-1.23-4.237-2.613-1.119-1.383-1.679-2.988-1.679-4.816v-.094a7.176 7.176 0 0 0 3.335.961 7.503 7.503 0 0 1-2.399-2.695 7.542 7.542 0 0 1-.89-3.61c0-1.375.335-2.648 1.005-3.82a21.033 21.033 0 0 0 6.727 5.59 20.171 20.171 0 0 0 8.486 2.332 8.612 8.612 0 0 1-.183-1.735c0-2.093.72-3.879 2.159-5.355C21.141.738 22.881 0 24.921 0c2.132 0 3.929.797 5.391 2.391A14.257 14.257 0 0 0 34.995.563c-.564 1.796-1.645 3.187-3.244 4.171z" fill="#fff" fill-rule="nonzero"/></svg>