<svg width="22" height="22" xmlns="http://www.w3.org/2000/svg"><path d="M6.728.872A10.753 10.753 0 0 1 11 0c1.49 0 2.914.29 4.272.872 1.359.58 2.53 1.362 3.511 2.345.983.982 1.764 2.152 2.345 3.51C21.71 8.088 22 9.51 22 11c0 1.481-.289 2.901-.866 4.26s-1.356 2.53-2.338 3.511c-.982.982-2.153 1.766-3.511 2.351A10.718 10.718 0 0 1 11 22a10.77 10.77 0 0 1-4.285-.872c-1.358-.58-2.527-1.364-3.505-2.35-.978-.987-1.757-2.157-2.338-3.512A10.71 10.71 0 0 1 0 11c0-1.49.29-2.914.872-4.272.58-1.359 1.362-2.53 2.345-3.511.982-.983 2.152-1.764 3.51-2.345zm8.115 11.7c1.964 0 3.216 1.338 3.756 4.014 1.22-1.678 1.83-3.54 1.83-5.586 0-1.277-.25-2.496-.75-3.658a9.512 9.512 0 0 0-2.013-3.008 9.512 9.512 0 0 0-3.008-2.014A9.173 9.173 0 0 0 11 1.571c-1.277 0-2.496.25-3.658.75a9.512 9.512 0 0 0-3.008 2.013A9.512 9.512 0 0 0 2.32 7.342 9.173 9.173 0 0 0 1.571 11c0 2.046.61 3.908 1.83 5.586.54-2.676 1.792-4.015 3.756-4.015C8.23 13.62 9.51 14.143 11 14.143c1.49 0 2.77-.524 3.843-1.572zm-.51-.596c.92-.92 1.381-2.032 1.381-3.333 0-1.301-.46-2.413-1.38-3.333C13.411 4.389 12.3 3.929 11 3.929c-1.301 0-2.412.46-3.333 1.38-.92.921-1.381 2.033-1.381 3.334 0 1.301.46 2.412 1.38 3.333.922.92 2.033 1.381 3.334 1.381 1.301 0 2.412-.46 3.333-1.381z" fill="#fff"/></svg>