<svg viewBox="0 0 601 57" xmlns="http://www.w3.org/2000/svg" fill-rule="evenodd" clip-rule="evenodd" stroke-linejoin="round" stroke-miterlimit="2"><path d="M.333 25.353c-.749-.266 0 30.846 0 30.846s599.191-.679 600 0v-31.85c.565-.177-.018-.324-.559-.531C568.721 11.627 535.796 3.569 500.373.882A297.028 297.028 0 0 0 461.329.44c-16.026.885-31.802 2.952-47.411 5.697-25.849 4.545-50.866 10.833-75.591 17.74-22.603 6.287-45.08 12.811-68.265 18.006-35.923 8.059-72.553 13.313-110.348 14.08-.833.059-1.624.148-2.415.236h-12.487a25.935 25.935 0 0 0-2.206-.265c-16.026-.473-31.718-2.48-47.245-5.255C63.144 44.864 29.845 36.127.333 25.353z" fill="#fff" fill-rule="nonzero"/></svg>