<?xml version="1.0" encoding="utf-8"?>
<!-- Generator: Adobe Illustrator 24.1.3, SVG Export Plug-In . SVG Version: 6.00 Build 0)  -->
<svg version="1.1" id="Layer_1" xmlns="http://www.w3.org/2000/svg" xmlns:xlink="http://www.w3.org/1999/xlink" x="0px" y="0px"
	 viewBox="0 0 495.1 149.2" style="enable-background:new 0 0 495.1 149.2;" xml:space="preserve">
<style type="text/css">
	.st0{fill:#442E79;}
	.st1{fill:#FDED8B;}
	.st2{fill:#74528F;}
	.st3{fill:#959595;stroke:#231F20;stroke-width:5.93;stroke-miterlimit:10;}
	.st4{fill:#C1C0C0;}
	.st5{fill:none;stroke:#000000;stroke-width:5.95;stroke-miterlimit:10;}
	.st6{fill:#74528F;stroke:#000000;stroke-width:4;stroke-miterlimit:10;}
	.st7{fill:#959595;}
	.st8{fill:#BDAE68;}
	.st9{fill:none;stroke:#000000;stroke-width:1.04;stroke-miterlimit:10;}
	.st10{fill:none;stroke:#000000;stroke-width:4;stroke-miterlimit:10;}
</style>
<path class="st0" d="M2.4,127.8c-1.6,0-2.4-0.7-2.4-2.4V82.6c0-1.7,0.7-2.4,2.4-2.4h20.2c12,0,15.6,5.2,15.6,12.9v8.5
	c0,7.7-3.6,12.9-15.6,12.9H15v11c0,1.7-0.7,2.4-2.4,2.4L2.4,127.8z M14.9,102.6h5.9c2.6,0,3.1-1.5,3.1-3.2v-3.5
	c0-1.7-0.5-3.2-3.1-3.2h-5.9V102.6z"/>
<path class="st0" d="M47.6,127.8c-1.7,0-2.4-0.7-2.4-2.4V82.6c0-1.7,0.7-2.4,2.4-2.4h30.7c1.7,0,2.4,0.7,2.4,2.4v7.7
	c0,1.7-0.7,2.4-2.4,2.4H60v5.1h12.9c1.7,0,2.4,0.7,2.4,2.4v7.1c0,1.7-0.7,2.4-2.4,2.4H60v5.7h18.3c1.7,0,2.4,0.7,2.4,2.4v7.7
	c0,1.7-0.7,2.4-2.4,2.4L47.6,127.8z"/>
<path class="st0" d="M103,127.8c-11.1,0-16.2-4.3-16.2-13.5V93.7c0-9.2,5.2-13.5,16.2-13.5h16.5c1.7,0,2.4,0.7,2.4,2.4v8
	c0,1.7-0.7,2.4-2.4,2.4h-13.7c-2.8,0-4,1.1-4,3.3v15.8c0,2.2,1,3.2,3,3.2h6.4V105c0-1.7,0.7-2.4,2.4-2.4h10.2c1.7,0,2.4,0.7,2.4,2.4
	v20.4c0,1.7-0.7,2.4-2.4,2.4H103z"/>
<path class="st0" d="M146.5,127.8h-9.7c-1.6,0-2.4-0.7-2.4-2.4V108c0-2.6,0.8-6,2.6-10.6l5.8-15c0.4-1.5,1.9-2.4,3.4-2.2h17.8
	c1.5-0.2,2.9,0.7,3.3,2.2l5.8,15c1.8,4.6,2.6,7.9,2.6,10.6v17.4c0,1.7-0.7,2.4-2.4,2.4h-10c-1.8,0-2.6-0.7-2.6-2.4v-9.2h-11.7v9.2
	C148.9,127.1,148.1,127.8,146.5,127.8z M149.5,104.1h10.4l-3.1-10c-0.3-0.8-0.7-1.1-1.2-1.1h-1.7c-0.5,0-0.9,0.3-1.2,1.1
	L149.5,104.1z"/>
<path class="st0" d="M186,127.8c-1.6,0-2.4-0.7-2.4-2.4V82.6c0-1.7,0.7-2.4,2.4-2.4h21.1c8.7,0,12.7,3.2,12.7,10.1v3.2
	c0,3.7-1.2,6-3.9,7.1c5.7,0.5,8.3,3.8,8.3,10.2v6.1c0,7.4-4,10.8-12.8,10.8L186,127.8z M198.5,98.6h5.6c1.7,0,2.5-0.9,2.5-2.7v-1.8
	c0-1.8-0.8-2.6-2.5-2.6h-5.6V98.6z M198.5,116.6h8.6c1.7,0,2.5-0.9,2.5-2.6v-2.6c0-1.8-0.8-2.6-2.5-2.6h-8.6V116.6z"/>
<path class="st0" d="M250.8,127.8c-16.5,0-20.6-5.4-20.6-13.5V91.8c0-8.1,4-13.5,20.6-13.5s20.5,5.5,20.5,13.5v22.5
	C271.3,122.4,267.4,127.8,250.8,127.8z M250.8,115c4.8,0,5.6-1.3,5.6-3.1V94.2c0-1.7-0.7-3-5.6-3s-5.6,1.3-5.6,3v17.8
	C245.3,113.7,246.1,115,250.8,115L250.8,115z"/>
<path class="st0" d="M291.9,127.8c-1.6,0-2.4-0.7-2.4-2.4V93h-9.7c-1.6,0-2.4-0.7-2.4-2.4v-8c0-1.7,0.7-2.4,2.4-2.4h34.9
	c1.6,0,2.4,0.7,2.4,2.4v8c0,1.7-0.7,2.4-2.4,2.4H305v32.4c0,1.7-0.7,2.4-2.4,2.4L291.9,127.8z"/>
<path class="st1" d="M493.4,24.5C491.6,12.2,476,0,460.5,0c-16.7,0-30.2,11.2-30.2,25c0,13.5,12.9,24.4,29,25c0.8,0,1.6,0,2.4,0.1
	h0.3c3.6,0.3,6.9,1.7,9.7,3.9c3.1,2.7,5.4,6.6,0.7,11.2l-3.7,3.6l-7.1,7.3c-0.2,0.2-0.2,0.4,0,0.6c0.1,0.1,0.2,0.1,0.4,0.1
	c1.2-0.3,3-0.7,3.5-0.8c21-7.3,32.6-26.7,28.9-48.1C494.2,26.8,493.8,25.7,493.4,24.5L493.4,24.5z"/>
<path class="st2" d="M451.8,27.8c-0.8-0.1-1.1-0.5-1-1.3l0.4-4.5c0.1-0.9,0.6-1.2,1.4-1l6.7,0.8c0.5,0.1,1-0.1,1.1-0.6
	c0-0.1,0-0.1,0-0.2c0.2-0.4,0-0.9-0.4-1.1c-0.1,0-0.1,0-0.2-0.1l-8.9-2.3c-0.6,0-1-0.4-1-1c0-0.2,0-0.4,0.2-0.6l1-3.9
	c0-0.6,0.5-1,1-1c0.2,0,0.3,0,0.5,0.1l10.5,2.7c4.2,1.1,6.2,3.7,5.2,7.4l-0.9,3.4c-0.9,3.6-3.2,4.5-6.4,4.1L451.8,27.8z M449.1,35.2
	c-0.8-0.2-1.1-0.7-0.9-1.5l1.1-4.2c0.2-0.8,0.6-1.1,1.5-0.9l5.9,1.5c0.8,0.2,1.1,0.6,0.9,1.5l-1.1,4.2c0,0.6-0.5,1-1,1
	c-0.2,0-0.3,0-0.4-0.1L449.1,35.2z"/>
<path class="st2" d="M471.6,32c-0.6-0.1-1-0.6-1-1.2c0-0.1,0-0.2,0.1-0.3l2.7-12.6c0.2-0.8,0.6-1.1,1.4-0.9l6.2,1.6
	c0.8,0.2,1,0.6,0.8,1.5l-3.7,12.4c-0.1,0.6-0.6,1-1.2,0.9c-0.1,0-0.2,0-0.3-0.1L471.6,32z M469,40.4c-0.6,0-1-0.5-1-1
	c0-0.2,0-0.3,0.1-0.4l1.1-4.2c0-0.6,0.5-1,1-1c0.2,0,0.3,0,0.4,0.1l6,1.5c0.6,0,1,0.5,1,1c0,0.2,0,0.3-0.1,0.4l-1.1,4.2
	c0,0.6-0.5,1-1,1c-0.2,0-0.3,0-0.4-0.1L469,40.4z"/>
<path class="st3" d="M453.6,103h13.7c0.9,0,1.7,0.8,1.7,1.7v15.7c0,0.9-0.8,1.7-1.7,1.7h-13.7c-0.9,0-1.7-0.8-1.7-1.7v-15.7
	C451.9,103.8,452.6,103,453.6,103z"/>
<path class="st3" d="M348.2,103h13.7c0.9,0,1.7,0.8,1.7,1.7v15.7c0,0.9-0.8,1.7-1.7,1.7h-13.7c-0.9,0-1.7-0.8-1.7-1.7v-15.7
	C346.5,103.8,347.2,103,348.2,103z"/>
<path class="st4" d="M398.9,59.9h15.7c21.5,0,39,17.5,39,39v37.8c0,5.3-4.3,9.6-9.6,9.6h-73.3c-5.3,0-9.6-4.3-9.6-9.6V97.7
	C361.1,76.8,378,59.9,398.9,59.9C398.9,59.9,398.9,59.9,398.9,59.9L398.9,59.9z"/>
<line class="st5" x1="407.3" y1="48.8" x2="407.3" y2="59.9"/>
<circle class="st6" cx="407.3" cy="39.9" r="9.1"/>
<path class="st7" d="M453.9,124.2V99.3c0-12.6-6.6-23.8-16.7-31l-50.9,78.3l63.2-1.7C451.4,138.2,452.9,131.3,453.9,124.2z"/>
<circle cx="392.2" cy="90.9" r="6"/>
<circle cx="421.6" cy="90.9" r="6"/>
<path class="st1" d="M384,110.6h44.6c4.5,0,8.1,3.6,8.1,8.1v0c0,4.5-3.6,8.1-8.1,8.1H384c-4.5,0-8.1-3.6-8.1-8.1v0
	C376,114.2,379.6,110.6,384,110.6z"/>
<polygon class="st8" points="376.1,118.1 436.6,120.3 432.7,126.1 381.6,126.1 "/>
<line class="st9" x1="384.8" y1="111.8" x2="384.8" y2="124.7"/>
<line class="st9" x1="389.5" y1="111.8" x2="389.5" y2="124.7"/>
<line class="st9" x1="394.3" y1="111.8" x2="394.3" y2="124.7"/>
<line class="st9" x1="399" y1="111.8" x2="399" y2="124.7"/>
<line class="st9" x1="403.8" y1="111.8" x2="403.8" y2="124.7"/>
<line class="st9" x1="408.5" y1="111.8" x2="408.5" y2="124.7"/>
<line class="st9" x1="413.3" y1="111.8" x2="413.3" y2="124.7"/>
<line class="st9" x1="418" y1="111.8" x2="418" y2="124.7"/>
<line class="st9" x1="422.8" y1="111.8" x2="422.8" y2="124.7"/>
<line class="st9" x1="427.6" y1="111.8" x2="427.6" y2="124.7"/>
<path class="st10" d="M384,110.6h44.6c4.5,0,8.1,3.6,8.1,8.1v0c0,4.5-3.6,8.1-8.1,8.1H384c-4.5,0-8.1-3.6-8.1-8.1v0
	C376,114.2,379.6,110.6,384,110.6z"/>
<path class="st5" d="M398,59.9h15.7c21.5,0,39,17.5,39,39v37.8c0,5.3-4.3,9.6-9.6,9.6h-73.4c-5.3,0-9.6-4.3-9.6-9.6V97.7
	C360.1,76.8,377.1,59.9,398,59.9C398,59.9,398,59.9,398,59.9z"/>
</svg>
