<?xml version="1.0" encoding="UTF-8" standalone="no"?>
<!DOCTYPE svg PUBLIC "-//W3C//DTD SVG 1.1//EN" "http://www.w3.org/Graphics/SVG/1.1/DTD/svg11.dtd">
<svg
	width="24px"
	height="24px"
	viewBox="0 0 24 24"
	version="1.1"
	xmlns="http://www.w3.org/2000/svg"
	xmlns:xlink="http://www.w3.org/1999/xlink"
	xml:space="preserve"
	xmlns:serif="http://www.serif.com/"
>
	<path
		d="M5.977,1.609c1.838,-1.073 3.846,-1.609 6.023,-1.609c2.177,0 4.185,0.536 6.023,1.609c1.839,1.073 3.295,2.529 4.368,4.368c1.073,1.838 1.609,3.846 1.609,6.023c0,2.177 -0.536,4.185 -1.609,6.023c-1.073,1.839 -2.529,3.295 -4.368,4.368c-1.838,1.073 -3.846,1.609 -6.023,1.609c-2.177,0 -4.185,-0.536 -6.023,-1.609c-1.839,-1.073 -3.295,-2.529 -4.368,-4.368c-1.073,-1.838 -1.609,-3.846 -1.609,-6.023c0,-2.177 0.536,-4.185 1.609,-6.023c1.073,-1.839 2.529,-3.295 4.368,-4.368Zm7.726,19.985c0,0.062 0.011,0.146 0.031,0.25c2.146,-0.375 3.974,-1.36 5.485,-2.953c-0.031,-0.032 -0.097,-0.055 -0.196,-0.071c-0.099,-0.015 -0.164,-0.034 -0.195,-0.054c-0.187,-0.073 -0.312,-0.115 -0.375,-0.125c0.011,-0.073 -0.002,-0.141 -0.039,-0.203c-0.036,-0.063 -0.078,-0.11 -0.125,-0.141l-0.367,-0.234l-0.219,-0.18c-0.021,-0.016 -0.06,-0.039 -0.117,-0.07c-0.057,-0.032 -0.102,-0.042 -0.133,-0.032c-0.031,0.011 -0.083,0.016 -0.156,0.016l-0.047,0.016c-0.031,0.01 -0.06,0.023 -0.086,0.039c-0.026,0.015 -0.055,0.031 -0.086,0.046c-0.031,0.016 -0.052,0.032 -0.062,0.047c-0.011,0.016 -0.011,0.029 -0,0.039c-0.219,-0.177 -0.407,-0.291 -0.563,-0.343c-0.052,-0.011 -0.109,-0.039 -0.172,-0.086c-0.062,-0.047 -0.117,-0.084 -0.164,-0.11c-0.047,-0.026 -0.099,-0.034 -0.156,-0.023c-0.057,0.01 -0.117,0.047 -0.18,0.109c-0.052,0.052 -0.083,0.13 -0.094,0.235c-0.01,0.104 -0.02,0.171 -0.031,0.203c-0.073,-0.052 -0.073,-0.143 0,-0.274c0.073,-0.13 0.084,-0.226 0.031,-0.289c-0.031,-0.062 -0.085,-0.086 -0.164,-0.07c-0.078,0.016 -0.14,0.039 -0.187,0.07c-0.047,0.032 -0.107,0.076 -0.18,0.133c-0.073,0.057 -0.12,0.091 -0.14,0.102c-0.021,0.01 -0.065,0.039 -0.133,0.086c-0.068,0.046 -0.112,0.086 -0.133,0.117c-0.031,0.041 -0.062,0.104 -0.094,0.187c-0.031,0.084 -0.057,0.141 -0.078,0.172c-0.021,-0.042 -0.081,-0.075 -0.18,-0.101c-0.099,-0.026 -0.148,-0.055 -0.148,-0.086c0.021,0.104 0.042,0.286 0.063,0.547c0.02,0.26 0.046,0.458 0.078,0.593c0.073,0.323 0.01,0.573 -0.188,0.75c-0.281,0.261 -0.432,0.469 -0.453,0.625c-0.042,0.229 0.021,0.365 0.188,0.406c-0,0.073 -0.042,0.18 -0.126,0.321c-0.083,0.14 -0.119,0.252 -0.109,0.336Zm-3.219,-19.25c-0.052,0.073 -0.08,0.133 -0.086,0.179c-0.005,0.047 0.021,0.089 0.079,0.125c0.057,0.037 0.112,0.066 0.164,0.086c0.052,0.021 0.112,0.042 0.179,0.063c0.068,0.021 0.112,0.036 0.133,0.047c0.146,0.104 0.188,0.177 0.125,0.219l-0.312,0.125c-0.052,0.02 -0.084,0.041 -0.094,0.062c-0.031,0.042 -0.031,0.115 -0,0.219c0.031,0.104 0.021,0.177 -0.031,0.218c-0.052,-0.052 -0.099,-0.143 -0.141,-0.273c-0.042,-0.13 -0.078,-0.216 -0.109,-0.258c0.073,0.094 -0.058,0.125 -0.391,0.094l-0.156,-0.016c-0.042,0 -0.125,0.011 -0.25,0.032c-0.125,0.02 -0.232,0.026 -0.321,0.015c-0.088,-0.01 -0.158,-0.052 -0.21,-0.125c-0.042,-0.083 -0.042,-0.187 -0,-0.312c0.01,-0.042 0.031,-0.052 0.062,-0.031c-0.042,-0.032 -0.099,-0.081 -0.172,-0.149c-0.073,-0.068 -0.125,-0.112 -0.156,-0.133c-0.479,0.157 -0.969,0.37 -1.469,0.641c0.063,0.01 0.125,0.005 0.188,-0.016l0.359,-0.187c0.354,-0.146 0.573,-0.183 0.656,-0.11l0.078,-0.078c0.146,0.167 0.25,0.297 0.313,0.391c-0.073,-0.042 -0.229,-0.047 -0.469,-0.016c-0.208,0.063 -0.323,0.125 -0.344,0.188c0.073,0.125 0.099,0.219 0.078,0.281c-0.041,-0.031 -0.101,-0.083 -0.179,-0.156c-0.078,-0.073 -0.154,-0.13 -0.227,-0.172c-0.073,-0.042 -0.151,-0.068 -0.234,-0.078c-0.167,-0 -0.281,0.005 -0.344,0.015c-1.521,0.834 -2.745,1.99 -3.672,3.469c0.073,0.073 0.136,0.115 0.188,0.125c0.041,0.011 0.067,0.057 0.078,0.141c0.01,0.083 0.023,0.14 0.039,0.172c0.016,0.031 0.075,0.015 0.18,-0.047c0.093,0.083 0.109,0.182 0.046,0.297c0.011,-0.011 0.24,0.13 0.688,0.421c0.198,0.178 0.307,0.287 0.328,0.329c0.031,0.114 -0.021,0.208 -0.156,0.281c-0.011,-0.021 -0.057,-0.068 -0.141,-0.141c-0.083,-0.073 -0.13,-0.094 -0.14,-0.062c-0.032,0.052 -0.029,0.148 0.007,0.289c0.037,0.14 0.092,0.206 0.164,0.195c-0.072,0 -0.122,0.083 -0.148,0.25c-0.026,0.167 -0.039,0.352 -0.039,0.555c-0,0.203 -0.005,0.325 -0.016,0.367l0.032,0.016c-0.032,0.125 -0.003,0.304 0.086,0.539c0.088,0.234 0.2,0.336 0.336,0.304c-0.136,0.032 -0.032,0.256 0.312,0.672c0.063,0.084 0.104,0.13 0.125,0.141l0.422,0.273c0.062,0.047 0.114,0.102 0.156,0.164c0.042,0.052 0.094,0.17 0.156,0.352c0.063,0.182 0.136,0.305 0.219,0.367c-0.021,0.063 0.029,0.167 0.149,0.313c0.119,0.145 0.174,0.265 0.164,0.359c-0.011,0 -0.024,0.005 -0.039,0.016c-0.016,0.01 -0.029,0.015 -0.04,0.015c0.032,0.073 0.112,0.146 0.243,0.219c0.13,0.073 0.211,0.141 0.242,0.203c0.01,0.031 0.021,0.083 0.031,0.156c0.011,0.073 0.026,0.131 0.047,0.172c0.021,0.042 0.063,0.052 0.125,0.031c0.021,-0.208 -0.104,-0.531 -0.375,-0.968c-0.156,-0.261 -0.245,-0.412 -0.266,-0.453c-0.031,-0.052 -0.06,-0.133 -0.086,-0.243c-0.026,-0.109 -0.049,-0.184 -0.07,-0.226c0.021,-0 0.052,0.008 0.094,0.023l0.25,0.118c0.031,0.02 0.042,0.036 0.031,0.046c-0.031,0.073 -0.021,0.164 0.031,0.274c0.052,0.109 0.115,0.206 0.188,0.289l0.453,0.5c0.063,0.062 0.135,0.164 0.219,0.305c0.083,0.14 0.083,0.21 -0,0.21c0.094,0 0.198,0.055 0.312,0.165c0.115,0.109 0.203,0.21 0.266,0.304c0.052,0.084 0.094,0.219 0.125,0.406c0.031,0.188 0.057,0.313 0.078,0.375c0.021,0.073 0.065,0.144 0.133,0.211c0.068,0.068 0.133,0.118 0.195,0.149l0.453,0.234c0.052,0.021 0.149,0.076 0.289,0.164c0.141,0.089 0.253,0.149 0.336,0.18c0.104,0.042 0.188,0.063 0.25,0.063c0.063,-0 0.138,-0.014 0.227,-0.04c0.088,-0.026 0.159,-0.044 0.211,-0.054c0.156,-0.021 0.307,0.057 0.453,0.234c0.146,0.177 0.255,0.287 0.328,0.328c0.375,0.198 0.661,0.255 0.859,0.172c-0.02,0.011 -0.018,0.05 0.008,0.117c0.026,0.068 0.068,0.149 0.125,0.243l0.227,0.359l0.562,0.469c0.063,-0.042 0.099,-0.089 0.11,-0.141c-0.032,0.083 0.005,0.187 0.109,0.312c0.104,0.126 0.198,0.178 0.281,0.157c0.146,-0.031 0.219,-0.198 0.219,-0.5c-0.323,0.156 -0.578,0.062 -0.766,-0.281c0,-0.011 -0.013,-0.04 -0.039,-0.086c-0.026,-0.047 -0.047,-0.092 -0.062,-0.133c-0.016,-0.042 -0.029,-0.086 -0.039,-0.133c-0.011,-0.047 -0.011,-0.086 -0,-0.117c0.01,-0.032 0.036,-0.047 0.078,-0.047c0.094,-0 0.146,-0.018 0.156,-0.055c0.011,-0.036 0,-0.101 -0.031,-0.195c-0.031,-0.094 -0.052,-0.162 -0.063,-0.203c-0.01,-0.084 -0.067,-0.188 -0.172,-0.313c-0.104,-0.125 -0.166,-0.203 -0.187,-0.234c-0.052,0.094 -0.135,0.135 -0.25,0.125c-0.115,-0.011 -0.198,-0.057 -0.25,-0.141c0,0.011 -0.008,0.039 -0.023,0.086c-0.016,0.047 -0.024,0.081 -0.024,0.102c-0.135,-0 -0.213,-0.005 -0.234,-0.016c0.01,-0.031 0.023,-0.122 0.039,-0.273c0.015,-0.151 0.034,-0.269 0.055,-0.352c0.01,-0.042 0.039,-0.104 0.085,-0.187c0.047,-0.084 0.086,-0.159 0.118,-0.227c0.031,-0.068 0.052,-0.133 0.062,-0.195c0.011,-0.063 -0.013,-0.112 -0.07,-0.149c-0.057,-0.036 -0.149,-0.049 -0.274,-0.039c-0.198,0.011 -0.333,0.115 -0.406,0.313c-0.01,0.031 -0.026,0.086 -0.047,0.164c-0.021,0.078 -0.047,0.138 -0.078,0.179c-0.031,0.042 -0.078,0.079 -0.14,0.11c-0.073,0.031 -0.198,0.042 -0.375,0.031c-0.178,-0.01 -0.303,-0.036 -0.375,-0.078c-0.136,-0.083 -0.253,-0.234 -0.352,-0.453c-0.099,-0.219 -0.148,-0.412 -0.148,-0.578c-0,-0.104 0.013,-0.242 0.039,-0.414c0.026,-0.172 0.041,-0.302 0.046,-0.391c0.006,-0.088 -0.023,-0.216 -0.085,-0.383c0.031,-0.021 0.078,-0.07 0.14,-0.148c0.063,-0.078 0.115,-0.133 0.156,-0.164c0.021,-0.011 0.045,-0.018 0.071,-0.024c0.026,-0.005 0.049,-0.005 0.07,0c0.021,0.006 0.042,-0.002 0.063,-0.023c0.02,-0.021 0.036,-0.052 0.046,-0.094c-0.01,-0.01 -0.031,-0.026 -0.062,-0.047c-0.031,-0.031 -0.052,-0.047 -0.063,-0.047c0.073,0.032 0.222,0.024 0.446,-0.023c0.224,-0.047 0.367,-0.039 0.429,0.023c0.157,0.115 0.271,0.105 0.344,-0.031c0,-0.01 -0.013,-0.06 -0.039,-0.148c-0.026,-0.089 -0.029,-0.159 -0.008,-0.211c0.052,0.281 0.203,0.328 0.453,0.14c0.032,0.032 0.112,0.058 0.243,0.078c0.13,0.021 0.221,0.047 0.273,0.079l0.195,0.156c0.016,0.01 0.042,0.008 0.078,-0.008c0.037,-0.016 0.081,-0.049 0.133,-0.101c0.104,0.145 0.167,0.27 0.188,0.375c0.114,0.416 0.213,0.645 0.297,0.687c0.073,0.031 0.13,0.042 0.171,0.031c0.042,-0.01 0.066,-0.06 0.071,-0.148c0.005,-0.089 0.005,-0.162 -0,-0.219l-0.039,-0.32l-0,-0.282l-0.016,-0.124c-0.156,-0.032 -0.252,-0.094 -0.289,-0.188c-0.036,-0.094 -0.029,-0.19 0.024,-0.289c0.052,-0.099 0.13,-0.195 0.234,-0.289c0.01,-0.011 0.052,-0.029 0.125,-0.055c0.073,-0.026 0.154,-0.06 0.242,-0.101c0.089,-0.042 0.154,-0.084 0.195,-0.125c0.219,-0.198 0.297,-0.381 0.235,-0.547c0.073,-0 0.13,-0.047 0.172,-0.141c-0.011,0 -0.037,-0.016 -0.078,-0.047c-0.042,-0.031 -0.081,-0.057 -0.118,-0.078c-0.036,-0.021 -0.06,-0.031 -0.07,-0.031c0.094,-0.052 0.104,-0.136 0.031,-0.25c0.052,-0.031 0.091,-0.089 0.117,-0.172c0.026,-0.083 0.066,-0.135 0.118,-0.156c0.093,0.125 0.203,0.135 0.328,0.031c0.083,-0.083 0.088,-0.167 0.015,-0.25c0.052,-0.073 0.159,-0.128 0.321,-0.164c0.161,-0.037 0.257,-0.086 0.289,-0.149c0.073,0.021 0.114,0.011 0.125,-0.031c0.01,-0.041 0.015,-0.104 0.015,-0.187c0,-0.084 0.016,-0.146 0.047,-0.188c0.042,-0.052 0.12,-0.099 0.235,-0.14c0.114,-0.042 0.182,-0.068 0.203,-0.079l0.265,-0.171c0.032,-0.042 0.032,-0.063 0,-0.063c0.188,0.021 0.349,-0.036 0.485,-0.172c0.104,-0.114 0.073,-0.219 -0.094,-0.312c0.031,-0.063 0.016,-0.112 -0.047,-0.149c-0.062,-0.036 -0.141,-0.065 -0.234,-0.086c0.031,-0.01 0.091,-0.013 0.179,-0.007c0.089,0.005 0.144,-0.003 0.165,-0.024c0.156,-0.104 0.119,-0.187 -0.11,-0.25c-0.177,-0.052 -0.401,0.011 -0.672,0.188c-0.021,0.01 -0.07,0.06 -0.148,0.148c-0.078,0.089 -0.149,0.138 -0.211,0.148c0.021,0 0.044,-0.026 0.07,-0.078c0.026,-0.052 0.052,-0.109 0.078,-0.172c0.026,-0.062 0.045,-0.098 0.055,-0.109c0.063,-0.073 0.177,-0.151 0.344,-0.234c0.146,-0.063 0.416,-0.125 0.812,-0.188c0.354,-0.083 0.62,-0.026 0.797,0.172c-0.021,-0.021 0.029,-0.088 0.149,-0.203c0.119,-0.115 0.195,-0.177 0.226,-0.188c0.031,-0.02 0.11,-0.044 0.234,-0.07c0.126,-0.026 0.204,-0.065 0.235,-0.117l0.031,-0.344c-0.125,0.011 -0.216,-0.026 -0.273,-0.109c-0.058,-0.083 -0.091,-0.193 -0.102,-0.328c0,0.021 -0.031,0.062 -0.094,0.125c0,-0.073 -0.023,-0.115 -0.07,-0.125c-0.047,-0.011 -0.107,-0.005 -0.18,0.015c-0.073,0.021 -0.119,0.026 -0.14,0.016c-0.104,-0.031 -0.183,-0.07 -0.235,-0.117c-0.052,-0.047 -0.093,-0.133 -0.125,-0.258c-0.031,-0.125 -0.052,-0.203 -0.062,-0.234c-0.021,-0.052 -0.07,-0.11 -0.149,-0.172c-0.078,-0.063 -0.127,-0.115 -0.148,-0.157l-0.086,-0.187c-0.016,-0.031 -0.036,-0.06 -0.062,-0.086c-0.026,-0.026 -0.055,-0.039 -0.086,-0.039c-0.032,-0 -0.068,0.026 -0.11,0.078c-0.041,0.052 -0.08,0.104 -0.117,0.156c-0.036,0.052 -0.06,0.078 -0.07,0.078c-0.032,-0.02 -0.063,-0.028 -0.094,-0.023c-0.031,0.005 -0.055,0.01 -0.07,0.016c-0.016,0.005 -0.039,0.021 -0.071,0.047c-0.031,0.026 -0.057,0.044 -0.078,0.054c-0.031,0.021 -0.075,0.037 -0.133,0.047c-0.057,0.011 -0.101,0.021 -0.132,0.031c0.156,-0.052 0.151,-0.109 -0.016,-0.172c-0.104,-0.041 -0.188,-0.057 -0.25,-0.046c0.094,-0.042 0.133,-0.105 0.117,-0.188c-0.015,-0.083 -0.06,-0.156 -0.133,-0.219l0.078,0c-0.01,-0.041 -0.054,-0.086 -0.132,-0.132c-0.078,-0.047 -0.17,-0.092 -0.274,-0.133c-0.104,-0.042 -0.172,-0.073 -0.203,-0.094c-0.083,-0.052 -0.26,-0.102 -0.531,-0.148c-0.271,-0.047 -0.443,-0.05 -0.516,-0.008c-0.052,0.062 -0.075,0.117 -0.07,0.164c0.005,0.047 0.026,0.12 0.062,0.219c0.037,0.099 0.055,0.164 0.055,0.195c0.011,0.062 -0.018,0.13 -0.086,0.203c-0.068,0.073 -0.101,0.135 -0.101,0.187c-0,0.073 0.073,0.154 0.218,0.243c0.146,0.088 0.198,0.2 0.157,0.336c-0.032,0.083 -0.115,0.166 -0.25,0.25c-0.136,0.083 -0.219,0.145 -0.25,0.187c-0.052,0.083 -0.06,0.18 -0.024,0.289c0.037,0.11 0.091,0.195 0.164,0.258c0.021,0.021 0.029,0.042 0.024,0.062c-0.006,0.021 -0.024,0.045 -0.055,0.071c-0.031,0.026 -0.06,0.047 -0.086,0.062l-0.148,0.086c-0.115,0.052 -0.222,0.021 -0.321,-0.094c-0.099,-0.114 -0.169,-0.25 -0.211,-0.406c-0.073,-0.26 -0.156,-0.416 -0.25,-0.469c-0.239,-0.083 -0.39,-0.078 -0.453,0.016c-0.052,-0.135 -0.265,-0.271 -0.64,-0.406c-0.261,-0.094 -0.563,-0.115 -0.907,-0.063c0.063,-0.01 0.063,-0.088 0,-0.234c-0.073,-0.156 -0.171,-0.219 -0.296,-0.188c0.031,-0.062 0.052,-0.153 0.062,-0.273c0.01,-0.12 0.016,-0.19 0.016,-0.211c0.031,-0.135 0.093,-0.255 0.187,-0.359c0.011,-0.011 0.047,-0.055 0.11,-0.133c0.062,-0.078 0.111,-0.149 0.148,-0.211c0.036,-0.063 0.039,-0.094 0.008,-0.094c0.364,0.042 0.625,-0.015 0.781,-0.172c0.052,-0.052 0.112,-0.14 0.18,-0.265c0.067,-0.125 0.122,-0.214 0.164,-0.266c0.093,-0.062 0.166,-0.091 0.219,-0.086c0.052,0.005 0.127,0.034 0.226,0.086c0.099,0.052 0.175,0.078 0.227,0.078c0.145,0.011 0.226,-0.047 0.242,-0.172c0.015,-0.125 -0.024,-0.229 -0.117,-0.312c0.125,0.01 0.14,-0.078 0.046,-0.266c-0.041,-0.073 -0.083,-0.12 -0.124,-0.14c-0.125,-0.042 -0.266,-0.016 -0.422,0.078c-0.084,0.041 -0.073,0.083 0.031,0.125c-0.011,-0.011 -0.06,0.044 -0.149,0.164c-0.088,0.12 -0.174,0.211 -0.257,0.273c-0.084,0.063 -0.167,0.037 -0.25,-0.078c-0.011,-0.01 -0.039,-0.081 -0.086,-0.211c-0.047,-0.13 -0.097,-0.2 -0.149,-0.211c-0.083,0 -0.166,0.078 -0.25,0.235c0.032,-0.084 -0.026,-0.162 -0.172,-0.235c-0.145,-0.073 -0.27,-0.114 -0.375,-0.125c0.198,-0.125 0.157,-0.265 -0.125,-0.422c-0.073,-0.041 -0.179,-0.067 -0.32,-0.078l-0.305,0.063Z"
		fill="#fff"
	/>
</svg>
