<?xml version="1.0" encoding="UTF-8" standalone="no"?>
<!DOCTYPE svg PUBLIC "-//W3C//DTD SVG 1.1//EN" "http://www.w3.org/Graphics/SVG/1.1/DTD/svg11.dtd">
<svg
	width="36px"
	height="30px"
	viewBox="0 0 36 30"
	version="1.1"
	xmlns="http://www.w3.org/2000/svg"
	xmlns:xlink="http://www.w3.org/1999/xlink"
	xml:space="preserve"
	xmlns:serif="http://www.serif.com/"
>
	<path
		d="M31.751,4.734c1.417,-0.156 2.833,-0.547 4.249,-1.171c-1.02,1.531 -2.254,2.835 -3.701,3.914c0.016,0.218 0.023,0.546 0.023,0.984c0,2.031 -0.289,4.059 -0.868,6.082c-0.578,2.023 -1.458,3.965 -2.638,5.824c-1.18,1.86 -2.585,3.504 -4.214,4.934c-1.63,1.429 -3.594,2.57 -5.894,3.422c-2.299,0.851 -4.759,1.277 -7.378,1.277c-4.127,0 -7.904,-1.133 -11.33,-3.398c0.533,0.062 1.127,0.093 1.782,0.093c3.426,0 6.479,-1.078 9.16,-3.234c-1.599,-0.031 -3.031,-0.535 -4.295,-1.512c-1.264,-0.976 -2.132,-2.222 -2.604,-3.738c0.503,0.078 0.967,0.117 1.394,0.117c0.654,0 1.302,-0.086 1.941,-0.258c-1.705,-0.359 -3.118,-1.23 -4.237,-2.613c-1.119,-1.383 -1.679,-2.988 -1.679,-4.816l-0,-0.094c1.035,0.594 2.147,0.914 3.335,0.961c-1.005,-0.688 -1.805,-1.586 -2.399,-2.695c-0.593,-1.11 -0.89,-2.313 -0.89,-3.61c-0,-1.375 0.335,-2.648 1.005,-3.82c1.842,2.328 4.085,4.191 6.727,5.59c2.642,1.398 5.471,2.175 8.486,2.332c-0.122,-0.594 -0.183,-1.172 -0.183,-1.735c-0,-2.093 0.72,-3.879 2.159,-5.355c1.439,-1.477 3.179,-2.215 5.219,-2.215c2.132,-0 3.929,0.797 5.391,2.391c1.66,-0.328 3.221,-0.938 4.683,-1.828c-0.564,1.796 -1.645,3.187 -3.244,4.171Z"
		fill="#fff"
	/>
</svg>
