<?xml version="1.0" encoding="UTF-8" standalone="no"?>
<!DOCTYPE svg PUBLIC "-//W3C//DTD SVG 1.1//EN" "http://www.w3.org/Graphics/SVG/1.1/DTD/svg11.dtd">
<svg
	width="24"
	height="24"
	viewBox="0 0 24 24"
	version="1.1"
	xmlns="http://www.w3.org/2000/svg"
	xmlns:xlink="http://www.w3.org/1999/xlink"
	xml:space="preserve"
	xmlns:serif="http://www.serif.com/"
>
	<circle cx="12"
		cy="12"
		r="12"
		fill="#800080"
	/>
	<path
		d="M7.924,12.238c-0.122,-0.123 -0.122,-0.326 0,-0.452l3.855,-3.978c0.122,-0.126 0.32,-0.126 0.442,0l3.855,3.978c0.122,0.126 0.122,0.329 -0,0.455l-0.185,0.19c-0.123,0.126 -0.321,0.126 -0.443,0l-3.005,-3.107l-0,8.355c-0,0.176 -0.141,0.321 -0.313,0.321l-0.26,0c-0.172,0 -0.313,-0.145 -0.313,-0.321l0,-8.355l-3.005,3.105c-0.122,0.125 -0.32,0.125 -0.443,-0l-0.185,-0.191Zm-0.612,-6.238c-0.171,0 -0.312,0.145 -0.312,0.321l0,0.215c0,0.177 0.141,0.321 0.313,0.321l9.375,0c0.171,0 0.312,-0.144 0.312,-0.321l0,-0.215c0,-0.176 -0.141,-0.321 -0.313,-0.321l-9.375,0Z"
		fill="#ffffff"
	/>
</svg>
