<?xml version="1.0" encoding="UTF-8" standalone="no"?><!DOCTYPE svg PUBLIC "-//W3C//DTD SVG 1.1//EN" "http://www.w3.org/Graphics/SVG/1.1/DTD/svg11.dtd"><svg width="100%" height="100%" viewBox="0 0 36 36" version="1.1" xmlns="http://www.w3.org/2000/svg" xmlns:xlink="http://www.w3.org/1999/xlink" xml:space="preserve" xmlns:serif="http://www.serif.com/" style="fill-rule:evenodd;clip-rule:evenodd;stroke-linejoin:round;stroke-miterlimit:2;"><circle cx="18" cy="18" r="18" style="fill:#800080;"/><path d="M11.886,18.357c-0.183,-0.184 -0.183,-0.489 0,-0.678l5.783,-5.967c0.183,-0.189 0.479,-0.189 0.662,0l5.783,5.967c0.183,0.189 0.183,0.494 0,0.683l-0.277,0.285c-0.185,0.188 -0.482,0.188 -0.665,-0l-4.507,-4.661l-0,12.532c-0,0.264 -0.212,0.482 -0.47,0.482l-0.39,0c-0.258,0 -0.47,-0.217 -0.47,-0.482l0,-12.532l-4.507,4.657c-0.183,0.188 -0.48,0.188 -0.665,0l-0.277,-0.286Zm-0.918,-9.357c-0.257,0 -0.468,0.218 -0.468,0.482l-0,0.322c-0,0.266 0.211,0.482 0.469,0.482l14.063,-0c0.256,-0 0.468,-0.216 0.468,-0.482l-0,-0.322c-0,-0.264 -0.212,-0.482 -0.47,-0.482l-14.062,0Z" style="fill:#fff;fill-rule:nonzero;"/></svg>