<?xml version="1.0" encoding="UTF-8" standalone="no"?>
<!DOCTYPE svg PUBLIC "-//W3C//DTD SVG 1.1//EN" "http://www.w3.org/Graphics/SVG/1.1/DTD/svg11.dtd">
<svg
	width="24px"
	height="24px"
	viewBox="0 0 24 24"
	version="1.1"
	xmlns="http://www.w3.org/2000/svg"
	xmlns:xlink="http://www.w3.org/1999/xlink"
	xml:space="preserve"
	xmlns:serif="http://www.serif.com/"
>
	<path
		d="M12,0c6.628,0 12,5.373 12,12c0,6.627 -5.372,12 -12,12c-6.628,0 -12,-5.373 -12,-12c0,-6.627 5.372,-12 12,-12Zm10,12c0,-5.523 -4.477,-10 -10,-10c-5.523,-0 -10,4.477 -10,10c-0,5.523 4.477,10 10,10c5.523,0 10,-4.477 10,-10Zm-10,1l6,0l0,2l-8,-0l0,-10l2,-0l0,8Z"
		fill="#fff"
	/>
</svg>
