<?xml version="1.0" encoding="utf-8"?>
<svg version="1.1" xmlns:xlink="http://www.w3.org/1999/xlink" width="22px" height="22px" xmlns="http://www.w3.org/2000/svg">
  <g transform="matrix(1 0 0 1 -117 -329 )">
    <path d="M 11 0  C 17.0754375 0  22 4.92525  22 11  C 22 17.07475  17.0754375 22  11 22  C 4.9245625 22  0 17.07475  0 11  C 0 4.92525  4.9245625 0  11 0  Z M 20.1666666666667 11  C 20.1666666666667 5.937380955  16.0626190083333 1.83333333333333  11 1.83333333333333  C 5.937380955 1.83333333333333  1.83333333333333 5.937380955  1.83333333333333 11  C 1.83333333333333 16.0626190083333  5.937380955 20.1666666666667  11 20.1666666666667  C 16.0626190083333 20.1666666666667  20.1666666666667 16.0626190083333  20.1666666666667 11  Z M 11 11.9166666666667  L 16.5 11.9166666666667  L 16.5 13.75  L 9.16666666666667 13.75  L 9.16666666666667 4.58333333333333  L 11 4.58333333333333  L 11 11.9166666666667  Z " fill-rule="nonzero" fill="#ffffff" stroke="none" transform="matrix(1 0 0 1 117 329 )" />
  </g>
</svg>