<?xml version="1.0" encoding="utf-8"?>
<svg version="1.1" xmlns:xlink="http://www.w3.org/1999/xlink" width="22px" height="22px" xmlns="http://www.w3.org/2000/svg">
  <g transform="matrix(1 0 0 1 -895 -329 )">
    <path d="M 6.72767857142857 0.871651785714285  C 8.08630952380952 0.290550595238095  9.51041666666667 0  11 0  C 12.4895833333333 0  13.9136904761905 0.290550595238095  15.2723214285714 0.871651785714285  C 16.6309523809524 1.45275297619048  17.8013392857143 2.234375  18.7834821428571 3.21651785714286  C 19.765625 4.19866071428571  20.5472470238095 5.36904761904762  21.1283482142857 6.72767857142857  C 21.7094494047619 8.08630952380952  22 9.51041666666667  22 11  C 22 12.4813988095238  21.7114955357143 13.9014136904762  21.1344866071429 15.2600446428571  C 20.5574776785714 16.6186755952381  19.7779017857143 17.7890625  18.7957589285714 18.7712053571429  C 17.8136160714286 19.7533482142857  16.6432291666667 20.5370163690476  15.2845982142857 21.1222098214286  C 13.9259672619048 21.7074032738095  12.4977678571429 22  11 22  C 9.50223214285714 22  8.07403273809524 21.7094494047619  6.71540178571429 21.1283482142857  C 5.35677083333333 20.5472470238095  4.18843005952381 19.7635788690476  3.21037946428571 18.77734375  C 2.23232886904762 17.7911086309524  1.45275297619048 16.6207217261905  0.871651785714286 15.2661830357143  C 0.290550595238095 13.9116443452381  0 12.4895833333333  0 11  C 0 9.51041666666667  0.290550595238095 8.08630952380952  0.871651785714286 6.72767857142857  C 1.45275297619048 5.36904761904762  2.234375 4.19866071428571  3.21651785714286 3.21651785714286  C 4.19866071428571 2.234375  5.36904761904762 1.45275297619048  6.72767857142857 0.871651785714285  Z M 14.8426339285714 12.5714285714286  C 16.8069196428571 12.5714285714286  18.0591517857143 13.9095982142857  18.5993303571429 16.5859375  C 19.8188244047619 14.9081101190476  20.4285714285714 13.046130952381  20.4285714285714 11  C 20.4285714285714 9.72321428571428  20.178943452381 8.50372023809524  19.6796875 7.34151785714286  C 19.180431547619 6.17931547619048  18.5093005952381 5.17671130952381  17.6662946428571 4.33370535714286  C 16.8232886904762 3.49069940476191  15.8206845238095 2.81956845238095  14.6584821428571 2.3203125  C 13.4962797619048 1.82105654761905  12.2767857142857 1.57142857142857  11 1.57142857142857  C 9.72321428571428 1.57142857142857  8.50372023809524 1.82105654761905  7.34151785714286 2.3203125  C 6.17931547619048 2.81956845238095  5.17671130952381 3.49069940476191  4.33370535714286 4.33370535714286  C 3.49069940476191 5.17671130952381  2.81956845238095 6.17931547619048  2.3203125 7.34151785714286  C 1.82105654761905 8.50372023809524  1.57142857142857 9.72321428571428  1.57142857142857 11  C 1.57142857142857 13.046130952381  2.1811755952381 14.9081101190476  3.40066964285714 16.5859375  C 3.94084821428571 13.9095982142857  5.19308035714286 12.5714285714286  7.15736607142857 12.5714285714286  C 8.22953869047619 13.6190476190476  9.51041666666667 14.1428571428571  11 14.1428571428571  C 12.4895833333333 14.1428571428571  13.7704613095238 13.6190476190476  14.8426339285714 12.5714285714286  Z M 14.3331473214286 11.9760044642857  C 15.25390625 11.0552455357143  15.7142857142857 9.94419642857143  15.7142857142857 8.64285714285714  C 15.7142857142857 7.34151785714286  15.25390625 6.23046875  14.3331473214286 5.30970982142857  C 13.4123883928571 4.38895089285714  12.3013392857143 3.92857142857143  11 3.92857142857143  C 9.69866071428572 3.92857142857143  8.58761160714286 4.38895089285714  7.66685267857143 5.30970982142857  C 6.74609375 6.23046875  6.28571428571429 7.34151785714286  6.28571428571429 8.64285714285714  C 6.28571428571429 9.94419642857143  6.74609375 11.0552455357143  7.66685267857143 11.9760044642857  C 8.58761160714286 12.8967633928571  9.69866071428572 13.3571428571429  11 13.3571428571429  C 12.3013392857143 13.3571428571429  13.4123883928571 12.8967633928571  14.3331473214286 11.9760044642857  Z " fill-rule="nonzero" fill="#ffffff" stroke="none" transform="matrix(1 0 0 1 895 329 )" />
  </g>
</svg>