<?xml version="1.0" encoding="UTF-8" standalone="no"?>
<!DOCTYPE svg PUBLIC "-//W3C//DTD SVG 1.1//EN" "http://www.w3.org/Graphics/SVG/1.1/DTD/svg11.dtd">
<svg width="24px"
	height="24px"
	viewBox="0 0 24 24"
	version="1.1"
	xmlns="http://www.w3.org/2000/svg"
	xmlns:xlink="http://www.w3.org/1999/xlink"
	xml:space="preserve"
	xmlns:serif="http://www.serif.com/"
>
	<path
		d="M7.339,0.951c1.482,-0.634 3.036,-0.951 4.661,-0.951c1.625,0 3.179,0.317 4.661,0.951c1.482,0.634 2.759,1.487 3.83,2.558c1.072,1.071 1.924,2.348 2.558,3.83c0.634,1.482 0.951,3.036 0.951,4.661c0,1.616 -0.315,3.165 -0.944,4.647c-0.63,1.482 -1.48,2.759 -2.552,3.831c-1.071,1.071 -2.348,1.926 -3.83,2.564c-1.482,0.639 -3.04,0.958 -4.674,0.958c-1.634,0 -3.192,-0.317 -4.674,-0.951c-1.482,-0.634 -2.757,-1.489 -3.824,-2.565c-1.067,-1.076 -1.917,-2.352 -2.551,-3.83c-0.634,-1.478 -0.951,-3.029 -0.951,-4.654c0,-1.625 0.317,-3.179 0.951,-4.661c0.634,-1.482 1.487,-2.759 2.558,-3.83c1.071,-1.071 2.348,-1.924 3.83,-2.558Zm8.853,12.763c2.143,0 3.509,1.46 4.098,4.38c1.331,-1.831 1.996,-3.862 1.996,-6.094c-0,-1.393 -0.273,-2.723 -0.817,-3.991c-0.545,-1.268 -1.277,-2.362 -2.197,-3.281c-0.919,-0.92 -2.013,-1.652 -3.281,-2.197c-1.268,-0.544 -2.598,-0.817 -3.991,-0.817c-1.393,0 -2.723,0.273 -3.991,0.817c-1.268,0.545 -2.362,1.277 -3.281,2.197c-0.92,0.919 -1.652,2.013 -2.197,3.281c-0.544,1.268 -0.817,2.598 -0.817,3.991c0,2.232 0.665,4.263 1.996,6.094c0.589,-2.92 1.955,-4.38 4.098,-4.38c1.17,1.143 2.567,1.715 4.192,1.715c1.625,-0 3.022,-0.572 4.192,-1.715Zm-0.556,-0.649c1.005,-1.005 1.507,-2.217 1.507,-3.636c-0,-1.42 -0.502,-2.632 -1.507,-3.637c-1.004,-1.004 -2.216,-1.506 -3.636,-1.506c-1.42,-0 -2.632,0.502 -3.636,1.506c-1.005,1.005 -1.507,2.217 -1.507,3.637c0,1.419 0.502,2.631 1.507,3.636c1.004,1.004 2.216,1.506 3.636,1.506c1.42,0 2.632,-0.502 3.636,-1.506Z"
		fill="#fff"
	/>
</svg>
