<?xml version="1.0" encoding="utf-8"?>
<svg version="1.1" xmlns:xlink="http://www.w3.org/1999/xlink" width="16px" height="16px" xmlns="http://www.w3.org/2000/svg">
  <g transform="matrix(1 0 0 1 -728 -26 )">
    <path d="M 15.6228956228956 11.959595959596  C 15.8742985409652 12.2109988776655  16 12.5162738496072  16 12.8754208754209  C 16 13.2345679012346  15.8742985409652 13.5398428731762  15.6228956228956 13.7912457912458  L 13.7912457912458 15.6228956228956  C 13.5398428731762 15.8742985409652  13.2345679012346 16  12.8754208754209 16  C 12.5162738496072 16  12.2109988776655 15.8742985409652  11.959595959596 15.6228956228956  L 8 11.6632996632997  L 4.04040404040404 15.6228956228956  C 3.78900112233446 15.8742985409652  3.48372615039282 16  3.12457912457912 16  C 2.76543209876543 16  2.46015712682379 15.8742985409652  2.20875420875421 15.6228956228956  L 0.377104377104377 13.7912457912458  C 0.125701459034792 13.5398428731762  0 13.2345679012346  0 12.8754208754209  C 0 12.5162738496072  0.125701459034792 12.2109988776655  0.377104377104377 11.959595959596  L 4.33670033670034 8  L 0.377104377104377 4.04040404040404  C 0.125701459034792 3.78900112233445  0 3.48372615039282  0 3.12457912457912  C 0 2.76543209876543  0.125701459034792 2.46015712682379  0.377104377104377 2.20875420875421  L 2.20875420875421 0.377104377104377  C 2.46015712682379 0.125701459034792  2.76543209876543 0  3.12457912457912 0  C 3.48372615039282 0  3.78900112233446 0.125701459034792  4.04040404040404 0.377104377104377  L 8 4.33670033670034  L 11.959595959596 0.377104377104377  C 12.2109988776655 0.125701459034792  12.5162738496072 0  12.8754208754209 0  C 13.2345679012346 0  13.5398428731762 0.125701459034792  13.7912457912458 0.377104377104377  L 15.6228956228956 2.20875420875421  C 15.8742985409652 2.46015712682379  16 2.76543209876543  16 3.12457912457912  C 16 3.48372615039282  15.8742985409652 3.78900112233445  15.6228956228956 4.04040404040404  L 11.6632996632997 8  L 15.6228956228956 11.959595959596  Z " fill-rule="nonzero" fill="#5d1bc0" stroke="none" transform="matrix(1 0 0 1 728 26 )" />
  </g>
</svg>