<?xml version="1.0" encoding="utf-8"?>
<svg version="1.1" xmlns:xlink="http://www.w3.org/1999/xlink" width="30px" height="30px" xmlns="http://www.w3.org/2000/svg">
  <g transform="matrix(1 0 0 1 -33 -19 )">
    <path d="M 29.53125 15  C 29.53125 6.97265625  23.02734375 0.46875  15 0.46875  C 6.97265625 0.46875  0.46875 6.97265625  0.46875 15  C 0.46875 23.02734375  6.97265625 29.53125  15 29.53125  C 23.02734375 29.53125  29.53125 23.02734375  29.53125 15  Z M 27.65625 15  C 27.65625 21.978515625  21.978515625 27.65625  15 27.65625  C 8.021484375 27.65625  2.34375 21.978515625  2.34375 15  C 2.34375 8.021484375  8.021484375 2.34375  15 2.34375  C 21.978515625 2.34375  27.65625 8.021484375  27.65625 15  Z M 22.130859375 15.955078125  C 23.9765625 14.009765625  23.87109375 10.79296875  21.796875 9  C 19.341796875 6.873046875  16.552734375 8.5078125  15.650390625 9.451171875  L 15 10.130859375  L 14.349609375 9.451171875  C 12.791015625 7.81640625  10.1015625 7.34765625  8.203125 9  C 6.134765625 10.79296875  6.0234375 14.015625  7.875 15.955078125  L 14.255859375 22.640625  C 14.666015625 23.07421875  15.333984375 23.07421875  15.75 22.640625  L 22.130859375 15.955078125  Z M 20.6015625 10.4296875  C 21.99609375 11.630859375  21.779296875 13.623046875  20.80078125 14.654296875  L 15 20.736328125  L 9.19921875 14.654296875  C 8.220703125 13.62890625  8.00390625 11.630859375  9.3984375 10.4296875  C 10.69921875 9.298828125  12.328125 10.03125  13.025390625 10.763671875  L 15 12.83203125  L 16.974609375 10.763671875  C 17.484375 10.224609375  19.171875 9.193359375  20.6015625 10.4296875  Z " fill-rule="nonzero" fill="#5d1bc0" stroke="none" transform="matrix(1 0 0 1 33 19 )" />
  </g>
</svg>