<?xml version="1.0" encoding="UTF-8" standalone="no"?><!DOCTYPE svg PUBLIC "-//W3C//DTD SVG 1.1//EN" "http://www.w3.org/Graphics/SVG/1.1/DTD/svg11.dtd"><svg width="100%" height="100%" viewBox="0 0 43 43" version="1.1" xmlns="http://www.w3.org/2000/svg" xmlns:xlink="http://www.w3.org/1999/xlink" xml:space="preserve" xmlns:serif="http://www.serif.com/" style="fill-rule:evenodd;clip-rule:evenodd;stroke-miterlimit:10;"><g><path d="M36.812,26.275l4.575,0c0.3,0 0.567,0.267 0.567,0.568l0,5.243c0,0.3 -0.267,0.567 -0.567,0.567l-4.575,0c-0.301,0 -0.568,-0.267 -0.568,-0.567l0,-5.243c0,-0.301 0.267,-0.568 0.568,-0.568Z" style="fill:#959595;fill-rule:nonzero;stroke:#231f20;stroke-width:1.98px;"/><path d="M1.614,26.275l4.575,0c0.3,0 0.568,0.267 0.568,0.568l0,5.243c0,0.3 -0.268,0.567 -0.568,0.567l-4.575,0c-0.301,0 -0.568,-0.267 -0.568,-0.567l-0,-5.243c-0,-0.301 0.267,-0.568 0.568,-0.568Z" style="fill:#959595;fill-rule:nonzero;stroke:#231f20;stroke-width:1.98px;"/><path d="M18.578,11.882l5.243,0c7.18,0 13.024,5.844 13.024,13.024l0,12.624c0,1.769 -1.436,3.206 -3.206,3.206l-24.511,-0.001c-1.77,0 -3.206,-1.436 -3.206,-3.206l0,-13.024c0,-6.979 5.677,-12.623 12.656,-12.623Z" style="fill:#c1c0c0;fill-rule:nonzero;"/><path d="M21.383,8.175l0,3.707" style="fill:none;fill-rule:nonzero;stroke:#000;stroke-width:1.99px;"/><circle cx="21.383" cy="5.203" r="3.039" style="fill:#74528f;stroke:#000;stroke-width:1.34px;"/><path d="M36.945,33.355l0,-8.315c0,-4.208 -2.204,-7.948 -5.577,-10.353l-16.997,26.148l21.071,-0.534c0.668,-2.271 1.169,-4.575 1.503,-6.946Z" style="fill:#959595;fill-rule:nonzero;"/><circle cx="16.341" cy="22.234" r="2.004"/><circle cx="26.125" cy="22.234" r="2.004"/><path d="M13.602,28.813l14.894,0c1.503,0 2.705,1.202 2.705,2.705c0,1.503 -1.202,2.705 -2.705,2.705l-14.894,0c-1.502,0 -2.704,-1.202 -2.704,-2.705c0,-1.503 1.202,-2.705 2.704,-2.705Z" style="fill:#fded8b;fill-rule:nonzero;"/><path d="M10.964,31.318l20.171,0.734l-1.269,1.937l-17.098,0l-1.804,-2.671Z" style="fill:#bdae68;fill-rule:nonzero;"/><path d="M13.836,29.214l-0,4.308" style="fill:none;fill-rule:nonzero;stroke:#000;stroke-width:0.35px;"/><path d="M15.439,29.214l0,4.308" style="fill:none;fill-rule:nonzero;stroke:#000;stroke-width:0.35px;"/><path d="M17.009,29.214l0,4.308" style="fill:none;fill-rule:nonzero;stroke:#000;stroke-width:0.35px;"/><path d="M18.612,29.214l0,4.308" style="fill:none;fill-rule:nonzero;stroke:#000;stroke-width:0.35px;"/><path d="M20.181,29.214l-0,4.308" style="fill:none;fill-rule:nonzero;stroke:#000;stroke-width:0.35px;"/><path d="M21.784,29.214l0,4.308" style="fill:none;fill-rule:nonzero;stroke:#000;stroke-width:0.35px;"/><path d="M23.387,29.214l0,4.308" style="fill:none;fill-rule:nonzero;stroke:#000;stroke-width:0.35px;"/><path d="M24.957,29.214l0,4.308" style="fill:none;fill-rule:nonzero;stroke:#000;stroke-width:0.35px;"/><path d="M26.559,29.214l-0,4.308" style="fill:none;fill-rule:nonzero;stroke:#000;stroke-width:0.35px;"/><path d="M28.129,29.214l-0,4.308" style="fill:none;fill-rule:nonzero;stroke:#000;stroke-width:0.35px;"/><path d="M13.602,28.813l14.894,0c1.503,0 2.705,1.202 2.705,2.705c0,1.503 -1.202,2.705 -2.705,2.705l-14.894,0c-1.502,0 -2.704,-1.202 -2.704,-2.705c0,-1.503 1.202,-2.705 2.704,-2.705Z" style="fill:none;fill-rule:nonzero;stroke:#000;stroke-width:1.34px;"/><path d="M18.244,11.882l5.243,0c7.18,0 13.024,5.844 13.024,13.024l0,12.624c0,1.769 -1.436,3.206 -3.206,3.206l-24.478,-0.001c-1.77,0 -3.206,-1.436 -3.206,-3.206l0,-13.024c0,-6.979 5.644,-12.623 12.623,-12.623Z" style="fill:none;fill-rule:nonzero;stroke:#000;stroke-width:1.99px;"/></g></svg>