<?xml version="1.0" encoding="UTF-8" standalone="no"?><!DOCTYPE svg PUBLIC "-//W3C//DTD SVG 1.1//EN" "http://www.w3.org/Graphics/SVG/1.1/DTD/svg11.dtd"><svg width="197" height="132" viewBox="0 0 197 132" version="1.1" xmlns="http://www.w3.org/2000/svg" xmlns:xlink="http://www.w3.org/1999/xlink" xml:space="preserve" xmlns:serif="http://www.serif.com/" style="fill-rule:evenodd;clip-rule:evenodd;stroke-linejoin:round;stroke-miterlimit:2;"><rect x="-0" y="-0" width="197" height="131.333" style="fill:#039;"/><g><g id="s"><g id="c"><path id="t" d="M98.5,14.593l-2.255,6.939l3.47,1.127l-1.215,-8.066Z" style="fill:#fc0;fill-rule:nonzero;"/><path id="t1" serif:id="t" d="M98.5,14.593l2.255,6.939l-3.47,1.127l1.215,-8.066Z" style="fill:#fc0;fill-rule:nonzero;"/></g><g id="a"><g id="c1" serif:id="c"><path id="t2" serif:id="t" d="M105.439,19.634l-7.296,0l-0,3.648l7.296,-3.648Z" style="fill:#fc0;fill-rule:nonzero;"/><path id="t3" serif:id="t" d="M105.439,19.634l-5.903,4.289l-2.144,-2.952l8.047,-1.337Z" style="fill:#fc0;fill-rule:nonzero;"/></g><g id="c2" serif:id="c"><path id="t4" serif:id="t" d="M102.789,27.792l-2.255,-6.939l-3.47,1.127l5.725,5.812Z" style="fill:#fc0;fill-rule:nonzero;"/><path id="t5" serif:id="t" d="M102.789,27.792l-5.903,-4.289l2.144,-2.951l3.759,7.24Z" style="fill:#fc0;fill-rule:nonzero;"/></g></g><g id="a1" serif:id="a"><g id="c3" serif:id="c"><path id="t6" serif:id="t" d="M91.561,19.634l7.296,0l0,3.648l-7.296,-3.648Z" style="fill:#fc0;fill-rule:nonzero;"/><path id="t7" serif:id="t" d="M91.561,19.634l5.903,4.289l2.144,-2.952l-8.047,-1.337Z" style="fill:#fc0;fill-rule:nonzero;"/></g><g id="c4" serif:id="c"><path id="t8" serif:id="t" d="M94.211,27.792l2.255,-6.939l3.47,1.127l-5.725,5.812Z" style="fill:#fc0;fill-rule:nonzero;"/><path id="t9" serif:id="t" d="M94.211,27.792l5.903,-4.289l-2.144,-2.951l-3.759,7.24Z" style="fill:#fc0;fill-rule:nonzero;"/></g></g></g><g id="s1" serif:id="s"><g id="c5" serif:id="c"><path id="t10" serif:id="t" d="M98.5,102.148l-2.255,6.939l3.47,1.128l-1.215,-8.067Z" style="fill:#fc0;fill-rule:nonzero;"/><path id="t11" serif:id="t" d="M98.5,102.148l2.255,6.939l-3.47,1.128l1.215,-8.067Z" style="fill:#fc0;fill-rule:nonzero;"/></g><g id="a2" serif:id="a"><g id="c6" serif:id="c"><path id="t12" serif:id="t" d="M105.439,107.19l-7.296,-0l-0,3.648l7.296,-3.648Z" style="fill:#fc0;fill-rule:nonzero;"/><path id="t13" serif:id="t" d="M105.439,107.19l-5.903,4.288l-2.144,-2.951l8.047,-1.337Z" style="fill:#fc0;fill-rule:nonzero;"/></g><g id="c7" serif:id="c"><path id="t14" serif:id="t" d="M102.789,115.347l-2.255,-6.939l-3.47,1.127l5.725,5.812Z" style="fill:#fc0;fill-rule:nonzero;"/><path id="t15" serif:id="t" d="M102.789,115.347l-5.903,-4.288l2.144,-2.952l3.759,7.24Z" style="fill:#fc0;fill-rule:nonzero;"/></g></g><g id="a3" serif:id="a"><g id="c8" serif:id="c"><path id="t16" serif:id="t" d="M91.561,107.19l7.296,-0l0,3.648l-7.296,-3.648Z" style="fill:#fc0;fill-rule:nonzero;"/><path id="t17" serif:id="t" d="M91.561,107.19l5.903,4.288l2.144,-2.951l-8.047,-1.337Z" style="fill:#fc0;fill-rule:nonzero;"/></g><g id="c9" serif:id="c"><path id="t18" serif:id="t" d="M94.211,115.347l2.255,-6.939l3.47,1.127l-5.725,5.812Z" style="fill:#fc0;fill-rule:nonzero;"/><path id="t19" serif:id="t" d="M94.211,115.347l5.903,-4.288l-2.144,-2.952l-3.759,7.24Z" style="fill:#fc0;fill-rule:nonzero;"/></g></g></g><g id="l"><g id="s2" serif:id="s"><g id="c10" serif:id="c"><path id="t20" serif:id="t" d="M54.722,58.37l-2.254,6.94l3.469,1.127l-1.215,-8.067Z" style="fill:#fc0;fill-rule:nonzero;"/><path id="t21" serif:id="t" d="M54.722,58.37l2.255,6.94l-3.47,1.127l1.215,-8.067Z" style="fill:#fc0;fill-rule:nonzero;"/></g><g id="a4" serif:id="a"><g id="c11" serif:id="c"><path id="t22" serif:id="t" d="M61.661,63.412l-7.296,-0l0,3.648l7.296,-3.648Z" style="fill:#fc0;fill-rule:nonzero;"/><path id="t23" serif:id="t" d="M61.661,63.412l-5.902,4.289l-2.145,-2.952l8.047,-1.337Z" style="fill:#fc0;fill-rule:nonzero;"/></g><g id="c12" serif:id="c"><path id="t24" serif:id="t" d="M59.011,71.569l-2.255,-6.939l-3.469,1.128l5.724,5.811Z" style="fill:#fc0;fill-rule:nonzero;"/><path id="t25" serif:id="t" d="M59.011,71.569l-5.903,-4.288l2.144,-2.952l3.759,7.24Z" style="fill:#fc0;fill-rule:nonzero;"/></g></g><g id="a5" serif:id="a"><g id="c13" serif:id="c"><path id="t26" serif:id="t" d="M47.783,63.412l7.296,-0l0,3.648l-7.296,-3.648Z" style="fill:#fc0;fill-rule:nonzero;"/><path id="t27" serif:id="t" d="M47.783,63.412l5.903,4.289l2.144,-2.952l-8.047,-1.337Z" style="fill:#fc0;fill-rule:nonzero;"/></g><g id="c14" serif:id="c"><path id="t28" serif:id="t" d="M50.434,71.569l2.254,-6.939l3.47,1.128l-5.724,5.811Z" style="fill:#fc0;fill-rule:nonzero;"/><path id="t29" serif:id="t" d="M50.434,71.569l5.902,-4.288l-2.144,-2.952l-3.758,7.24Z" style="fill:#fc0;fill-rule:nonzero;"/></g></g></g><g id="s3" serif:id="s"><g id="c15" serif:id="c"><path id="t30" serif:id="t" d="M72.322,33.657l5.903,-4.289l-2.144,-2.951l-3.759,7.24Z" style="fill:#fc0;fill-rule:nonzero;"/><path id="t31" serif:id="t" d="M72.322,33.657l2.255,-6.939l3.47,1.127l-5.725,5.812Z" style="fill:#fc0;fill-rule:nonzero;"/></g><g id="a6" serif:id="a"><g id="c16" serif:id="c"><path id="t32" serif:id="t" d="M69.672,25.499l5.903,4.289l2.144,-2.951l-8.047,-1.338Z" style="fill:#fc0;fill-rule:nonzero;"/><path id="t33" serif:id="t" d="M69.672,25.499l7.296,0l0,3.648l-7.296,-3.648Z" style="fill:#fc0;fill-rule:nonzero;"/></g><g id="c17" serif:id="c"><path id="t34" serif:id="t" d="M76.611,20.458l-2.255,6.939l3.47,1.127l-1.215,-8.066Z" style="fill:#fc0;fill-rule:nonzero;"/><path id="t35" serif:id="t" d="M76.611,20.458l2.255,6.939l-3.47,1.127l1.215,-8.066Z" style="fill:#fc0;fill-rule:nonzero;"/></g></g><g id="a7" serif:id="a"><g id="c18" serif:id="c"><path id="t36" serif:id="t" d="M80.9,33.657l-5.903,-4.289l2.144,-2.951l3.759,7.24Z" style="fill:#fc0;fill-rule:nonzero;"/><path id="t37" serif:id="t" d="M80.9,33.657l-2.255,-6.939l-3.47,1.127l5.725,5.812Z" style="fill:#fc0;fill-rule:nonzero;"/></g><g id="c19" serif:id="c"><path id="t38" serif:id="t" d="M83.55,25.499l-5.903,4.289l-2.144,-2.951l8.047,-1.338Z" style="fill:#fc0;fill-rule:nonzero;"/><path id="t39" serif:id="t" d="M83.55,25.499l-7.296,0l0,3.648l7.296,-3.648Z" style="fill:#fc0;fill-rule:nonzero;"/></g></g></g><g id="s4" serif:id="s"><g id="c20" serif:id="c"><path id="t40" serif:id="t" d="M64.876,49.681l-2.255,-6.94l-3.469,1.128l5.724,5.812Z" style="fill:#fc0;fill-rule:nonzero;"/><path id="t41" serif:id="t" d="M64.876,49.681l-5.903,-4.289l2.144,-2.951l3.759,7.24Z" style="fill:#fc0;fill-rule:nonzero;"/></g><g id="a8" serif:id="a"><g id="c21" serif:id="c"><path id="t42" serif:id="t" d="M56.299,49.681l5.903,-4.289l-2.145,-2.951l-3.758,7.24Z" style="fill:#fc0;fill-rule:nonzero;"/><path id="t43" serif:id="t" d="M56.299,49.681l2.254,-6.94l3.47,1.128l-5.724,5.812Z" style="fill:#fc0;fill-rule:nonzero;"/></g><g id="c22" serif:id="c"><path id="t44" serif:id="t" d="M53.648,41.523l5.903,4.289l2.144,-2.952l-8.047,-1.337Z" style="fill:#fc0;fill-rule:nonzero;"/><path id="t45" serif:id="t" d="M53.648,41.523l7.296,0l0,3.648l-7.296,-3.648Z" style="fill:#fc0;fill-rule:nonzero;"/></g></g><g id="a9" serif:id="a"><g id="c23" serif:id="c"><path id="t46" serif:id="t" d="M67.527,41.523l-5.903,4.289l-2.145,-2.952l8.048,-1.337Z" style="fill:#fc0;fill-rule:nonzero;"/><path id="t47" serif:id="t" d="M67.527,41.523l-7.297,0l0,3.648l7.297,-3.648Z" style="fill:#fc0;fill-rule:nonzero;"/></g><g id="c24" serif:id="c"><path id="t48" serif:id="t" d="M60.587,36.481l2.255,6.94l-3.47,1.127l1.215,-8.067Z" style="fill:#fc0;fill-rule:nonzero;"/><path id="t49" serif:id="t" d="M60.587,36.481l-2.254,6.94l3.469,1.127l-1.215,-8.067Z" style="fill:#fc0;fill-rule:nonzero;"/></g></g></g><g id="s5" serif:id="s"><g id="c25" serif:id="c"><path id="t50" serif:id="t" d="M67.527,85.301l-7.297,-0l0,3.648l7.297,-3.648Z" style="fill:#fc0;fill-rule:nonzero;"/><path id="t51" serif:id="t" d="M67.527,85.301l-5.903,4.289l-2.145,-2.952l8.048,-1.337Z" style="fill:#fc0;fill-rule:nonzero;"/></g><g id="a10" serif:id="a"><g id="c26" serif:id="c"><path id="t52" serif:id="t" d="M64.876,93.458l-2.255,-6.939l-3.469,1.128l5.724,5.811Z" style="fill:#fc0;fill-rule:nonzero;"/><path id="t53" serif:id="t" d="M64.876,93.458l-5.903,-4.288l2.144,-2.952l3.759,7.24Z" style="fill:#fc0;fill-rule:nonzero;"/></g><g id="c27" serif:id="c"><path id="t54" serif:id="t" d="M56.299,93.458l5.903,-4.288l-2.145,-2.952l-3.758,7.24Z" style="fill:#fc0;fill-rule:nonzero;"/><path id="t55" serif:id="t" d="M56.299,93.458l2.254,-6.939l3.47,1.128l-5.724,5.811Z" style="fill:#fc0;fill-rule:nonzero;"/></g></g><g id="a11" serif:id="a"><g id="c28" serif:id="c"><path id="t56" serif:id="t" d="M60.587,80.259l2.255,6.939l-3.47,1.128l1.215,-8.067Z" style="fill:#fc0;fill-rule:nonzero;"/><path id="t57" serif:id="t" d="M60.587,80.259l-2.254,6.939l3.469,1.128l-1.215,-8.067Z" style="fill:#fc0;fill-rule:nonzero;"/></g><g id="c29" serif:id="c"><path id="t58" serif:id="t" d="M53.648,85.301l7.296,-0l0,3.648l-7.296,-3.648Z" style="fill:#fc0;fill-rule:nonzero;"/><path id="t59" serif:id="t" d="M53.648,85.301l5.903,4.289l2.144,-2.952l-8.047,-1.337Z" style="fill:#fc0;fill-rule:nonzero;"/></g></g></g><g id="s6" serif:id="s"><g id="c30" serif:id="c"><path id="t60" serif:id="t" d="M83.55,101.325l-7.296,-0l0,3.648l7.296,-3.648Z" style="fill:#fc0;fill-rule:nonzero;"/><path id="t61" serif:id="t" d="M83.55,101.325l-5.903,4.288l-2.144,-2.951l8.047,-1.337Z" style="fill:#fc0;fill-rule:nonzero;"/></g><g id="a12" serif:id="a"><g id="c31" serif:id="c"><path id="t62" serif:id="t" d="M80.9,109.482l-2.255,-6.939l-3.47,1.127l5.725,5.812Z" style="fill:#fc0;fill-rule:nonzero;"/><path id="t63" serif:id="t" d="M80.9,109.482l-5.903,-4.288l2.144,-2.952l3.759,7.24Z" style="fill:#fc0;fill-rule:nonzero;"/></g><g id="c32" serif:id="c"><path id="t64" serif:id="t" d="M72.322,109.482l5.903,-4.288l-2.144,-2.952l-3.759,7.24Z" style="fill:#fc0;fill-rule:nonzero;"/><path id="t65" serif:id="t" d="M72.322,109.482l2.255,-6.939l3.47,1.127l-5.725,5.812Z" style="fill:#fc0;fill-rule:nonzero;"/></g></g><g id="a13" serif:id="a"><g id="c33" serif:id="c"><path id="t66" serif:id="t" d="M76.611,96.283l2.255,6.939l-3.47,1.128l1.215,-8.067Z" style="fill:#fc0;fill-rule:nonzero;"/><path id="t67" serif:id="t" d="M76.611,96.283l-2.255,6.939l3.47,1.128l-1.215,-8.067Z" style="fill:#fc0;fill-rule:nonzero;"/></g><g id="c34" serif:id="c"><path id="t68" serif:id="t" d="M69.672,101.325l7.296,-0l0,3.648l-7.296,-3.648Z" style="fill:#fc0;fill-rule:nonzero;"/><path id="t69" serif:id="t" d="M69.672,101.325l5.903,4.288l2.144,-2.951l-8.047,-1.337Z" style="fill:#fc0;fill-rule:nonzero;"/></g></g></g></g><g id="l1" serif:id="l"><g id="s7" serif:id="s"><g id="c35" serif:id="c"><path id="t70" serif:id="t" d="M142.278,58.37l2.254,6.94l-3.469,1.127l1.215,-8.067Z" style="fill:#fc0;fill-rule:nonzero;"/><path id="t71" serif:id="t" d="M142.278,58.37l-2.255,6.94l3.47,1.127l-1.215,-8.067Z" style="fill:#fc0;fill-rule:nonzero;"/></g><g id="a14" serif:id="a"><g id="c36" serif:id="c"><path id="t72" serif:id="t" d="M135.339,63.412l7.296,-0l-0,3.648l-7.296,-3.648Z" style="fill:#fc0;fill-rule:nonzero;"/><path id="t73" serif:id="t" d="M135.339,63.412l5.902,4.289l2.145,-2.952l-8.047,-1.337Z" style="fill:#fc0;fill-rule:nonzero;"/></g><g id="c37" serif:id="c"><path id="t74" serif:id="t" d="M137.989,71.569l2.255,-6.939l3.469,1.128l-5.724,5.811Z" style="fill:#fc0;fill-rule:nonzero;"/><path id="t75" serif:id="t" d="M137.989,71.569l5.903,-4.288l-2.144,-2.952l-3.759,7.24Z" style="fill:#fc0;fill-rule:nonzero;"/></g></g><g id="a15" serif:id="a"><g id="c38" serif:id="c"><path id="t76" serif:id="t" d="M149.217,63.412l-7.296,-0l-0,3.648l7.296,-3.648Z" style="fill:#fc0;fill-rule:nonzero;"/><path id="t77" serif:id="t" d="M149.217,63.412l-5.903,4.289l-2.144,-2.952l8.047,-1.337Z" style="fill:#fc0;fill-rule:nonzero;"/></g><g id="c39" serif:id="c"><path id="t78" serif:id="t" d="M146.566,71.569l-2.254,-6.939l-3.47,1.128l5.724,5.811Z" style="fill:#fc0;fill-rule:nonzero;"/><path id="t79" serif:id="t" d="M146.566,71.569l-5.902,-4.288l2.144,-2.952l3.758,7.24Z" style="fill:#fc0;fill-rule:nonzero;"/></g></g></g><g id="s8" serif:id="s"><g id="c40" serif:id="c"><path id="t80" serif:id="t" d="M124.678,33.657l-5.903,-4.289l2.144,-2.951l3.759,7.24Z" style="fill:#fc0;fill-rule:nonzero;"/><path id="t81" serif:id="t" d="M124.678,33.657l-2.255,-6.939l-3.47,1.127l5.725,5.812Z" style="fill:#fc0;fill-rule:nonzero;"/></g><g id="a16" serif:id="a"><g id="c41" serif:id="c"><path id="t82" serif:id="t" d="M127.328,25.499l-5.903,4.289l-2.144,-2.951l8.047,-1.338Z" style="fill:#fc0;fill-rule:nonzero;"/><path id="t83" serif:id="t" d="M127.328,25.499l-7.296,0l-0,3.648l7.296,-3.648Z" style="fill:#fc0;fill-rule:nonzero;"/></g><g id="c42" serif:id="c"><path id="t84" serif:id="t" d="M120.389,20.458l2.255,6.939l-3.47,1.127l1.215,-8.066Z" style="fill:#fc0;fill-rule:nonzero;"/><path id="t85" serif:id="t" d="M120.389,20.458l-2.255,6.939l3.47,1.127l-1.215,-8.066Z" style="fill:#fc0;fill-rule:nonzero;"/></g></g><g id="a17" serif:id="a"><g id="c43" serif:id="c"><path id="t86" serif:id="t" d="M116.1,33.657l5.903,-4.289l-2.144,-2.951l-3.759,7.24Z" style="fill:#fc0;fill-rule:nonzero;"/><path id="t87" serif:id="t" d="M116.1,33.657l2.255,-6.939l3.47,1.127l-5.725,5.812Z" style="fill:#fc0;fill-rule:nonzero;"/></g><g id="c44" serif:id="c"><path id="t88" serif:id="t" d="M113.45,25.499l5.903,4.289l2.144,-2.951l-8.047,-1.338Z" style="fill:#fc0;fill-rule:nonzero;"/><path id="t89" serif:id="t" d="M113.45,25.499l7.296,0l-0,3.648l-7.296,-3.648Z" style="fill:#fc0;fill-rule:nonzero;"/></g></g></g><g id="s9" serif:id="s"><g id="c45" serif:id="c"><path id="t90" serif:id="t" d="M132.124,49.681l2.255,-6.94l3.469,1.128l-5.724,5.812Z" style="fill:#fc0;fill-rule:nonzero;"/><path id="t91" serif:id="t" d="M132.124,49.681l5.903,-4.289l-2.144,-2.951l-3.759,7.24Z" style="fill:#fc0;fill-rule:nonzero;"/></g><g id="a18" serif:id="a"><g id="c46" serif:id="c"><path id="t92" serif:id="t" d="M140.701,49.681l-5.903,-4.289l2.145,-2.951l3.758,7.24Z" style="fill:#fc0;fill-rule:nonzero;"/><path id="t93" serif:id="t" d="M140.701,49.681l-2.254,-6.94l-3.47,1.128l5.724,5.812Z" style="fill:#fc0;fill-rule:nonzero;"/></g><g id="c47" serif:id="c"><path id="t94" serif:id="t" d="M143.352,41.523l-5.903,4.289l-2.144,-2.952l8.047,-1.337Z" style="fill:#fc0;fill-rule:nonzero;"/><path id="t95" serif:id="t" d="M143.352,41.523l-7.296,0l-0,3.648l7.296,-3.648Z" style="fill:#fc0;fill-rule:nonzero;"/></g></g><g id="a19" serif:id="a"><g id="c48" serif:id="c"><path id="t96" serif:id="t" d="M129.473,41.523l5.903,4.289l2.145,-2.952l-8.048,-1.337Z" style="fill:#fc0;fill-rule:nonzero;"/><path id="t97" serif:id="t" d="M129.473,41.523l7.297,0l-0,3.648l-7.297,-3.648Z" style="fill:#fc0;fill-rule:nonzero;"/></g><g id="c49" serif:id="c"><path id="t98" serif:id="t" d="M136.413,36.481l-2.255,6.94l3.47,1.127l-1.215,-8.067Z" style="fill:#fc0;fill-rule:nonzero;"/><path id="t99" serif:id="t" d="M136.413,36.481l2.254,6.94l-3.469,1.127l1.215,-8.067Z" style="fill:#fc0;fill-rule:nonzero;"/></g></g></g><g id="s10" serif:id="s"><g id="c50" serif:id="c"><path id="t100" serif:id="t" d="M129.473,85.301l7.297,-0l-0,3.648l-7.297,-3.648Z" style="fill:#fc0;fill-rule:nonzero;"/><path id="t101" serif:id="t" d="M129.473,85.301l5.903,4.289l2.145,-2.952l-8.048,-1.337Z" style="fill:#fc0;fill-rule:nonzero;"/></g><g id="a20" serif:id="a"><g id="c51" serif:id="c"><path id="t102" serif:id="t" d="M132.124,93.458l2.255,-6.939l3.469,1.128l-5.724,5.811Z" style="fill:#fc0;fill-rule:nonzero;"/><path id="t103" serif:id="t" d="M132.124,93.458l5.903,-4.288l-2.144,-2.952l-3.759,7.24Z" style="fill:#fc0;fill-rule:nonzero;"/></g><g id="c52" serif:id="c"><path id="t104" serif:id="t" d="M140.701,93.458l-5.903,-4.288l2.145,-2.952l3.758,7.24Z" style="fill:#fc0;fill-rule:nonzero;"/><path id="t105" serif:id="t" d="M140.701,93.458l-2.254,-6.939l-3.47,1.128l5.724,5.811Z" style="fill:#fc0;fill-rule:nonzero;"/></g></g><g id="a21" serif:id="a"><g id="c53" serif:id="c"><path id="t106" serif:id="t" d="M136.413,80.259l-2.255,6.939l3.47,1.128l-1.215,-8.067Z" style="fill:#fc0;fill-rule:nonzero;"/><path id="t107" serif:id="t" d="M136.413,80.259l2.254,6.939l-3.469,1.128l1.215,-8.067Z" style="fill:#fc0;fill-rule:nonzero;"/></g><g id="c54" serif:id="c"><path id="t108" serif:id="t" d="M143.352,85.301l-7.296,-0l-0,3.648l7.296,-3.648Z" style="fill:#fc0;fill-rule:nonzero;"/><path id="t109" serif:id="t" d="M143.352,85.301l-5.903,4.289l-2.144,-2.952l8.047,-1.337Z" style="fill:#fc0;fill-rule:nonzero;"/></g></g></g><g id="s11" serif:id="s"><g id="c55" serif:id="c"><path id="t110" serif:id="t" d="M113.45,101.325l7.296,-0l-0,3.648l-7.296,-3.648Z" style="fill:#fc0;fill-rule:nonzero;"/><path id="t111" serif:id="t" d="M113.45,101.325l5.903,4.288l2.144,-2.951l-8.047,-1.337Z" style="fill:#fc0;fill-rule:nonzero;"/></g><g id="a22" serif:id="a"><g id="c56" serif:id="c"><path id="t112" serif:id="t" d="M116.1,109.482l2.255,-6.939l3.47,1.127l-5.725,5.812Z" style="fill:#fc0;fill-rule:nonzero;"/><path id="t113" serif:id="t" d="M116.1,109.482l5.903,-4.288l-2.144,-2.952l-3.759,7.24Z" style="fill:#fc0;fill-rule:nonzero;"/></g><g id="c57" serif:id="c"><path id="t114" serif:id="t" d="M124.678,109.482l-5.903,-4.288l2.144,-2.952l3.759,7.24Z" style="fill:#fc0;fill-rule:nonzero;"/><path id="t115" serif:id="t" d="M124.678,109.482l-2.255,-6.939l-3.47,1.127l5.725,5.812Z" style="fill:#fc0;fill-rule:nonzero;"/></g></g><g id="a23" serif:id="a"><g id="c58" serif:id="c"><path id="t116" serif:id="t" d="M120.389,96.283l-2.255,6.939l3.47,1.128l-1.215,-8.067Z" style="fill:#fc0;fill-rule:nonzero;"/><path id="t117" serif:id="t" d="M120.389,96.283l2.255,6.939l-3.47,1.128l1.215,-8.067Z" style="fill:#fc0;fill-rule:nonzero;"/></g><g id="c59" serif:id="c"><path id="t118" serif:id="t" d="M127.328,101.325l-7.296,-0l-0,3.648l7.296,-3.648Z" style="fill:#fc0;fill-rule:nonzero;"/><path id="t119" serif:id="t" d="M127.328,101.325l-5.903,4.288l-2.144,-2.951l8.047,-1.337Z" style="fill:#fc0;fill-rule:nonzero;"/></g></g></g></g></g></svg>
