<?xml version="1.0" encoding="utf-8"?>
<svg version="1.1" xmlns:xlink="http://www.w3.org/1999/xlink" width="22px" height="22px" xmlns="http://www.w3.org/2000/svg">
  <g transform="matrix(1 0 0 1 -639 -328 )">
    <path d="M 5.478515625 1.47526041666667  C 7.16384548611111 0.49175347222222  9.00434027777778 0  11 0  C 12.9956597222222 0  14.8361545138889 0.49175347222222  16.521484375 1.47526041666667  C 18.2068142361111 2.45876736111111  19.5412326388889 3.79318576388889  20.5247395833333 5.478515625  C 21.5082465277778 7.16384548611111  22 9.00434027777778  22 11  C 22 12.9956597222222  21.5082465277778 14.8361545138889  20.5247395833333 16.521484375  C 19.5412326388889 18.2068142361111  18.2068142361111 19.5412326388889  16.521484375 20.5247395833333  C 14.8361545138889 21.5082465277778  12.9956597222222 22  11 22  C 9.00434027777778 22  7.16384548611111 21.5082465277778  5.478515625 20.5247395833333  C 3.79318576388889 19.5412326388889  2.45876736111111 18.2068142361111  1.47526041666667 16.521484375  C 0.491753472222222 14.8361545138889  0 12.9956597222222  0 11  C 0 9.00434027777778  0.491753472222222 7.16384548611111  1.47526041666667 5.478515625  C 2.45876736111111 3.79318576388889  3.79318576388889 2.45876736111111  5.478515625 1.47526041666667  Z M 15.5403645833333 7.29036458333333  C 15.3780381944444 7.24262152777778  15.1727430555556 7.29991319444444  14.9244791666667 7.46223958333333  C 14.9053819444444 7.47178819444444  14.8600260416667 7.51714409722222  14.7884114583333 7.59830729166667  C 14.716796875 7.67947048611111  14.65234375 7.72482638888889  14.5950520833333 7.734375  C 14.6141493055556 7.734375  14.6356336805556 7.71050347222222  14.6595052083333 7.66276041666667  C 14.6833767361111 7.61501736111111  14.7072482638889 7.5625  14.7311197916667 7.50520833333333  C 14.7549913194444 7.44791666666667  14.7717013888889 7.41449652777778  14.78125 7.40494791666667  C 14.8385416666667 7.33810763888889  14.9435763888889 7.26649305555555  15.0963541666667 7.19010416666667  C 15.2300347222222 7.1328125  15.4782986111111 7.07552083333333  15.8411458333333 7.01822916666667  C 16.1657986111111 6.94184027777778  16.4092881944444 6.99435763888889  16.5716145833333 7.17578125  C 16.5525173611111 7.15668402777778  16.5978732638889 7.09461805555555  16.7076822916667 6.98958333333333  C 16.8174913194444 6.88454861111111  16.88671875 6.82725694444444  16.9153645833333 6.81770833333333  C 16.9440104166667 6.79861111111111  17.015625 6.77712673611111  17.1302083333333 6.75325520833333  C 17.2447916666667 6.72938368055555  17.31640625 6.69357638888889  17.3450520833333 6.64583333333333  L 17.3736979166667 6.33072916666667  C 17.2591145833333 6.34027777777778  17.1755642361111 6.30685763888889  17.123046875 6.23046875  C 17.0705295138889 6.15407986111111  17.0394965277778 6.05381944444444  17.0299479166667 5.9296875  C 17.0299479166667 5.94878472222222  17.0013020833333 5.98697916666667  16.9440104166667 6.04427083333333  C 16.9440104166667 5.97743055555555  16.9225260416667 5.93923611111111  16.8795572916667 5.9296875  C 16.8365885416667 5.92013888888889  16.7816840277778 5.92491319444444  16.71484375 5.94401041666667  C 16.6480034722222 5.96310763888889  16.6050347222222 5.96788194444444  16.5859375 5.95833333333333  C 16.4904513888889 5.9296875  16.4188368055556 5.89388020833333  16.37109375 5.85091145833333  C 16.3233506944444 5.80794270833333  16.28515625 5.72916666666667  16.2565104166667 5.61458333333333  C 16.2278645833333 5.5  16.2087673611111 5.42838541666667  16.19921875 5.39973958333333  C 16.1801215277778 5.35199652777778  16.134765625 5.29947916666667  16.0631510416667 5.2421875  C 15.9915364583333 5.18489583333333  15.9461805555556 5.13715277777778  15.9270833333333 5.09895833333333  C 15.9175347222222 5.07986111111111  15.9055989583333 5.05360243055555  15.8912760416667 5.02018229166667  C 15.876953125 4.98676215277778  15.8626302083333 4.95572916666667  15.8483072916667 4.92708333333333  C 15.833984375 4.8984375  15.8148871527778 4.87217881944444  15.791015625 4.84830729166667  C 15.7671440972222 4.82443576388889  15.7408854166667 4.8125  15.7122395833333 4.8125  C 15.68359375 4.8125  15.6501736111111 4.83637152777778  15.6119791666667 4.88411458333333  C 15.5737847222222 4.93185763888889  15.5379774305556 4.97960069444444  15.5045572916667 5.02734375  C 15.4711371527778 5.07508680555555  15.4496527777778 5.09895833333333  15.4401041666667 5.09895833333333  C 15.4114583333333 5.07986111111111  15.3828125 5.07269965277778  15.3541666666667 5.07747395833333  C 15.3255208333333 5.08224826388889  15.3040364583333 5.08702256944444  15.2897135416667 5.091796875  C 15.275390625 5.09657118055555  15.25390625 5.11089409722222  15.2252604166667 5.134765625  C 15.1966145833333 5.15863715277778  15.1727430555556 5.17534722222222  15.1536458333333 5.18489583333333  C 15.125 5.20399305555555  15.0844184027778 5.21831597222222  15.0319010416667 5.22786458333333  C 14.9793836805556 5.23741319444444  14.9388020833333 5.24696180555555  14.91015625 5.25651041666667  C 15.0533854166667 5.20876736111111  15.0486111111111 5.15625  14.8958333333333 5.09895833333333  C 14.8003472222222 5.06076388888889  14.7239583333333 5.04644097222222  14.6666666666667 5.05598958333333  C 14.7526041666667 5.01779513888889  14.7884114583333 4.96050347222222  14.7740885416667 4.88411458333333  C 14.759765625 4.80772569444444  14.7191840277778 4.74088541666667  14.65234375 4.68359375  L 14.7239583333333 4.68359375  C 14.7144097222222 4.64539930555555  14.673828125 4.60481770833333  14.6022135416667 4.56184895833333  C 14.5305989583333 4.51888020833333  14.4470486111111 4.47829861111111  14.3515625 4.44010416666667  C 14.2560763888889 4.40190972222222  14.1940104166667 4.37326388888889  14.1653645833333 4.35416666666667  C 14.0889756944444 4.30642361111111  13.9266493055556 4.26106770833333  13.6783854166667 4.21809895833333  C 13.4301215277778 4.17513020833333  13.2725694444444 4.17274305555555  13.2057291666667 4.2109375  C 13.1579861111111 4.26822916666667  13.1365017361111 4.318359375  13.1412760416667 4.361328125  C 13.1460503472222 4.404296875  13.1651475694444 4.47113715277778  13.1985677083333 4.56184895833333  C 13.2319878472222 4.65256076388889  13.2486979166667 4.71223958333333  13.2486979166667 4.74088541666667  C 13.2582465277778 4.79817708333333  13.2319878472222 4.86024305555555  13.169921875 4.92708333333333  C 13.1078559027778 4.99392361111111  13.0768229166667 5.05121527777778  13.0768229166667 5.09895833333333  C 13.0768229166667 5.16579861111111  13.1436631944444 5.23980034722222  13.27734375 5.32096354166667  C 13.4110243055556 5.40212673611111  13.4587673611111 5.50477430555555  13.4205729166667 5.62890625  C 13.3919270833333 5.70529513888889  13.3155381944444 5.78168402777778  13.19140625 5.85807291666667  C 13.0672743055556 5.93446180555555  12.9908854166667 5.99175347222222  12.9622395833333 6.02994791666667  C 12.9144965277778 6.10633680555555  12.9073350694444 6.19466145833333  12.9407552083333 6.294921875  C 12.9741753472222 6.39518229166667  13.0243055555556 6.47395833333333  13.0911458333333 6.53125  C 13.1102430555556 6.55034722222222  13.1174045138889 6.56944444444444  13.1126302083333 6.58854166666667  C 13.1078559027778 6.60763888888889  13.0911458333333 6.62912326388889  13.0625 6.65299479166667  C 13.0338541666667 6.67686631944444  13.0075954861111 6.69596354166667  12.9837239583333 6.71028645833333  C 12.9598524305556 6.724609375  12.9288194444444 6.74131944444444  12.890625 6.76041666666667  L 12.84765625 6.7890625  C 12.7426215277778 6.83680555555555  12.6447482638889 6.80815972222222  12.5540364583333 6.703125  C 12.4633246527778 6.59809027777778  12.3988715277778 6.47395833333333  12.3606770833333 6.33072916666667  C 12.2938368055556 6.09201388888889  12.2174479166667 5.94878472222222  12.1315104166667 5.90104166666667  C 11.9118923611111 5.82465277777778  11.7734375 5.82942708333333  11.7161458333333 5.91536458333333  C 11.6684027777778 5.79123263888889  11.47265625 5.66710069444444  11.12890625 5.54296875  C 10.8901909722222 5.45703125  10.61328125 5.43793402777778  10.2981770833333 5.48567708333333  C 10.35546875 5.47612847222222  10.35546875 5.40451388888889  10.2981770833333 5.27083333333333  C 10.2313368055556 5.12760416666667  10.140625 5.0703125  10.0260416666667 5.09895833333333  C 10.0546875 5.04166666666667  10.0737847222222 4.95811631944444  10.0833333333333 4.84830729166667  C 10.0928819444444 4.73849826388889  10.09765625 4.67404513888889  10.09765625 4.65494791666667  C 10.1263020833333 4.53081597222222  10.18359375 4.42100694444444  10.26953125 4.32552083333333  C 10.2790798611111 4.31597222222222  10.3125 4.275390625  10.3697916666667 4.20377604166667  C 10.4270833333333 4.13216145833333  10.4724392361111 4.06770833333333  10.505859375 4.01041666666667  C 10.5392795138889 3.953125  10.5416666666667 3.92447916666667  10.5130208333333 3.92447916666667  C 10.8472222222222 3.96267361111111  11.0859375 3.91015625  11.2291666666667 3.76692708333333  C 11.2769097222222 3.71918402777778  11.3318142361111 3.63802083333333  11.3938802083333 3.5234375  C 11.4559461805556 3.40885416666667  11.5060763888889 3.32769097222222  11.5442708333333 3.27994791666667  C 11.6302083333333 3.22265625  11.6970486111111 3.19639756944444  11.7447916666667 3.201171875  C 11.7925347222222 3.20594618055555  11.8617621527778 3.23220486111111  11.9524739583333 3.27994791666667  C 12.0431857638889 3.32769097222222  12.1124131944444 3.3515625  12.16015625 3.3515625  C 12.2938368055556 3.36111111111111  12.3678385416667 3.30859375  12.3821614583333 3.19401041666667  C 12.396484375 3.07942708333333  12.3606770833333 2.98394097222222  12.2747395833333 2.90755208333333  C 12.3893229166667 2.91710069444444  12.4036458333333 2.8359375  12.3177083333333 2.6640625  C 12.2795138888889 2.59722222222222  12.2413194444444 2.55425347222222  12.203125 2.53515625  C 12.0885416666667 2.49696180555555  11.9596354166667 2.52083333333333  11.81640625 2.60677083333333  C 11.7400173611111 2.64496527777778  11.7495659722222 2.68315972222222  11.8450520833333 2.72135416666667  C 11.8355034722222 2.71180555555555  11.7901475694444 2.76193576388889  11.708984375 2.87174479166667  C 11.6278211805556 2.98155381944444  11.5490451388889 3.06510416666667  11.47265625 3.12239583333333  C 11.3962673611111 3.1796875  11.3198784722222 3.15581597222222  11.2434895833333 3.05078125  C 11.2339409722222 3.04123263888889  11.2076822916667 2.97677951388889  11.1647135416667 2.857421875  C 11.1217447916667 2.73806423611111  11.0763888888889 2.67361111111111  11.0286458333333 2.6640625  C 10.9522569444444 2.6640625  10.8758680555556 2.73567708333333  10.7994791666667 2.87890625  C 10.828125 2.80251736111111  10.7756076388889 2.73090277777778  10.6419270833333 2.6640625  C 10.5082465277778 2.59722222222222  10.3936631944444 2.55902777777778  10.2981770833333 2.54947916666667  C 10.4796006944444 2.43489583333333  10.44140625 2.30598958333333  10.18359375 2.16276041666667  C 10.1167534722222 2.12456597222222  10.0188802083333 2.10069444444444  9.88997395833333 2.09114583333333  C 9.76106770833333 2.08159722222222  9.66796875 2.10069444444444  9.61067708333333 2.1484375  C 9.56293402777778 2.21527777777778  9.53667534722222 2.27018229166667  9.53190104166667 2.31315104166667  C 9.52712673611111 2.35611979166667  9.55099826388889 2.39431423611111  9.603515625 2.427734375  C 9.65603298611111 2.46115451388889  9.70616319444445 2.48741319444444  9.75390625 2.50651041666667  C 9.80164930555556 2.52560763888889  9.85655381944445 2.54470486111111  9.91861979166667 2.56380208333333  C 9.98068576388889 2.58289930555555  10.0212673611111 2.59722222222222  10.0403645833333 2.60677083333333  C 10.1740451388889 2.70225694444444  10.2122395833333 2.76909722222222  10.1549479166667 2.80729166666667  C 10.1358506944444 2.81684027777778  10.0952690972222 2.83355034722222  10.033203125 2.857421875  C 9.97113715277778 2.88129340277778  9.91623263888889 2.90277777777778  9.86848958333333 2.921875  C 9.82074652777778 2.94097222222222  9.79210069444445 2.96006944444444  9.78255208333333 2.97916666666667  C 9.75390625 3.01736111111111  9.75390625 3.08420138888889  9.78255208333333 3.1796875  C 9.81119791666667 3.27517361111111  9.80164930555556 3.34201388888889  9.75390625 3.38020833333333  C 9.70616319444445 3.33246527777778  9.66319444444445 3.24891493055555  9.625 3.12955729166667  C 9.58680555555556 3.01019965277778  9.55338541666667 2.93142361111111  9.52473958333333 2.89322916666667  C 9.59157986111111 2.97916666666667  9.47222222222222 3.0078125  9.16666666666667 2.97916666666667  L 9.0234375 2.96484375  C 8.98524305555556 2.96484375  8.90885416666667 2.97439236111111  8.79427083333333 2.99348958333333  C 8.6796875 3.01258680555555  8.58181423611111 3.01736111111111  8.50065104166667 3.0078125  C 8.41948784722222 2.99826388888889  8.35503472222222 2.96006944444444  8.30729166666667 2.89322916666667  C 8.26909722222222 2.81684027777778  8.26909722222222 2.72135416666667  8.30729166666667 2.60677083333333  C 8.31684027777778 2.56857638888889  8.3359375 2.55902777777778  8.36458333333333 2.578125  C 8.32638888888889 2.54947916666667  8.27387152777778 2.50412326388889  8.20703125 2.44205729166667  C 8.14019097222222 2.37999131944444  8.09244791666667 2.33940972222222  8.06380208333333 2.3203125  C 7.62456597222222 2.46354166666667  7.17578125 2.65928819444444  6.71744791666667 2.90755208333333  C 6.77473958333333 2.91710069444444  6.83203125 2.91232638888889  6.88932291666667 2.89322916666667  C 6.93706597222222 2.87413194444444  6.99913194444445 2.84309895833333  7.07552083333333 2.80013020833333  C 7.15190972222222 2.75716145833333  7.19965277777778 2.73090277777778  7.21875 2.72135416666667  C 7.54340277777778 2.58767361111111  7.74392361111111 2.55425347222222  7.8203125 2.62109375  L 7.89192708333333 2.54947916666667  C 8.02560763888889 2.70225694444444  8.12109375 2.82161458333333  8.17838541666667 2.90755208333333  C 8.11154513888889 2.86935763888889  7.96831597222222 2.86458333333333  7.74869791666667 2.89322916666667  C 7.55772569444445 2.95052083333333  7.45269097222222 3.0078125  7.43359375 3.06510416666667  C 7.50043402777778 3.1796875  7.52430555555556 3.265625  7.50520833333333 3.32291666666667  C 7.46701388888889 3.29427083333333  7.412109375 3.24652777777778  7.34049479166667 3.1796875  C 7.26888020833333 3.11284722222222  7.19965277777778 3.06032986111111  7.1328125 3.02213541666667  C 7.06597222222222 2.98394097222222  6.99435763888889 2.96006944444444  6.91796875 2.95052083333333  C 6.76519097222222 2.95052083333333  6.66015625 2.95529513888889  6.60286458333333 2.96484375  C 5.20876736111111 3.72873263888889  4.08680555555556 4.78862847222222  3.23697916666667 6.14453125  C 3.30381944444445 6.21137152777778  3.36111111111111 6.24956597222222  3.40885416666667 6.25911458333333  C 3.44704861111111 6.26866319444444  3.47092013888889 6.31163194444444  3.48046875 6.38802083333333  C 3.49001736111111 6.46440972222222  3.501953125 6.51692708333333  3.51627604166667 6.54557291666667  C 3.53059895833333 6.57421875  3.58550347222222 6.55989583333333  3.68098958333333 6.50260416666667  C 3.76692708333333 6.57899305555555  3.78125 6.66970486111111  3.72395833333333 6.77473958333333  C 3.73350694444445 6.76519097222222  3.94357638888889 6.89409722222222  4.35416666666667 7.16145833333333  C 4.53559027777778 7.32378472222222  4.63585069444444 7.42404513888889  4.65494791666667 7.46223958333333  C 4.68359375 7.56727430555555  4.63585069444444 7.65321180555555  4.51171875 7.72005208333333  C 4.50217013888889 7.70095486111111  4.45920138888889 7.65798611111111  4.3828125 7.59114583333333  C 4.30642361111111 7.52430555555555  4.26345486111111 7.50520833333333  4.25390625 7.53385416666667  C 4.22526041666667 7.58159722222222  4.22764756944444 7.669921875  4.26106770833333 7.798828125  C 4.29448784722222 7.927734375  4.34461805555556 7.98741319444444  4.41145833333333 7.97786458333333  C 4.34461805555556 7.97786458333333  4.29926215277778 8.05425347222222  4.275390625 8.20703125  C 4.25151909722222 8.35980902777778  4.23958333333333 8.529296875  4.23958333333333 8.71549479166667  C 4.23958333333333 8.90169270833333  4.23480902777778 9.01388888888889  4.22526041666667 9.05208333333333  L 4.25390625 9.06640625  C 4.22526041666667 9.18098958333333  4.25151909722222 9.345703125  4.33268229166667 9.560546875  C 4.41384548611111 9.775390625  4.51649305555556 9.86848958333333  4.640625 9.83984375  C 4.51649305555556 9.86848958333333  4.61197916666667 10.0737847222222  4.92708333333333 10.4557291666667  C 4.984375 10.5321180555556  5.02256944444444 10.5750868055556  5.04166666666667 10.5846354166667  C 5.0703125 10.6037326388889  5.12760416666667 10.6395399305556  5.21354166666667 10.6920572916667  C 5.29947916666667 10.7445746527778  5.37109375 10.7923177083333  5.42838541666667 10.8352864583333  C 5.48567708333333 10.8782552083333  5.53342013888889 10.9283854166667  5.57161458333333 10.9856770833333  C 5.60980902777778 11.0334201388889  5.65755208333333 11.1408420138889  5.71484375 11.3079427083333  C 5.77213541666667 11.4750434027778  5.83897569444445 11.5872395833333  5.91536458333333 11.64453125  C 5.89626736111111 11.7018229166667  5.94162326388889 11.7973090277778  6.05143229166667 11.9309895833333  C 6.16124131944444 12.0646701388889  6.21137152777778 12.1744791666667  6.20182291666667 12.2604166666667  C 6.19227430555556 12.2604166666667  6.18033854166667 12.2651909722222  6.166015625 12.2747395833333  C 6.15169270833333 12.2842881944444  6.13975694444445 12.2890625  6.13020833333333 12.2890625  C 6.15885416666667 12.3559027777778  6.23285590277778 12.4227430555556  6.35221354166667 12.4895833333333  C 6.47157118055556 12.5564236111111  6.54557291666667 12.6184895833333  6.57421875 12.67578125  C 6.58376736111111 12.7044270833333  6.59331597222222 12.7521701388889  6.60286458333333 12.8190104166667  C 6.61241319444445 12.8858506944444  6.62673611111111 12.9383680555556  6.64583333333333 12.9765625  C 6.66493055555556 13.0147569444444  6.703125 13.0243055555556  6.76041666666667 13.0052083333333  C 6.77951388888889 12.8142361111111  6.66493055555556 12.5182291666667  6.41666666666667 12.1171875  C 6.2734375 11.8784722222222  6.19227430555556 11.7400173611111  6.17317708333333 11.7018229166667  C 6.14453125 11.6540798611111  6.11827256944444 11.580078125  6.09440104166667 11.4798177083333  C 6.07052951388889 11.3795572916667  6.04904513888889 11.3103298611111  6.02994791666667 11.2721354166667  C 6.04904513888889 11.2721354166667  6.07769097222222 11.279296875  6.11588541666667 11.2936197916667  C 6.15407986111111 11.3079427083333  6.19466145833333 11.3246527777778  6.23763020833333 11.34375  C 6.28059895833333 11.3628472222222  6.31640625 11.3819444444444  6.34505208333333 11.4010416666667  C 6.37369791666667 11.4201388888889  6.38324652777778 11.4344618055556  6.37369791666667 11.4440104166667  C 6.34505208333333 11.5108506944444  6.35460069444444 11.5944010416667  6.40234375 11.6946614583333  C 6.45008680555556 11.794921875  6.50737847222222 11.8832465277778  6.57421875 11.9596354166667  C 6.64105902777778 12.0360243055556  6.72222222222222 12.1267361111111  6.81770833333333 12.2317708333333  C 6.91319444444445 12.3368055555556  6.97048611111111 12.3988715277778  6.98958333333333 12.41796875  C 7.046875 12.4752604166667  7.11371527777778 12.568359375  7.19010416666667 12.697265625  C 7.26649305555556 12.826171875  7.26649305555556 12.890625  7.19010416666667 12.890625  C 7.27604166666667 12.890625  7.37152777777778 12.9407552083333  7.4765625 13.041015625  C 7.58159722222222 13.1412760416667  7.66276041666667 13.234375  7.72005208333333 13.3203125  C 7.76779513888889 13.3967013888889  7.80598958333333 13.5208333333333  7.83463541666667 13.6927083333333  C 7.86328125 13.8645833333333  7.88715277777778 13.9791666666667  7.90625 14.0364583333333  C 7.92534722222222 14.1032986111111  7.96592881944445 14.1677517361111  8.02799479166667 14.2298177083333  C 8.09006076388889 14.2918836805556  8.14973958333333 14.3372395833333  8.20703125 14.3658854166667  L 8.43619791666667 14.48046875  C 8.43619791666667 14.48046875  8.49826388888889 14.5138888888889  8.62239583333333 14.5807291666667  C 8.67013888888889 14.5998263888889  8.75846354166667 14.6499565972222  8.88736979166667 14.7311197916667  C 9.01627604166667 14.8122829861111  9.11892361111111 14.8671875  9.1953125 14.8958333333333  C 9.29079861111111 14.9340277777778  9.3671875 14.953125  9.42447916666667 14.953125  C 9.48177083333333 14.953125  9.55099826388889 14.9411892361111  9.63216145833333 14.9173177083333  C 9.71332465277778 14.8934461805556  9.77777777777778 14.8767361111111  9.82552083333333 14.8671875  C 9.96875 14.8480902777778  10.1072048611111 14.9197048611111  10.2408854166667 15.08203125  C 10.3745659722222 15.2443576388889  10.4748263888889 15.3446180555556  10.5416666666667 15.3828125  C 10.8854166666667 15.5642361111111  11.1480034722222 15.6167534722222  11.3294270833333 15.5403645833333  C 11.3103298611111 15.5499131944444  11.3127170138889 15.5857204861111  11.3365885416667 15.6477864583333  C 11.3604600694444 15.7098524305556  11.3986545138889 15.7838541666667  11.451171875 15.8697916666667  C 11.5036892361111 15.9557291666667  11.5466579861111 16.0249565972222  11.580078125 16.0774739583333  C 11.6134982638889 16.1299913194444  11.6397569444444 16.1705729166667  11.6588541666667 16.19921875  C 11.7065972222222 16.2565104166667  11.7925347222222 16.328125  11.9166666666667 16.4140625  C 12.0407986111111 16.5  12.1267361111111 16.5716145833333  12.1744791666667 16.62890625  C 12.2317708333333 16.5907118055556  12.2651909722222 16.5477430555556  12.2747395833333 16.5  C 12.24609375 16.5763888888889  12.2795138888889 16.671875  12.375 16.7864583333333  C 12.4704861111111 16.9010416666667  12.5564236111111 16.9487847222222  12.6328125 16.9296875  C 12.7664930555556 16.9010416666667  12.8333333333333 16.7482638888889  12.8333333333333 16.4713541666667  C 12.5373263888889 16.6145833333333  12.3033854166667 16.5286458333333  12.1315104166667 16.2135416666667  C 12.1315104166667 16.2039930555556  12.1195746527778 16.177734375  12.095703125 16.134765625  C 12.0718315972222 16.091796875  12.052734375 16.0512152777778  12.0384114583333 16.0130208333333  C 12.0240885416667 15.9748263888889  12.0121527777778 15.9342447916667  12.0026041666667 15.8912760416667  C 11.9930555555556 15.8483072916667  11.9930555555556 15.8125  12.0026041666667 15.7838541666667  C 12.0121527777778 15.7552083333333  12.0360243055556 15.7408854166667  12.07421875 15.7408854166667  C 12.16015625 15.7408854166667  12.2078993055556 15.7241753472222  12.2174479166667 15.6907552083333  C 12.2269965277778 15.6573350694444  12.2174479166667 15.59765625  12.1888020833333 15.51171875  C 12.16015625 15.42578125  12.1410590277778 15.3637152777778  12.1315104166667 15.3255208333333  C 12.1219618055556 15.2491319444444  12.0694444444444 15.1536458333333  11.9739583333333 15.0390625  C 11.8784722222222 14.9244791666667  11.8211805555556 14.8528645833333  11.8020833333333 14.82421875  C 11.7543402777778 14.91015625  11.6779513888889 14.9483506944444  11.5729166666667 14.9388020833333  C 11.4678819444444 14.9292534722222  11.3914930555556 14.8862847222222  11.34375 14.8098958333333  C 11.34375 14.8194444444444  11.3365885416667 14.845703125  11.322265625 14.888671875  C 11.3079427083333 14.931640625  11.30078125 14.9626736111111  11.30078125 14.9817708333333  C 11.1766493055556 14.9817708333333  11.1050347222222 14.9769965277778  11.0859375 14.9674479166667  C 11.0954861111111 14.9388020833333  11.107421875 14.8552517361111  11.1217447916667 14.716796875  C 11.1360677083333 14.5783420138889  11.1527777777778 14.4709201388889  11.171875 14.39453125  C 11.1814236111111 14.3563368055556  11.2076822916667 14.2990451388889  11.2506510416667 14.22265625  C 11.2936197916667 14.1462673611111  11.3294270833333 14.0770399305556  11.3580729166667 14.0149739583333  C 11.38671875 13.9529079861111  11.4058159722222 13.8932291666667  11.4153645833333 13.8359375  C 11.4249131944444 13.7786458333333  11.4034288194444 13.7332899305556  11.3509114583333 13.6998697916667  C 11.2983940972222 13.6664496527778  11.21484375 13.6545138888889  11.1002604166667 13.6640625  C 10.9188368055556 13.6736111111111  10.7947048611111 13.7690972222222  10.7278645833333 13.9505208333333  C 10.7183159722222 13.9791666666667  10.7039930555556 14.029296875  10.6848958333333 14.1009114583333  C 10.6657986111111 14.1725260416667  10.6419270833333 14.2274305555556  10.61328125 14.265625  C 10.5846354166667 14.3038194444444  10.5416666666667 14.3372395833333  10.484375 14.3658854166667  C 10.4175347222222 14.39453125  10.3029513888889 14.4040798611111  10.140625 14.39453125  C 9.97829861111111 14.3849826388889  9.86371527777778 14.3611111111111  9.796875 14.3229166666667  C 9.67274305555556 14.2465277777778  9.56532118055556 14.1080729166667  9.474609375 13.9075520833333  C 9.38389756944445 13.70703125  9.33854166666667 13.5303819444444  9.33854166666667 13.3776041666667  C 9.33854166666667 13.2821180555556  9.35047743055556 13.1555989583333  9.37434895833333 12.998046875  C 9.39822048611111 12.8404947916667  9.41254340277778 12.7211371527778  9.41731770833333 12.6399739583333  C 9.42209201388889 12.5588107638889  9.39583333333333 12.4418402777778  9.33854166666667 12.2890625  C 9.3671875 12.2699652777778  9.41015625 12.224609375  9.46744791666667 12.1529947916667  C 9.52473958333333 12.0813802083333  9.57248263888889 12.03125  9.61067708333333 12.0026041666667  C 9.62977430555556 11.9930555555556  9.65125868055556 11.9858940972222  9.67513020833333 11.9811197916667  C 9.69900173611111 11.9763454861111  9.72048611111111 11.9763454861111  9.73958333333333 11.9811197916667  C 9.75868055555556 11.9858940972222  9.77777777777778 11.9787326388889  9.796875 11.9596354166667  C 9.81597222222222 11.9405381944444  9.83029513888889 11.9118923611111  9.83984375 11.8736979166667  C 9.83029513888889 11.8641493055556  9.81119791666667 11.8498263888889  9.78255208333333 11.8307291666667  C 9.75390625 11.8020833333333  9.73480902777778 11.7877604166667  9.72526041666667 11.7877604166667  C 9.79210069444445 11.81640625  9.92816840277778 11.8092447916667  10.1334635416667 11.7662760416667  C 10.3387586805556 11.7233072916667  10.4700520833333 11.73046875  10.52734375 11.7877604166667  C 10.6705729166667 11.8927951388889  10.7756076388889 11.8832465277778  10.8424479166667 11.7591145833333  C 10.8424479166667 11.7495659722222  10.8305121527778 11.7042100694444  10.806640625 11.623046875  C 10.7827690972222 11.5418836805556  10.7803819444444 11.4774305555556  10.7994791666667 11.4296875  C 10.8472222222222 11.6875  10.9856770833333 11.73046875  11.21484375 11.55859375  C 11.2434895833333 11.5872395833333  11.3174913194444 11.6111111111111  11.4368489583333 11.6302083333333  C 11.5562065972222 11.6493055555556  11.6397569444444 11.6731770833333  11.6875 11.7018229166667  C 11.7161458333333 11.7209201388889  11.7495659722222 11.7471788194444  11.7877604166667 11.7805989583333  C 11.8259548611111 11.8140190972222  11.8522135416667 11.8355034722222  11.8665364583333 11.8450520833333  C 11.880859375 11.8546006944444  11.9047309027778 11.8522135416667  11.9381510416667 11.837890625  C 11.9715711805556 11.8235677083333  12.0121527777778 11.7925347222222  12.0598958333333 11.7447916666667  C 12.1553819444444 11.8784722222222  12.2126736111111 11.9930555555556  12.2317708333333 12.0885416666667  C 12.3368055555556 12.4704861111111  12.4275173611111 12.6805555555556  12.50390625 12.71875  C 12.5707465277778 12.7473958333333  12.6232638888889 12.7569444444444  12.6614583333333 12.7473958333333  C 12.6996527777778 12.7378472222222  12.7211371527778 12.6924913194444  12.7259114583333 12.611328125  C 12.7306857638889 12.5301649305556  12.7306857638889 12.4633246527778  12.7259114583333 12.4108072916667  C 12.7211371527778 12.3582899305556  12.7139756944444 12.2986111111111  12.7044270833333 12.2317708333333  L 12.6901041666667 12.1171875  L 12.6901041666667 11.859375  L 12.67578125 11.7447916666667  C 12.5325520833333 11.7161458333333  12.4442274305556 11.6588541666667  12.4108072916667 11.5729166666667  C 12.3773871527778 11.4869791666667  12.3845486111111 11.3986545138889  12.4322916666667 11.3079427083333  C 12.4800347222222 11.2172309027778  12.5516493055556 11.12890625  12.6471354166667 11.04296875  C 12.6566840277778 11.0334201388889  12.6948784722222 11.0167100694444  12.76171875 10.9928385416667  C 12.8285590277778 10.9689670138889  12.9025607638889 10.9379340277778  12.9837239583333 10.8997395833333  C 13.0648871527778 10.8615451388889  13.1245659722222 10.8233506944444  13.1627604166667 10.78515625  C 13.36328125 10.6037326388889  13.4348958333333 10.4366319444444  13.3776041666667 10.2838541666667  C 13.4444444444444 10.2838541666667  13.4969618055556 10.2408854166667  13.53515625 10.1549479166667  C 13.5256076388889 10.1549479166667  13.5017361111111 10.140625  13.4635416666667 10.1119791666667  C 13.4253472222222 10.0833333333333  13.3895399305556 10.0594618055556  13.3561197916667 10.0403645833333  C 13.3226996527778 10.0212673611111  13.3012152777778 10.01171875  13.2916666666667 10.01171875  C 13.3776041666667 9.96397569444444  13.3871527777778 9.88758680555555  13.3203125 9.78255208333333  C 13.3680555555556 9.75390625  13.4038628472222 9.70138888888889  13.427734375 9.625  C 13.4516059027778 9.54861111111111  13.4874131944444 9.50086805555555  13.53515625 9.48177083333333  C 13.62109375 9.59635416666667  13.7213541666667 9.60590277777778  13.8359375 9.51041666666667  C 13.9123263888889 9.43402777777778  13.9171006944444 9.35763888888889  13.8502604166667 9.28125  C 13.8980034722222 9.21440972222222  13.9958767361111 9.16427951388889  14.1438802083333 9.130859375  C 14.2918836805556 9.09743923611111  14.3802083333333 9.05208333333333  14.4088541666667 8.99479166666667  C 14.4756944444444 9.01388888888889  14.5138888888889 9.00434027777778  14.5234375 8.96614583333333  C 14.5329861111111 8.92795138888889  14.5377604166667 8.87065972222222  14.5377604166667 8.79427083333333  C 14.5377604166667 8.71788194444444  14.5520833333333 8.66059027777778  14.5807291666667 8.62239583333333  C 14.6189236111111 8.57465277777778  14.6905381944444 8.53168402777778  14.7955729166667 8.49348958333333  C 14.9006076388889 8.45529513888889  14.9626736111111 8.43142361111111  14.9817708333333 8.421875  L 15.2252604166667 8.26432291666667  C 15.25390625 8.22612847222222  15.25390625 8.20703125  15.2252604166667 8.20703125  C 15.3971354166667 8.22612847222222  15.5451388888889 8.17361111111111  15.6692708333333 8.04947916666667  C 15.7647569444444 7.94444444444444  15.7361111111111 7.84895833333333  15.5833333333333 7.76302083333333  C 15.6119791666667 7.70572916666667  15.59765625 7.66037326388889  15.5403645833333 7.626953125  C 15.4830729166667 7.59353298611111  15.4114583333333 7.56727430555555  15.3255208333333 7.54817708333333  C 15.3541666666667 7.53862847222222  15.4090711805556 7.53624131944444  15.490234375 7.541015625  C 15.5713975694444 7.54578993055555  15.6215277777778 7.53862847222222  15.640625 7.51953125  C 15.7838541666667 7.42404513888889  15.7504340277778 7.34765625  15.5403645833333 7.29036458333333  Z M 12.5611979166667 19.7942708333333  C 12.5611979166667 19.8515625  12.5707465277778 19.9279513888889  12.58984375 20.0234375  C 14.5568576388889 19.6796875  16.2326388888889 18.77734375  17.6171875 17.31640625  C 17.5885416666667 17.2877604166667  17.5288628472222 17.2662760416667  17.4381510416667 17.251953125  C 17.3474392361111 17.2376302083333  17.2877604166667 17.2209201388889  17.2591145833333 17.2018229166667  C 17.0872395833333 17.1349826388889  16.97265625 17.0967881944444  16.9153645833333 17.0872395833333  C 16.9249131944444 17.0203993055556  16.9129774305556 16.9583333333333  16.8795572916667 16.9010416666667  C 16.8461371527778 16.84375  16.8079427083333 16.80078125  16.7649739583333 16.7721354166667  C 16.7220052083333 16.7434895833333  16.6623263888889 16.7052951388889  16.5859375 16.6575520833333  C 16.5095486111111 16.6098090277778  16.45703125 16.5763888888889  16.4283854166667 16.5572916666667  C 16.4092881944444 16.5381944444444  16.3758680555556 16.5095486111111  16.328125 16.4713541666667  C 16.2803819444444 16.4331597222222  16.2469618055556 16.4069010416667  16.2278645833333 16.392578125  C 16.2087673611111 16.3782552083333  16.1729600694444 16.3567708333333  16.1204427083333 16.328125  C 16.0679253472222 16.2994791666667  16.02734375 16.2899305555556  15.9986979166667 16.2994791666667  C 15.9700520833333 16.3090277777778  15.9223090277778 16.3138020833333  15.85546875 16.3138020833333  L 15.8125 16.328125  C 15.7838541666667 16.3376736111111  15.7575954861111 16.349609375  15.7337239583333 16.3639322916667  C 15.7098524305556 16.3782552083333  15.68359375 16.392578125  15.6549479166667 16.4069010416667  C 15.6263020833333 16.4212239583333  15.6072048611111 16.435546875  15.59765625 16.4498697916667  C 15.5881076388889 16.4641927083333  15.5881076388889 16.4761284722222  15.59765625 16.4856770833333  C 15.3971354166667 16.3233506944444  15.2252604166667 16.2183159722222  15.08203125 16.1705729166667  C 15.0342881944444 16.1610243055556  14.9817708333333 16.134765625  14.9244791666667 16.091796875  C 14.8671875 16.048828125  14.8170572916667 16.0154079861111  14.7740885416667 15.9915364583333  C 14.7311197916667 15.9676649305556  14.6833767361111 15.9605034722222  14.630859375 15.9700520833333  C 14.5783420138889 15.9796006944444  14.5234375 16.0130208333333  14.4661458333333 16.0703125  C 14.4184027777778 16.1180555555556  14.3897569444444 16.1896701388889  14.3802083333333 16.28515625  C 14.3706597222222 16.3806423611111  14.3611111111111 16.4427083333333  14.3515625 16.4713541666667  C 14.2847222222222 16.4236111111111  14.2847222222222 16.3400607638889  14.3515625 16.220703125  C 14.4184027777778 16.1013454861111  14.4279513888889 16.0130208333333  14.3802083333333 15.9557291666667  C 14.3515625 15.8984375  14.3014322916667 15.876953125  14.2298177083333 15.8912760416667  C 14.158203125 15.9055989583333  14.1009114583333 15.9270833333333  14.0579427083333 15.9557291666667  C 14.0149739583333 15.984375  13.9600694444444 16.0249565972222  13.8932291666667 16.0774739583333  C 13.8263888888889 16.1299913194444  13.7834201388889 16.1610243055556  13.7643229166667 16.1705729166667  C 13.7452256944444 16.1801215277778  13.7046440972222 16.2063802083333  13.642578125 16.2493489583333  C 13.5805121527778 16.2923177083333  13.5399305555556 16.328125  13.5208333333333 16.3567708333333  C 13.4921875 16.3949652777778  13.4635416666667 16.4522569444444  13.4348958333333 16.5286458333333  C 13.40625 16.6050347222222  13.3823784722222 16.6575520833333  13.36328125 16.6861979166667  C 13.3441840277778 16.6480034722222  13.2892795138889 16.6169704861111  13.1985677083333 16.5930989583333  C 13.1078559027778 16.5692274305556  13.0625 16.54296875  13.0625 16.5143229166667  C 13.0815972222222 16.6098090277778  13.1006944444444 16.7769097222222  13.1197916666667 17.015625  C 13.1388888888889 17.2543402777778  13.1627604166667 17.4357638888889  13.19140625 17.5598958333333  C 13.2582465277778 17.8559027777778  13.2009548611111 18.0850694444444  13.01953125 18.2473958333333  C 12.76171875 18.4861111111111  12.6232638888889 18.6770833333333  12.6041666666667 18.8203125  C 12.5659722222222 19.0303819444444  12.6232638888889 19.1545138888889  12.7760416666667 19.1927083333333  C 12.7760416666667 19.2595486111111  12.7378472222222 19.357421875  12.6614583333333 19.486328125  C 12.5850694444444 19.615234375  12.5516493055556 19.7178819444444  12.5611979166667 19.7942708333333  Z " fill-rule="nonzero" fill="#ffffff" stroke="none" transform="matrix(1 0 0 1 639 328 )" />
  </g>
</svg>