<svg id="Layer_1" data-name="Layer 1" xmlns="http://www.w3.org/2000/svg" viewBox="0 0 151.59 149.21"><defs><style>.cls-1{fill:#fded8b;}.cls-2,.cls-6{fill:#74528f;}.cls-3,.cls-7{fill:#959595;}.cls-3{stroke:#231f20;stroke-width:5.93px;}.cls-10,.cls-3,.cls-5,.cls-6,.cls-9{stroke-miterlimit:10;}.cls-4{fill:#c1c0c0;}.cls-10,.cls-5,.cls-9{fill:none;}.cls-10,.cls-5,.cls-6,.cls-9{stroke:#000;}.cls-5{stroke-width:5.95px;}.cls-10,.cls-6{stroke-width:4px;}.cls-8{fill:#bdae68;}.cls-9{stroke-width:1.04px;}</style></defs><path class="cls-1" d="M149.92,24.54C148.07,12.18,132.48,0,117,0c-16.7,0-30.25,11.19-30.25,25,0,13.46,12.89,24.44,29,25a15,15,0,0,1,2.42.13h.29A17.24,17.24,0,0,1,128.21,54c3.12,2.66,5.44,6.63.71,11.25l-3.69,3.59-7.14,7.31a.41.41,0,0,0,0,.59.42.42,0,0,0,.38.11c1.25-.27,3-.65,3.5-.85,21-7.3,32.61-26.73,28.93-48.08a15.69,15.69,0,0,0-1-3.41Z"/><path class="cls-2" d="M108.31,27.78c-.83-.11-1.08-.49-1-1.33l.43-4.46c.08-.87.57-1.16,1.41-1l6.68.76c.68.07,1-.13,1.14-.78a.83.83,0,0,0-.44-1.09l-.2-.05-9-2.3a1,1,0,0,1-.86-1.47l1-3.92a1,1,0,0,1,1-1,.93.93,0,0,1,.44.11L119.4,14c4.22,1.09,6.19,3.74,5.25,7.44l-.89,3.4c-.94,3.63-3.22,4.46-6.41,4.08Zm-2.75,7.44a1,1,0,0,1-.86-1.46l1.1-4.25c.22-.84.62-1.08,1.47-.86l5.93,1.53c.81.2,1.08.62.86,1.46l-1.14,4.25a1,1,0,0,1-1,1,1.21,1.21,0,0,1-.45-.12Z"/><path class="cls-2" d="M128.14,32a1.07,1.07,0,0,1-1-1.16.89.89,0,0,1,.08-.31L130,17.89c.18-.82.6-1.09,1.41-.88l6.19,1.6c.81.21,1,.65.8,1.45L134.7,32.45a1.1,1.1,0,0,1-1.25.93.9.9,0,0,1-.28-.08Zm-2.64,8.38a1,1,0,0,1-1-1,.93.93,0,0,1,.12-.46l1.1-4.25c.22-.84.65-1.07,1.47-.86l6,1.54c.81.2,1.08.62.86,1.46L132.92,41a1,1,0,0,1-1,1,1.21,1.21,0,0,1-.45-.12Z"/><rect class="cls-3" x="108.37" y="103.04" width="17.08" height="19.05" rx="1.69"/><rect class="cls-3" x="2.96" y="103.04" width="17.08" height="19.05" rx="1.69"/><path class="cls-4" d="M55.41,59.87H71.08a39,39,0,0,1,39,39v37.76a9.61,9.61,0,0,1-9.61,9.61H27.15a9.62,9.62,0,0,1-9.62-9.61h0V97.73A37.87,37.87,0,0,1,55.4,59.87h0Z"/><line class="cls-5" x1="63.8" y1="48.78" x2="63.8" y2="59.87"/><circle class="cls-6" cx="63.8" cy="39.9" r="9.06"/><path class="cls-7" d="M110.39,124.24V99.35c0-12.58-6.58-23.81-16.73-30.95L42.73,146.72,105.92,145A144.25,144.25,0,0,0,110.39,124.24Z"/><circle cx="48.73" cy="90.87" r="6"/><circle cx="78.05" cy="90.87" r="6"/><rect class="cls-1" x="32.45" y="110.62" width="60.77" height="16.17" rx="8.08"/><polygon class="cls-8" points="32.62 118.05 93.06 120.31 89.19 126.13 38.06 126.13 32.62 118.05"/><line class="cls-9" x1="41.23" y1="111.81" x2="41.23" y2="124.7"/><line class="cls-9" x1="45.99" y1="111.81" x2="45.99" y2="124.7"/><line class="cls-9" x1="50.76" y1="111.81" x2="50.76" y2="124.7"/><line class="cls-9" x1="55.51" y1="111.81" x2="55.51" y2="124.7"/><line class="cls-9" x1="60.26" y1="111.81" x2="60.26" y2="124.7"/><line class="cls-9" x1="65.02" y1="111.81" x2="65.02" y2="124.7"/><line class="cls-9" x1="69.78" y1="111.81" x2="69.78" y2="124.7"/><line class="cls-9" x1="74.53" y1="111.81" x2="74.53" y2="124.7"/><line class="cls-9" x1="79.3" y1="111.81" x2="79.3" y2="124.7"/><line class="cls-9" x1="84.06" y1="111.81" x2="84.06" y2="124.7"/><rect class="cls-10" x="32.45" y="110.62" width="60.77" height="16.17" rx="8.08"/><path class="cls-5" d="M54.45,59.87H70.12a39,39,0,0,1,39,39v37.76a9.61,9.61,0,0,1-9.61,9.61H26.19a9.61,9.61,0,0,1-9.61-9.61h0V97.73A37.87,37.87,0,0,1,54.44,59.87h0Z"/></svg>