<?xml version="1.0" encoding="UTF-8" standalone="no"?><!DOCTYPE svg PUBLIC "-//W3C//DTD SVG 1.1//EN" "http://www.w3.org/Graphics/SVG/1.1/DTD/svg11.dtd"><svg width="73" height="70" viewBox="0 0 73 70" version="1.1" xmlns="http://www.w3.org/2000/svg" xmlns:xlink="http://www.w3.org/1999/xlink" xml:space="preserve" xmlns:serif="http://www.serif.com/" style="fill-rule:evenodd;clip-rule:evenodd;stroke-miterlimit:10;"><path d="M0.534,68.859c-0.367,0 -0.534,-0.167 -0.534,-0.534l0,-9.751c0,-0.368 0.167,-0.535 0.534,-0.535l4.609,0c2.738,0 3.54,1.203 3.54,2.939l-0,1.937c-0,1.736 -0.802,2.939 -3.54,2.939l-1.737,-0l0,2.504c0,0.368 -0.167,0.534 -0.534,0.534l-2.338,0l0,-0.033Zm2.839,-5.744l1.369,0c0.601,0 0.701,-0.334 0.701,-0.734l0,-0.802c0,-0.401 -0.133,-0.735 -0.701,-0.735l-1.369,0l-0,2.271Z" style="fill:#442e79;fill-rule:nonzero;"/><path d="M11.054,68.859c-0.368,0 -0.535,-0.167 -0.535,-0.534l0,-9.751c0,-0.368 0.167,-0.535 0.535,-0.535l6.979,0c0.367,0 0.534,0.167 0.534,0.535l0,1.77c0,0.367 -0.167,0.534 -0.534,0.534l-4.141,-0l0,1.169l2.939,-0c0.367,-0 0.534,0.167 0.534,0.534l0,1.603c0,0.367 -0.167,0.534 -0.534,0.534l-2.939,0l0,1.303l4.141,-0c0.367,-0 0.534,0.167 0.534,0.534l0,1.77c0,0.367 -0.167,0.534 -0.534,0.534l-6.979,0Z" style="fill:#442e79;fill-rule:nonzero;"/><path d="M23.877,68.859c-2.538,0 -3.707,-0.968 -3.707,-3.072l0,-4.675c0,-2.104 1.169,-3.073 3.707,-3.073l3.74,0c0.367,0 0.534,0.167 0.534,0.535l0,1.803c0,0.367 -0.167,0.534 -0.534,0.534l-3.139,0c-0.634,0 -0.935,0.234 -0.935,0.735l0,3.607c0,0.5 0.234,0.734 0.701,0.734l1.47,0l-0,-2.337c-0,-0.368 0.167,-0.535 0.534,-0.535l2.338,0c0.367,0 0.534,0.167 0.534,0.535l-0,4.641c-0,0.368 -0.167,0.535 -0.534,0.535l-4.709,0.033Z" style="fill:#442e79;fill-rule:nonzero;"/><path d="M33.762,68.859l-2.204,0c-0.368,0 -0.535,-0.167 -0.535,-0.534l0,-3.974c0.067,-0.835 0.234,-1.636 0.601,-2.405l1.303,-3.406c0.1,-0.334 0.434,-0.534 0.768,-0.501l4.041,0c0.334,-0.033 0.667,0.167 0.734,0.501l1.303,3.406c0.334,0.769 0.534,1.57 0.601,2.405l-0,3.974c-0,0.367 -0.167,0.534 -0.535,0.534l-2.27,0c-0.401,0 -0.601,-0.167 -0.601,-0.534l-0,-2.104l-2.672,-0l-0,2.104c-0,0.367 -0.167,0.534 -0.534,0.534Zm0.701,-5.376l2.371,-0l-0.701,-2.271c-0.067,-0.167 -0.167,-0.267 -0.301,-0.267l-0.367,-0c-0.134,-0 -0.201,0.066 -0.301,0.267l-0.701,2.271Z" style="fill:#442e79;fill-rule:nonzero;"/><path d="M42.745,68.859c-0.368,0 -0.535,-0.167 -0.535,-0.534l0,-9.751c0,-0.368 0.167,-0.535 0.535,-0.535l4.809,0c1.97,0 2.871,0.735 2.871,2.305l0,0.734c0,0.835 -0.3,1.369 -0.868,1.637c1.303,0.133 1.904,0.868 1.904,2.337l-0,1.369c-0,1.67 -0.935,2.471 -2.906,2.471l-5.81,-0.033Zm2.838,-6.645l1.269,-0c0.401,-0 0.568,-0.201 0.568,-0.601l-0,-0.435c-0,-0.4 -0.167,-0.601 -0.568,-0.601l-1.269,0l0,1.637Zm0,4.107l1.971,0c0.4,0 0.567,-0.2 0.567,-0.601l0,-0.601c0,-0.401 -0.167,-0.601 -0.567,-0.601l-1.971,-0l0,1.803Z" style="fill:#442e79;fill-rule:nonzero;"/><path d="M57.739,69.093c-3.74,-0 -4.675,-1.236 -4.675,-3.072l-0,-5.11c-0,-1.836 0.935,-3.072 4.675,-3.072c3.74,-0 4.642,1.236 4.642,3.072l-0,5.11c-0,1.836 -0.902,3.072 -4.642,3.072Zm-0,-2.905c1.102,-0 1.269,-0.301 1.269,-0.702l-0,-4.04c-0,-0.401 -0.167,-0.702 -1.269,-0.702c-1.102,0 -1.269,0.301 -1.269,0.702l-0,4.04c-0,0.401 0.167,0.702 1.269,0.702Z" style="fill:#442e79;fill-rule:nonzero;"/><path d="M67.29,68.859c-0.368,0 -0.535,-0.167 -0.535,-0.534l0,-7.38l-2.204,-0c-0.367,-0 -0.534,-0.167 -0.534,-0.535l-0,-1.803c-0,-0.367 0.167,-0.534 0.534,-0.534l7.915,-0c0.367,-0 0.534,0.167 0.534,0.534l-0,1.803c-0,0.368 -0.167,0.535 -0.534,0.535l-2.204,-0l-0,7.38c-0,0.367 -0.167,0.534 -0.535,0.534l-2.437,0Z" style="fill:#442e79;fill-rule:nonzero;"/><path d="M65.453,8.182c-0.635,-4.108 -5.811,-8.182 -10.987,-8.182c-5.577,0 -10.085,3.74 -10.085,8.349c0,4.508 4.308,8.148 9.684,8.348c0.268,0 0.535,0 0.802,0.034l0.1,-0c1.202,0.1 2.338,0.534 3.239,1.302c1.036,0.902 1.804,2.204 0.234,3.74l-1.236,1.202l-2.371,2.438c-0.066,0.067 -0.066,0.134 0,0.2c0.034,0.034 0.067,0.034 0.134,0.034c0.401,-0.1 0.968,-0.234 1.169,-0.267c7.013,-2.438 10.886,-8.917 9.651,-16.063c-0.067,-0.367 -0.201,-0.768 -0.334,-1.135Z" style="fill:#fded8b;fill-rule:nonzero;"/><path d="M51.561,9.284c-0.267,-0.034 -0.367,-0.167 -0.334,-0.435l0.133,-1.502c0.034,-0.301 0.201,-0.401 0.468,-0.334l2.237,0.267c0.234,0.033 0.334,-0.033 0.368,-0.267c0.067,-0.134 -0,-0.301 -0.134,-0.368c-0.033,0 -0.033,0 -0.067,-0.033l-3.005,-0.768c-0.2,0 -0.334,-0.167 -0.334,-0.334c-0,-0.067 -0,-0.1 0.033,-0.134l0.334,-1.302c0,-0.2 0.167,-0.334 0.334,-0.334c0.067,0 0.1,0 0.134,0.034l3.506,0.901c1.403,0.368 2.071,1.236 1.737,2.471l-0.301,1.136c-0.3,1.202 -1.068,1.503 -2.137,1.369l-2.972,-0.367Zm-0.935,2.471c-0.201,-0 -0.334,-0.167 -0.334,-0.334c-0,-0.067 -0,-0.1 0.033,-0.134l0.368,-1.402c0.066,-0.267 0.2,-0.368 0.501,-0.301l1.97,0.501c0.267,0.067 0.367,0.2 0.3,0.501l-0.367,1.403c-0,0.2 -0.167,0.334 -0.334,0.334c-0.067,-0 -0.1,-0 -0.134,-0.034l-2.003,-0.534Z" style="fill:#74528f;fill-rule:nonzero;"/><path d="M58.173,10.686c-0.2,-0.033 -0.334,-0.2 -0.334,-0.401c-0,-0.033 -0,-0.066 0.033,-0.1l0.902,-4.207c0.067,-0.268 0.2,-0.368 0.468,-0.301l2.07,0.534c0.267,0.067 0.334,0.201 0.267,0.501l-1.235,4.141c-0.034,0.201 -0.201,0.334 -0.401,0.301c-0.034,-0 -0.067,-0 -0.1,-0.034l-1.67,-0.434Zm-0.868,2.805c-0.201,0 -0.334,-0.167 -0.334,-0.334c-0,-0.066 -0,-0.1 0.033,-0.167l0.367,-1.402c0.067,-0.267 0.201,-0.368 0.501,-0.301l2.004,0.501c0.267,0.067 0.367,0.201 0.301,0.501l-0.401,1.403c-0,0.2 -0.167,0.334 -0.334,0.334c-0.067,-0 -0.1,-0 -0.134,-0.034l-2.003,-0.501Z" style="fill:#74528f;fill-rule:nonzero;"/><path d="M52.129,34.396l4.575,0c0.3,0 0.567,0.267 0.567,0.568l0,5.243c0,0.3 -0.267,0.567 -0.567,0.567l-4.575,0c-0.301,0 -0.568,-0.267 -0.568,-0.567l-0,-5.243c-0,-0.301 0.267,-0.568 0.568,-0.568Z" style="fill:#959595;fill-rule:nonzero;stroke:#231f20;stroke-width:1.98px;"/><path d="M16.931,34.396l4.575,0c0.3,0 0.568,0.267 0.568,0.568l-0,5.243c-0,0.3 -0.268,0.567 -0.568,0.567l-4.575,0c-0.301,0 -0.568,-0.267 -0.568,-0.567l0,-5.243c0,-0.301 0.267,-0.568 0.568,-0.568Z" style="fill:#959595;fill-rule:nonzero;stroke:#231f20;stroke-width:1.98px;"/><path d="M33.895,20.003l5.243,0c7.18,0 13.024,5.844 13.024,13.024l-0,12.623c-0,1.77 -1.436,3.206 -3.206,3.206l-24.511,-0c-1.77,-0 -3.206,-1.436 -3.206,-3.206l-0,-13.024c-0,-6.979 5.677,-12.623 12.656,-12.623Z" style="fill:#c1c0c0;fill-rule:nonzero;"/><path d="M36.7,16.296l0,3.707" style="fill:none;fill-rule:nonzero;stroke:#000;stroke-width:1.99px;"/><circle cx="36.7" cy="13.324" r="3.039" style="fill:#74528f;stroke:#000;stroke-width:1.34px;"/><path d="M52.262,41.476l0,-8.315c0,-4.208 -2.204,-7.948 -5.577,-10.353l-16.997,26.148l21.071,-0.534c0.668,-2.271 1.169,-4.575 1.503,-6.946Z" style="fill:#959595;fill-rule:nonzero;"/><circle cx="31.658" cy="30.355" r="2.004"/><circle cx="41.442" cy="30.355" r="2.004"/><path d="M28.919,36.934l14.894,0c1.503,0 2.705,1.202 2.705,2.705c0,1.503 -1.202,2.705 -2.705,2.705l-14.894,0c-1.502,0 -2.704,-1.202 -2.704,-2.705c-0,-1.503 1.202,-2.705 2.704,-2.705Z" style="fill:#fded8b;fill-rule:nonzero;"/><path d="M26.281,39.439l20.171,0.734l-1.269,1.937l-17.098,0l-1.804,-2.671Z" style="fill:#bdae68;fill-rule:nonzero;"/><path d="M29.153,37.335l0,4.308" style="fill:none;fill-rule:nonzero;stroke:#000;stroke-width:0.35px;"/><path d="M30.756,37.335l0,4.308" style="fill:none;fill-rule:nonzero;stroke:#000;stroke-width:0.35px;"/><path d="M32.326,37.335l-0,4.308" style="fill:none;fill-rule:nonzero;stroke:#000;stroke-width:0.35px;"/><path d="M33.929,37.335l-0,4.308" style="fill:none;fill-rule:nonzero;stroke:#000;stroke-width:0.35px;"/><path d="M35.498,37.335l0,4.308" style="fill:none;fill-rule:nonzero;stroke:#000;stroke-width:0.35px;"/><path d="M37.101,37.335l0,4.308" style="fill:none;fill-rule:nonzero;stroke:#000;stroke-width:0.35px;"/><path d="M38.704,37.335l0,4.308" style="fill:none;fill-rule:nonzero;stroke:#000;stroke-width:0.35px;"/><path d="M40.274,37.335l-0,4.308" style="fill:none;fill-rule:nonzero;stroke:#000;stroke-width:0.35px;"/><path d="M41.876,37.335l0,4.308" style="fill:none;fill-rule:nonzero;stroke:#000;stroke-width:0.35px;"/><path d="M43.446,37.335l0,4.308" style="fill:none;fill-rule:nonzero;stroke:#000;stroke-width:0.35px;"/><path d="M28.919,36.934l14.894,0c1.503,0 2.705,1.202 2.705,2.705c0,1.503 -1.202,2.705 -2.705,2.705l-14.894,0c-1.502,0 -2.704,-1.202 -2.704,-2.705c-0,-1.503 1.202,-2.705 2.704,-2.705Z" style="fill:none;fill-rule:nonzero;stroke:#000;stroke-width:1.34px;"/><path d="M33.561,20.003l5.243,0c7.18,0 13.024,5.844 13.024,13.024l-0,12.623c-0,1.77 -1.436,3.206 -3.206,3.206l-24.478,-0c-1.77,-0 -3.206,-1.436 -3.206,-3.206l0,-13.024c0,-6.979 5.644,-12.623 12.623,-12.623Z" style="fill:none;fill-rule:nonzero;stroke:#000;stroke-width:1.99px;"/></svg>
