<?xml version="1.0" encoding="utf-8"?>
<!-- Generator: Adobe Illustrator 24.1.3, SVG Export Plug-In . SVG Version: 6.00 Build 0)  -->
<svg version="1.1" id="Layer_1" xmlns="http://www.w3.org/2000/svg" xmlns:xlink="http://www.w3.org/1999/xlink" x="0px" y="0px"
	 viewBox="0 0 218.6 206.9" style="enable-background:new 0 0 218.6 206.9;" xml:space="preserve">
<style type="text/css">
	.st0{fill:#442E79;}
	.st1{fill:#FDED8B;}
	.st2{fill:#74528F;}
	.st3{fill:#959595;stroke:#231F20;stroke-width:5.93;stroke-miterlimit:10;}
	.st4{fill:#C1C0C0;}
	.st5{fill:none;stroke:#000000;stroke-width:5.95;stroke-miterlimit:10;}
	.st6{fill:#74528F;stroke:#000000;stroke-width:4;stroke-miterlimit:10;}
	.st7{fill:#959595;}
	.st8{fill:#BDAE68;}
	.st9{fill:none;stroke:#000000;stroke-width:1.04;stroke-miterlimit:10;}
	.st10{fill:none;stroke:#000000;stroke-width:4;stroke-miterlimit:10;}
</style>
<path class="st0" d="M1.6,206.2c-1.1,0-1.6-0.5-1.6-1.6v-29.2c0-1.1,0.5-1.6,1.6-1.6h13.8c8.2,0,10.6,3.6,10.6,8.8v5.8
	c0,5.2-2.4,8.8-10.6,8.8h-5.2v7.5c0,1.1-0.5,1.6-1.6,1.6H1.6z M10.1,189h4.1c1.8,0,2.1-1,2.1-2.2v-2.4c0-1.2-0.4-2.2-2.1-2.2h-4.1
	V189z"/>
<path class="st0" d="M33.1,206.2c-1.1,0-1.6-0.5-1.6-1.6v-29.2c0-1.1,0.5-1.6,1.6-1.6H54c1.1,0,1.6,0.5,1.6,1.6v5.3
	c0,1.1-0.5,1.6-1.6,1.6H41.6v3.5h8.8c1.1,0,1.6,0.5,1.6,1.6v4.8c0,1.1-0.5,1.6-1.6,1.6h-8.8v3.9H54c1.1,0,1.6,0.5,1.6,1.6v5.3
	c0,1.1-0.5,1.6-1.6,1.6L33.1,206.2z"/>
<path class="st0" d="M71.5,206.2c-7.6,0-11.1-2.9-11.1-9.2v-14c0-6.3,3.5-9.2,11.1-9.2h11.2c1.1,0,1.6,0.5,1.6,1.6v5.4
	c0,1.1-0.5,1.6-1.6,1.6h-9.4c-1.9,0-2.8,0.7-2.8,2.2v10.8c0,1.5,0.7,2.2,2.1,2.2h4.4v-7c0-1.1,0.5-1.6,1.6-1.6h7
	c1.1,0,1.6,0.5,1.6,1.6v13.9c0,1.1-0.5,1.6-1.6,1.6L71.5,206.2z"/>
<path class="st0" d="M101.1,206.2h-6.6c-1.1,0-1.6-0.5-1.6-1.6v-11.9c0.2-2.5,0.7-4.9,1.8-7.2l3.9-10.2c0.3-1,1.3-1.6,2.3-1.5H113
	c1-0.1,2,0.5,2.2,1.5l3.9,10.2c1,2.3,1.6,4.7,1.8,7.2v11.9c0,1.1-0.5,1.6-1.6,1.6h-6.8c-1.2,0-1.8-0.5-1.8-1.6v-6.3h-8v6.3
	C102.7,205.7,102.2,206.2,101.1,206.2z M103.2,190.1h7.1l-2.1-6.8c-0.2-0.5-0.5-0.8-0.9-0.8h-1.1c-0.4,0-0.6,0.2-0.9,0.8
	L103.2,190.1z"/>
<path class="st0" d="M128,206.2c-1.1,0-1.6-0.5-1.6-1.6v-29.2c0-1.1,0.5-1.6,1.6-1.6h14.4c5.9,0,8.6,2.2,8.6,6.9v2.2
	c0,2.5-0.9,4.1-2.6,4.9c3.9,0.4,5.7,2.6,5.7,7v4.1c0,5-2.8,7.4-8.7,7.4L128,206.2z M136.5,186.3h3.8c1.2,0,1.7-0.6,1.7-1.8v-1.3
	c0-1.2-0.5-1.8-1.7-1.8h-3.8V186.3z M136.5,198.6h5.9c1.2,0,1.7-0.6,1.7-1.8V195c0-1.2-0.5-1.8-1.7-1.8h-5.9V198.6z"/>
<path class="st0" d="M172.9,206.9c-11.2,0-14-3.7-14-9.2v-15.3c0-5.5,2.8-9.2,14-9.2s13.9,3.7,13.9,9.2v15.3
	C186.8,203.2,184.1,206.9,172.9,206.9z M172.9,198.2c3.3,0,3.8-0.9,3.8-2.1V184c0-1.2-0.5-2.1-3.8-2.1s-3.8,0.9-3.8,2.1v12.1
	C169.1,197.3,169.6,198.2,172.9,198.2z"/>
<path class="st0" d="M201.5,206.2c-1.1,0-1.6-0.5-1.6-1.6v-22.1h-6.6c-1.1,0-1.6-0.5-1.6-1.6v-5.4c0-1.1,0.5-1.6,1.6-1.6H217
	c1.1,0,1.6,0.5,1.6,1.6v5.4c0,1.1-0.5,1.6-1.6,1.6h-6.6v22.1c0,1.1-0.5,1.6-1.6,1.6H201.5z"/>
<path class="st1" d="M196,24.5C194.1,12.2,178.6,0,163.1,0c-16.7,0-30.2,11.2-30.2,25c0,13.5,12.9,24.4,29,25c0.8,0,1.6,0,2.4,0.1
	h0.3c3.6,0.3,7,1.6,9.7,3.9c3.1,2.7,5.4,6.6,0.7,11.2l-3.7,3.6l-7.1,7.3c-0.2,0.2-0.2,0.4,0,0.6c0.1,0.1,0.2,0.1,0.4,0.1
	c1.2-0.3,2.9-0.7,3.5-0.8c21-7.3,32.6-26.7,28.9-48.1C196.8,26.8,196.4,25.6,196,24.5L196,24.5z"/>
<path class="st2" d="M154.4,27.8c-0.8-0.1-1.1-0.5-1-1.3l0.4-4.5c0.1-0.9,0.6-1.2,1.4-1l6.7,0.8c0.7,0.1,1-0.1,1.1-0.8
	c0.2-0.4,0-0.9-0.4-1.1c-0.1,0-0.1,0-0.2-0.1l-9-2.3c-0.6,0-1-0.5-1-1c0-0.2,0-0.3,0.1-0.4l1-3.9c0-0.6,0.5-1,1-1
	c0.2,0,0.3,0,0.4,0.1l10.5,2.7c4.2,1.1,6.2,3.7,5.2,7.4l-0.9,3.4c-0.9,3.6-3.2,4.5-6.4,4.1L154.4,27.8z M151.6,35.2
	c-0.6,0-1-0.5-1-1c0-0.2,0-0.3,0.1-0.4l1.1-4.2c0.2-0.8,0.6-1.1,1.5-0.9l5.9,1.5c0.8,0.2,1.1,0.6,0.9,1.5l-1.1,4.2c0,0.6-0.5,1-1,1
	c-0.2,0-0.3,0-0.4-0.1L151.6,35.2z"/>
<path class="st2" d="M174.2,32c-0.6-0.1-1-0.6-1-1.2c0-0.1,0-0.2,0.1-0.3l2.7-12.6c0.2-0.8,0.6-1.1,1.4-0.9l6.2,1.6
	c0.8,0.2,1,0.6,0.8,1.5l-3.7,12.4c-0.1,0.6-0.6,1-1.2,0.9c-0.1,0-0.2,0-0.3-0.1L174.2,32z M171.6,40.4c-0.6,0-1-0.5-1-1
	c0-0.2,0-0.3,0.1-0.5l1.1-4.2c0.2-0.8,0.6-1.1,1.5-0.9l6,1.5c0.8,0.2,1.1,0.6,0.9,1.5L179,41c0,0.6-0.5,1-1,1c-0.2,0-0.3,0-0.4-0.1
	L171.6,40.4z"/>
<path class="st3" d="M156.1,103h13.7c0.9,0,1.7,0.8,1.7,1.7v15.7c0,0.9-0.8,1.7-1.7,1.7h-13.7c-0.9,0-1.7-0.8-1.7-1.7v-15.7
	C154.4,103.8,155.2,103,156.1,103z"/>
<path class="st3" d="M50.7,103h13.7c0.9,0,1.7,0.8,1.7,1.7v15.7c0,0.9-0.8,1.7-1.7,1.7H50.7c-0.9,0-1.7-0.8-1.7-1.7v-15.7
	C49,103.8,49.8,103,50.7,103z"/>
<path class="st4" d="M101.5,59.9h15.7c21.5,0,39,17.5,39,39v37.8c0,5.3-4.3,9.6-9.6,9.6l0,0H73.2c-5.3,0-9.6-4.3-9.6-9.6l0,0V97.7
	C63.6,76.8,80.6,59.9,101.5,59.9L101.5,59.9L101.5,59.9z"/>
<line class="st5" x1="109.9" y1="48.8" x2="109.9" y2="59.9"/>
<circle class="st6" cx="109.9" cy="39.9" r="9.1"/>
<path class="st7" d="M156.5,124.2V99.3c0-12.6-6.6-23.8-16.7-31l-50.9,78.3L152,145C154,138.2,155.5,131.3,156.5,124.2z"/>
<circle cx="94.8" cy="90.9" r="6"/>
<circle cx="124.1" cy="90.9" r="6"/>
<path class="st1" d="M86.6,110.6h44.6c4.5,0,8.1,3.6,8.1,8.1v0c0,4.5-3.6,8.1-8.1,8.1H86.6c-4.5,0-8.1-3.6-8.1-8.1v0
	C78.5,114.2,82.1,110.6,86.6,110.6z"/>
<polygon class="st8" points="78.7,118.1 139.1,120.3 135.3,126.1 84.1,126.1 "/>
<line class="st9" x1="87.3" y1="111.8" x2="87.3" y2="124.7"/>
<line class="st9" x1="92.1" y1="111.8" x2="92.1" y2="124.7"/>
<line class="st9" x1="96.8" y1="111.8" x2="96.8" y2="124.7"/>
<line class="st9" x1="101.6" y1="111.8" x2="101.6" y2="124.7"/>
<line class="st9" x1="106.3" y1="111.8" x2="106.3" y2="124.7"/>
<line class="st9" x1="111.1" y1="111.8" x2="111.1" y2="124.7"/>
<line class="st9" x1="115.9" y1="111.8" x2="115.9" y2="124.7"/>
<line class="st9" x1="120.6" y1="111.8" x2="120.6" y2="124.7"/>
<line class="st9" x1="125.4" y1="111.8" x2="125.4" y2="124.7"/>
<line class="st9" x1="130.1" y1="111.8" x2="130.1" y2="124.7"/>
<path class="st10" d="M86.6,110.6h44.6c4.5,0,8.1,3.6,8.1,8.1v0c0,4.5-3.6,8.1-8.1,8.1H86.6c-4.5,0-8.1-3.6-8.1-8.1v0
	C78.5,114.2,82.1,110.6,86.6,110.6z"/>
<path class="st5" d="M100.5,59.9h15.7c21.5,0,39,17.5,39,39v37.8c0,5.3-4.3,9.6-9.6,9.6l0,0H72.3c-5.3,0-9.6-4.3-9.6-9.6l0,0V97.7
	C62.7,76.8,79.6,59.9,100.5,59.9L100.5,59.9L100.5,59.9z"/>
</svg>
