<?xml version="1.0" encoding="utf-8"?>
<svg version="1.1" xmlns:xlink="http://www.w3.org/1999/xlink" width="219px" height="229px" xmlns="http://www.w3.org/2000/svg">
  <defs>
    <path d="M 0 0  L 103.76 0  L 103.76 109.29  L 0 109.29  Z " fill-rule="evenodd" fill="black" id="path1" />
    <clipPath id="clip2">
      <use xlink:href="#path1" />
    </clipPath>
    <defs>
      <style>.cls-1{fill:#aa4425;}.cls-2{fill:#ff8e09;}.cls-3,.cls-4,.cls-5,.cls-6{fill:none;stroke:#683c96;}.cls-3,.cls-4,.cls-5{stroke-miterlimit:10;}.cls-3{stroke-width:5px;}.cls-4,.cls-6{stroke-width:4px;}.cls-5{stroke-width:3px;}.cls-6{stroke-linecap:round;stroke-linejoin:round;}</style>
    </defs>
    <circle class="cls-1" cx="51.38" cy="57.91" r="51.38" />
    <circle class="cls-2" cx="52.38" cy="51.38" r="51.38" />
    <path class="cls-3" d="M65.7,74.89,38.44,74.7a4.09,4.09,0,0,1-3.93-3.11L28.73,47.87A4.07,4.07,0,0,1,31.78,43a3.8,3.8,0,0,1,.95-.11H72.08a4.09,4.09,0,0,1,4,4.13A3.81,3.81,0,0,1,76,48L69.64,71.9A4,4,0,0,1,65.7,74.89Z" />
    <circle class="cls-4" cx="40.97" cy="53.46" r="4.15" />
    <circle class="cls-4" cx="63.13" cy="53.46" r="4.15" />
    <circle class="cls-4" cx="52.75" cy="31.59" r="3.72" />
    <line class="cls-5" x1="52.75" y1="42.83" x2="52.75" y2="35.31" />
    <path class="cls-6" d="M45,65.21a11.43,11.43,0,0,0,14.47,0" />
    <filter x="-50.00%" y="-50.00%" width="200.00%" height="200.00%" filterUnits="objectBoundingBox" id="filter3">
      <feColorMatrix type="matrix" values="1 0 0 0 0  0 1 0 0 0  0 0 1 0 0  0 0 0 1 0  " in="SourceGraphic" />
    </filter>
    <filter x="295px" y="179px" width="219px" height="229px" filterUnits="userSpaceOnUse" id="filter4">
      <feOffset dx="2" dy="2" in="SourceAlpha" result="shadowOffsetInner" />
      <feGaussianBlur stdDeviation="4" in="shadowOffsetInner" result="shadowGaussian" />
      <feComposite in2="shadowGaussian" operator="atop" in="SourceAlpha" result="shadowComposite" />
      <feColorMatrix type="matrix" values="0 0 0 0 0.129411764705882  0 0 0 0 0.129411764705882  0 0 0 0 0.129411764705882  0 0 0 0.619607843137255 0  " in="shadowComposite" />
    </filter>
    <g id="widget5">
      <g transform="matrix(1.94894317869887 0 0 1.94894317869887 301.388827889102 185 )" clip-path="url(#clip2)" filter="url(#filter3)">
        <circle class="cls-1" cx="51.38" cy="57.91" r="51.38" />
        <circle class="cls-2" cx="52.38" cy="51.38" r="51.38" />
        <path class="cls-3" d="M65.7,74.89,38.44,74.7a4.09,4.09,0,0,1-3.93-3.11L28.73,47.87A4.07,4.07,0,0,1,31.78,43a3.8,3.8,0,0,1,.95-.11H72.08a4.09,4.09,0,0,1,4,4.13A3.81,3.81,0,0,1,76,48L69.64,71.9A4,4,0,0,1,65.7,74.89Z" />
        <circle class="cls-4" cx="40.97" cy="53.46" r="4.15" />
        <circle class="cls-4" cx="63.13" cy="53.46" r="4.15" />
        <circle class="cls-4" cx="52.75" cy="31.59" r="3.72" />
        <line class="cls-5" x1="52.75" y1="42.83" x2="52.75" y2="35.31" />
        <path class="cls-6" d="M45,65.21a11.43,11.43,0,0,0,14.47,0" />
      </g>
    </g>
  </defs>
  <g transform="matrix(1 0 0 1 -295 -179 )">
    <use xlink:href="#widget5" filter="url(#filter4)" />
    <use xlink:href="#widget5" />
  </g>
</svg>