<?xml version="1.0" encoding="UTF-8" standalone="no"?>
<!DOCTYPE svg PUBLIC "-//W3C//DTD SVG 1.1//EN" "http://www.w3.org/Graphics/SVG/1.1/DTD/svg11.dtd">
<svg width="12"
	height="25"
	viewBox="0 0 12 25"
	version="1.1"
	xmlns="http://www.w3.org/2000/svg"
	xmlns:xlink="http://www.w3.org/1999/xlink"
	xml:space="preserve"
	xmlns:serif="http://www.serif.com/"
>
		<path id="mouse"
			d="M7,0l-2,0c-2.761,0 -5,2.239 -5,5l0,6c0,2.761 2.239,5 5,5l2,0c2.761,0 5,-2.239 5,-5l0,-6c0,-2.761 -2.239,-5 -5,-5Zm4,5l0,6c-0.002,2.208 -1.792,3.998 -4,4l-2,0c-2.208,-0.002 -3.998,-1.792 -4,-4l0,-6c0.002,-2.208 1.792,-3.998 4,-4l2,0c2.208,0.002 3.998,1.792 4,4Zm-3.5,-1c-0.001,-0.828 -0.672,-1.499 -1.5,-1.5c-0.828,0.001 -1.499,0.672 -1.5,1.5l0,1c0,0.828 0.672,1.5 1.5,1.5c0.828,0 1.5,-0.672 1.5,-1.5l0,-1Zm-1,0l0,1c0,0.276 -0.224,0.5 -0.5,0.5c-0.276,0 -0.5,-0.224 -0.5,-0.5l0,-1c0,-0.276 0.224,-0.5 0.5,-0.5c0.276,0 0.5,0.224 0.5,0.5Z"
			fill="#dcdcdc"
		/>
		<path id="dash2"
			d="M10.898,20.368c0.107,-0.103 0.107,-0.267 0.003,-0.368l-0.159,-0.153c-0.105,-0.101 -0.275,-0.101 -0.379,0l-4.362,4.205l-4.364,-4.203c-0.105,-0.101 -0.274,-0.101 -0.379,0l-0.159,0.153c-0.105,0.101 -0.105,0.265 0,0.366l4.71,4.54c0.105,0.101 0.275,0.101 0.379,-0l4.71,-4.54Z"
			fill="#dcdcdc"
		>
			<animate
				attributeType="XML"
				attributeName="fill"
				values="#dcdcdc;#fff;#dcdcdc;#dcdcdc"
				dur="0.8s"
				repeatCount="indefinite"
			/>
		</path>
		<path id="dash1"
			d="M10.903,17.249c0.102,0.099 0.102,0.263 -0.002,0.364l-4.71,4.54c-0.105,0.101 -0.275,0.101 -0.38,-0l-4.71,-4.54c-0.104,-0.101 -0.104,-0.265 0,-0.366l0.159,-0.152c0.105,-0.101 0.274,-0.101 0.379,-0l4.362,4.204l4.364,-4.202c0.105,-0.101 0.274,-0.101 0.379,-0l0.159,0.152Z"
			fill="#dcdcdc"
		>
			<animate
				attributeType="XML"
				attributeName="fill"
				values="#fff;#dcdcdc;#dcdcdc;#dcdcdc"
				dur="0.8s"
				repeatCount="indefinite"
			/>
		</path>
</svg>
