<?xml version="1.0" encoding="utf-8"?>
<svg version="1.1" xmlns:xlink="http://www.w3.org/1999/xlink" width="18px" height="18px" xmlns="http://www.w3.org/2000/svg">
  <g transform="matrix(1 0 0 1 -82 -551 )">
    <path d="M 3.375 0  L 14.625 0  C 15.5546875 0  16.349609375 0.330078124999999  17.009765625 0.990234375000001  C 17.669921875 1.650390625  18 2.4453125  18 3.375  L 18 14.625  C 18 15.5546875  17.669921875 16.349609375  17.009765625 17.009765625  C 16.349609375 17.669921875  15.5546875 18  14.625 18  L 12.421875 18  L 12.421875 11.02734375  L 14.75390625 11.02734375  L 15.10546875 8.30859375  L 12.421875 8.30859375  L 12.421875 6.57421875  C 12.421875 6.13671875  12.513671875 5.80859375  12.697265625 5.58984375  C 12.880859375 5.37109375  13.23828125 5.26171875  13.76953125 5.26171875  L 15.19921875 5.25  L 15.19921875 2.82421875  C 14.70703125 2.75390625  14.01171875 2.71875  13.11328125 2.71875  C 12.05078125 2.71875  11.201171875 3.03125  10.564453125 3.65625  C 9.927734375 4.28125  9.609375 5.1640625  9.609375 6.3046875  L 9.609375 8.30859375  L 7.265625 8.30859375  L 7.265625 11.02734375  L 9.609375 11.02734375  L 9.609375 18  L 3.375 18  C 2.4453125 18  1.650390625 17.669921875  0.990234375 17.009765625  C 0.330078125 16.349609375  0 15.5546875  0 14.625  L 0 3.375  C 0 2.4453125  0.330078125 1.650390625  0.990234375 0.990234375000001  C 1.650390625 0.330078124999999  2.4453125 0  3.375 0  Z " fill-rule="nonzero" fill="#ffffff" stroke="none" transform="matrix(1 0 0 1 82 551 )" />
  </g>
</svg>