<?xml version="1.0" encoding="utf-8"?>
<svg version="1.1" xmlns:xlink="http://www.w3.org/1999/xlink" width="18px" height="18px" xmlns="http://www.w3.org/2000/svg">
  <g transform="matrix(1 0 0 1 -38 -551 )">
    <path d="M 13.76953125 6.92578125  C 14.26171875 6.57421875  14.671875 6.1484375  15 5.6484375  C 14.5625 5.84375  14.08984375 5.9765625  13.58203125 6.046875  C 14.11328125 5.734375  14.4765625 5.27734375  14.671875 4.67578125  C 14.1640625 4.97265625  13.640625 5.171875  13.1015625 5.2734375  C 12.625 4.7578125  12.02734375 4.5  11.30859375 4.5  C 10.62890625 4.5  10.048828125 4.740234375  9.568359375 5.220703125  C 9.087890625 5.701171875  8.84765625 6.28125  8.84765625 6.9609375  C 8.84765625 7.1875  8.8671875 7.375  8.90625 7.5234375  C 7.8984375 7.46875  6.953125 7.21484375  6.0703125 6.76171875  C 5.1875 6.30859375  4.4375 5.703125  3.8203125 4.9453125  C 3.59375 5.3359375  3.48046875 5.75  3.48046875 6.1875  C 3.48046875 7.078125  3.8359375 7.76171875  4.546875 8.23828125  C 4.1796875 8.23046875  3.7890625 8.12890625  3.375 7.93359375  L 3.375 7.95703125  C 3.375 8.54296875  3.5703125 9.064453125  3.9609375 9.521484375  C 4.3515625 9.978515625  4.83203125 10.26171875  5.40234375 10.37109375  C 5.17578125 10.43359375  4.9765625 10.46484375  4.8046875 10.46484375  C 4.703125 10.46484375  4.55078125 10.44921875  4.34765625 10.41796875  C 4.51171875 10.91015625  4.802734375 11.31640625  5.220703125 11.63671875  C 5.638671875 11.95703125  6.11328125 12.12109375  6.64453125 12.12890625  C 5.73828125 12.83203125  4.71875 13.18359375  3.5859375 13.18359375  C 3.3828125 13.18359375  3.1875 13.171875  3 13.1484375  C 4.15625 13.8828125  5.4140625 14.25  6.7734375 14.25  C 7.6484375 14.25  8.46875 14.111328125  9.234375 13.833984375  C 10 13.556640625  10.65625 13.185546875  11.203125 12.720703125  C 11.75 12.255859375  12.220703125 11.720703125  12.615234375 11.115234375  C 13.009765625 10.509765625  13.302734375 9.876953125  13.494140625 9.216796875  C 13.685546875 8.556640625  13.78125 7.8984375  13.78125 7.2421875  C 13.78125 7.1015625  13.77734375 6.99609375  13.76953125 6.92578125  Z M 17.009765625 0.990234375000001  C 17.669921875 1.650390625  18 2.4453125  18 3.375  L 18 14.625  C 18 15.5546875  17.669921875 16.349609375  17.009765625 17.009765625  C 16.349609375 17.669921875  15.5546875 18  14.625 18  L 3.375 18  C 2.4453125 18  1.650390625 17.669921875  0.990234375 17.009765625  C 0.330078125 16.349609375  0 15.5546875  0 14.625  L 0 3.375  C 0 2.4453125  0.330078125 1.650390625  0.990234375 0.990234375000001  C 1.650390625 0.330078124999999  2.4453125 0  3.375 0  L 14.625 0  C 15.5546875 0  16.349609375 0.330078124999999  17.009765625 0.990234375000001  Z " fill-rule="nonzero" fill="#ffffff" stroke="none" transform="matrix(1 0 0 1 38 551 )" />
  </g>
</svg>