<?xml version="1.0" encoding="UTF-8" standalone="no"?><!DOCTYPE svg PUBLIC "-//W3C//DTD SVG 1.1//EN" "http://www.w3.org/Graphics/SVG/1.1/DTD/svg11.dtd"><svg width="100%" height="100%" viewBox="0 0 54 45" version="1.1" xmlns="http://www.w3.org/2000/svg" xmlns:xlink="http://www.w3.org/1999/xlink" xml:space="preserve" xmlns:serif="http://www.serif.com/" style="fill-rule:evenodd;clip-rule:evenodd;stroke-linejoin:round;stroke-miterlimit:2;"><g><path d="M6.373,7.102c-2.124,-0.235 -4.249,-0.821 -6.373,-1.758c1.53,2.297 3.381,4.254 5.551,5.871c-0.023,0.328 -0.035,0.82 -0.035,1.476c0,3.047 0.435,6.088 1.303,9.123c0.868,3.036 2.187,5.948 3.957,8.737c1.77,2.789 3.878,5.256 6.322,7.4c2.444,2.145 5.391,3.856 8.84,5.133c3.449,1.277 7.138,1.916 11.067,1.916c6.19,0 11.855,-1.699 16.995,-5.098c-0.799,0.094 -1.69,0.141 -2.673,0.141c-5.139,-0 -9.719,-1.617 -13.739,-4.852c2.398,-0.046 4.545,-0.802 6.441,-2.267c1.896,-1.465 3.198,-3.334 3.906,-5.608c-0.754,0.118 -1.45,0.176 -2.09,0.176c-0.982,0 -1.953,-0.129 -2.912,-0.387c2.558,-0.539 4.677,-1.845 6.356,-3.919c1.679,-2.075 2.518,-4.483 2.518,-7.225l0,-0.141c-1.553,0.891 -3.221,1.371 -5.002,1.442c1.507,-1.032 2.706,-2.379 3.597,-4.043c0.891,-1.664 1.337,-3.469 1.337,-5.414c-0,-2.063 -0.503,-3.973 -1.508,-5.731c-2.764,3.492 -6.128,6.287 -10.091,8.385c-3.963,2.098 -8.206,3.264 -12.729,3.498c0.183,-0.891 0.274,-1.758 0.274,-2.602c0,-3.14 -1.079,-5.818 -3.238,-8.033c-2.158,-2.215 -4.768,-3.322 -7.829,-3.322c-3.198,0 -5.893,1.195 -8.086,3.586c-2.49,-0.492 -4.831,-1.406 -7.024,-2.742c0.845,2.695 2.467,4.781 4.865,6.258Z" style="fill:#791a7f;fill-rule:nonzero;"/></g></svg>
