<?xml version="1.0" standalone="no"?>
<!DOCTYPE svg PUBLIC "-//W3C//DTD SVG 20010904//EN"
 "http://www.w3.org/TR/2001/REC-SVG-20010904/DTD/svg10.dtd">
<svg version="1.0" xmlns="http://www.w3.org/2000/svg"
 width="700.000000pt" height="700.000000pt" viewBox="0 0 700.000000 700.000000"
 preserveAspectRatio="xMidYMid meet">
<metadata>
Created by potrace 1.11, written by Peter Selinger 2001-2013
</metadata>
<g transform="translate(0.000000,700.000000) scale(0.100000,-0.100000)"
fill="#000000" stroke="none">
<path d="M3389 6750 c-290 -45 -509 -301 -509 -595 0 -169 57 -305 179 -426
70 -70 159 -126 244 -153 15 -5 17 -22 17 -174 l0 -169 -277 -6 c-303 -5 -429
-19 -620 -68 -781 -199 -1398 -814 -1597 -1589 -44 -172 -64 -314 -72 -523
l-7 -167 -272 0 -271 0 -52 -26 c-29 -14 -65 -42 -82 -62 -59 -72 -60 -81 -60
-588 0 -439 1 -466 20 -517 19 -51 58 -97 110 -129 49 -30 129 -38 370 -38
l238 0 5 -367 c3 -238 9 -386 17 -418 6 -27 32 -93 57 -145 86 -180 270 -325
461 -365 63 -13 339 -15 2175 -13 l2102 3 73 27 c115 43 181 85 267 172 92 94
144 183 177 302 19 72 21 111 26 442 l4 362 309 0 c311 0 388 7 439 38 52 32
91 78 110 129 19 51 20 78 20 517 0 507 -1 516 -60 588 -17 20 -53 48 -82 62
l-52 26 -343 0 c-320 0 -343 1 -343 18 -2 93 -23 344 -36 421 -67 398 -240
773 -501 1089 -232 279 -545 509 -878 645 -285 117 -514 163 -857 174 l-198 6
0 167 0 166 76 34 c175 77 303 225 349 405 19 77 19 221 -1 298 -50 195 -206
362 -394 421 -87 28 -201 38 -281 26z m649 -1861 c833 -90 1523 -717 1697
-1543 43 -203 46 -306 43 -1451 l-3 -1080 -23 -58 c-29 -70 -107 -153 -174
-186 -26 -12 -75 -26 -110 -32 -40 -6 -815 -8 -2088 -7 l-2025 3 -62 29 c-73
33 -152 112 -186 183 l-22 48 -3 1150 c-2 791 0 1184 8 1260 88 868 760 1561
1629 1680 122 17 1174 20 1319 4z m-3288 -2684 l0 -355 -210 0 -210 0 0 355 0
355 210 0 210 0 0 -355z m5920 0 l0 -355 -280 0 -280 0 0 355 0 355 280 0 280
0 0 -355z"/>
<path d="M2579 3697 c-150 -43 -243 -164 -243 -317 0 -60 5 -86 26 -131 97
-210 366 -261 528 -99 123 123 128 320 11 453 -70 79 -219 123 -322 94z"/>
<path d="M4177 3700 c-144 -37 -238 -152 -245 -302 -5 -103 15 -162 79 -233
73 -79 142 -110 244 -110 101 0 172 32 239 106 64 71 89 144 84 239 -10 167
-136 294 -303 305 -33 2 -77 0 -98 -5z"/>
<path d="M2086 2404 c-187 -45 -338 -188 -397 -374 -27 -85 -29 -222 -5 -304
60 -204 225 -359 421 -396 43 -8 427 -10 1360 -8 l1300 3 60 23 c265 100 414
378 350 651 -46 195 -211 360 -406 406 -93 22 -2592 21 -2683 -1z m134 -535
l0 -332 -47 7 c-72 9 -167 60 -208 111 -53 64 -75 130 -75 224 0 67 4 86 30
139 53 104 162 177 273 181 l27 1 0 -331z m260 1 l0 -330 -100 0 -100 0 0 330
0 330 100 0 100 0 0 -330z m260 0 l0 -330 -100 0 -100 0 0 330 0 330 100 0
100 0 0 -330z m260 0 l0 -330 -100 0 -100 0 0 330 0 330 100 0 100 0 0 -330z
m259 0 l-4 -330 -97 0 -98 0 0 330 0 330 101 0 101 0 -3 -330z m261 0 l0 -330
-98 0 -99 0 -6 233 c-4 127 -7 276 -7 330 l0 97 105 0 105 0 0 -330z m260 0
l0 -330 -100 0 -100 0 0 330 0 330 100 0 100 0 0 -330z m250 0 l0 -330 -95 0
-95 0 0 330 0 330 95 0 95 0 0 -330z m260 0 l0 -330 -100 0 -100 0 0 330 0
330 100 0 100 0 0 -330z m260 0 l0 -330 -100 0 -100 0 0 330 0 330 100 0 100
0 0 -330z m223 302 c64 -29 132 -95 164 -161 39 -79 40 -191 2 -272 -54 -114
-147 -183 -266 -195 l-63 -7 0 333 0 333 59 -6 c32 -2 79 -14 104 -25z"/>
</g>
</svg>
