<?xml version="1.0" encoding="utf-8"?>
<svg version="1.1" xmlns:xlink="http://www.w3.org/1999/xlink" width="126px" height="123px" xmlns="http://www.w3.org/2000/svg">
  <g transform="matrix(1 0 0 1 -262 -420 )">
    <path d="M 124.50375 66.7557397959184  C 125.50125 67.749362244898  126 68.9260204081633  126 70.2857142857143  C 126 71.6454081632653  125.50125 72.8220663265306  124.50375 73.8156887755102  C 123.50625 74.8093112244898  122.325 75.3061224489796  120.96 75  L 103.32 75  C 103.32 84.2487244897959  101.56125 91.8316326530612  98.04375 98.0548469387755  L 114.42375 114.449617346939  C 115.42125 115.443239795918  115.92 116.619897959184  115.92 117.979591836735  C 115.92 119.339285714286  115.42125 120.515943877551  114.42375 121.509566326531  C 113.47875 122.50318877551  112.2975 123  110.88 123  C 109.4625 123  108.28125 122.50318877551  107.33625 121.509566326531  L 91.74375 106.05612244898  C 91.48125 106.317602040816  91.0875 106.657525510204  90.5625 107.075892857143  C 90.0375 107.494260204082  88.935 108.239477040816  87.255 109.311543367347  C 85.575 110.383609693878  83.86875 111.338010204082  82.13625 112.174744897959  C 80.40375 113.011479591837  78.25125 113.769770408163  75.67875 114.449617346939  C 73.10625 115.129464285714  70.56 115.469387755102  68 115.469387755102  L 68 46  L 58 46  L 58 115.469387755102  C 55.2825 115.469387755102  52.618125 115.116390306122  49.966875 114.410395408163  C 47.315625 113.704400510204  45.031875 112.841517857143  43.115625 111.82174744898  C 41.199375 110.801977040816  39.466875 109.782206632653  37.918125 108.76243622449  C 36.369375 107.742665816327  35.2275 106.892857142857  34.4925 106.213010204082  L 33.31125 105.114795918367  L 18.9 121.352678571429  C 17.85 122.450892857143  16.59 123  15.12 123  C 13.86 123  12.73125 122.581632653061  11.73375 121.744897959184  C 10.73625 120.803571428571  10.198125 119.639987244898  10.119375 118.254145408163  C 10.040625 116.868303571429  10.4475 115.652423469388  11.34 114.606505102041  L 27.2475 96.7997448979592  C 24.2025 90.8380102040816  22.68 83.6734693877551  22.68 75  L 5.04 75  C 3.675 75.3061224489796  2.49375 74.8093112244898  1.49625 73.8156887755102  C 0.49875 72.8220663265306  0 71.6454081632653  0 70.2857142857143  C 0 68.9260204081633  0.49875 67.749362244898  1.49625 66.7557397959184  C 2.49375 65.7621173469388  3.675 65.265306122449  5.04 65  L 23 65  L 23 42.202806122449  L 9.05625 28.6320153061225  C 8.05875 27.6383928571429  7.56 26.4617346938775  7.56 25.1020408163265  C 7.56 23.7423469387755  8.05875 22.5656887755102  9.05625 21.5720663265306  C 10.05375 20.578443877551  11.235 20.0816326530612  12.6 20.0816326530612  C 13.965 20.0816326530612  15.14625 20.578443877551  16.14375 21.5720663265306  L 29.7675 36  L 96.2325 36  L 109.85625 21.5720663265306  C 110.85375 20.578443877551  112.035 20.0816326530612  113.4 20.0816326530612  C 114.765 20.0816326530612  115.94625 20.578443877551  116.94375 21.5720663265306  C 117.94125 22.5656887755102  118.44 23.7423469387755  118.44 25.1020408163265  C 118.44 26.4617346938775  117.94125 27.6383928571429  116.94375 28.6320153061225  L 103 42.202806122449  L 103 65  L 120.96 65  C 122.325 65.265306122449  123.50625 65.7621173469388  124.50375 66.7557397959184  Z M 80.836875 7.33450255102041  C 85.745625 12.2241709183673  88.2 18.1466836734694  88.2 26  L 37.8 26  C 37.8 18.1466836734694  40.254375 12.2241709183673  45.163125 7.33450255102041  C 50.071875 2.44483418367346  56.0175 0  63 0  C 69.9825 0  75.928125 2.44483418367346  80.836875 7.33450255102041  Z " fill-rule="nonzero" fill="#5d1bc0" stroke="none" transform="matrix(1 0 0 1 262 420 )" />
  </g>
</svg>