<?xml version="1.0" encoding="utf-8"?>
<svg version="1.1" xmlns:xlink="http://www.w3.org/1999/xlink" width="128px" height="148px" xmlns="http://www.w3.org/2000/svg">
  <g transform="matrix(1 0 0 1 -767 -420 )">
    <path d="M 96.3333333333333 5.61607142857143  L 122.333333333333 31.3839285714286  C 123.888888888889 32.9255952380952  125.222222222222 35.0178571428572  126.333333333333 37.6607142857143  C 127.444444444444 40.3035714285714  128 42.7261904761905  128 44.9285714285714  L 128 140.071428571429  C 128 142.27380952381  127.222222222222 144.145833333333  125.666666666667 145.6875  C 124.111111111111 147.229166666667  122.222222222222 148  120 148  L 8 148  C 5.77777777777778 148  3.88888888888889 147.229166666667  2.33333333333333 145.6875  C 0.777777777777778 144.145833333333  0 142.27380952381  0 140.071428571429  L 0 7.92857142857143  C 0 5.72619047619047  0.777777777777778 3.85416666666666  2.33333333333333 2.3125  C 3.88888888888889 0.770833333333339  5.77777777777778 0  8 0  L 82.6666666666667 0  C 84.8888888888889 0  87.3333333333333 0.550595238095244  90 1.65178571428572  C 92.6666666666667 2.75297619047619  94.7777777777778 4.07440476190476  96.3333333333333 5.61607142857143  Z M 88.75 13.0491071428571  C 88.0833333333333 12.3883928571429  86.9444444444445 11.7827380952381  85 11.2321428571429  L 85 43  L 116.666666666667 43  C 116.111111111111 40.6889880952381  115.5 39.5602678571428  114.833333333333 38.8995535714286  L 88.75 13.0491071428571  Z M 11 137  L 117 137  L 117 53  L 82.6666666666667 53  C 80.4444444444444 52.8571428571428  78.5555555555556 52.0863095238095  77 50.5446428571428  C 75.4444444444444 49.0029761904762  74.6666666666667 47.1309523809524  74 44.9285714285714  L 74 11  L 11 11  L 11 137  Z M 21.1666666666667 88.2879464285714  L 40 63.4285714285714  C 40.4444444444445 62.8229166666667  41.0277777777778 62.4787946428572  41.75 62.3962053571428  C 42.4722222222222 62.3136160714286  43.1388888888889 62.4925595238095  43.75 62.9330357142857  L 48 66.0714285714286  C 48.6111111111111 66.5119047619048  48.9583333333333 67.0900297619048  49.0416666666667 67.8058035714286  C 49.125 68.5215773809524  48.9444444444445 69.1822916666667  48.5 69.7879464285714  L 33.3333333333333 89.8571428571429  L 48.5 109.926339285714  C 48.9444444444445 110.531994047619  49.125 111.192708333333  49.0416666666667 111.908482142857  C 48.9583333333333 112.624255952381  48.6111111111111 113.202380952381  48 113.642857142857  L 43.75 116.78125  C 43.1388888888889 117.221726190476  42.4722222222222 117.400669642857  41.75 117.318080357143  C 41.0277777777778 117.235491071429  40.4444444444445 116.891369047619  40 116.285714285714  L 21.1666666666667 91.4263392857143  C 20.3888888888889 90.3802083333333  20.3888888888889 89.3340773809524  21.1666666666667 88.2879464285714  Z M 88 63.4285714285714  L 106.833333333333 88.2879464285714  C 107.611111111111 89.3340773809524  107.611111111111 90.3802083333333  106.833333333333 91.4263392857143  L 88 116.285714285714  C 87.5555555555556 116.891369047619  86.9722222222222 117.235491071429  86.25 117.318080357143  C 85.5277777777778 117.400669642857  84.8611111111111 117.221726190476  84.25 116.78125  L 80 113.642857142857  C 79.3888888888889 113.202380952381  79.0416666666667 112.624255952381  78.9583333333333 111.908482142857  C 78.875 111.192708333333  79.0555555555556 110.531994047619  79.5 109.926339285714  L 94.6666666666667 89.8571428571429  L 79.5 69.7879464285714  C 79.0555555555556 69.1822916666667  78.875 68.5215773809524  78.9583333333333 67.8058035714286  C 79.0416666666667 67.0900297619048  79.3888888888889 66.5119047619048  80 66.0714285714286  L 84.25 62.9330357142857  C 84.8611111111111 62.4925595238095  85.5277777777778 62.3136160714286  86.25 62.3962053571428  C 86.9722222222222 62.4787946428572  87.5555555555556 62.8229166666667  88 63.4285714285714  Z M 60.4166666666667 127.1875  L 55.1666666666667 126.361607142857  C 54.4444444444445 126.251488095238  53.875 125.893601190476  53.4583333333333 125.287946428571  C 53.0416666666667 124.682291666667  52.8888888888889 124.021577380952  53 123.305803571429  L 64.5 54.6741071428572  C 64.6111111111111 53.9583333333333  64.9722222222222 53.3939732142857  65.5833333333333 52.9810267857143  C 66.1944444444445 52.5680803571428  66.8611111111111 52.4166666666667  67.5833333333333 52.5267857142857  L 72.8333333333333 53.3526785714286  C 73.5555555555556 53.4627976190476  74.125 53.8206845238095  74.5416666666667 54.4263392857143  C 74.9583333333333 55.031994047619  75.1111111111111 55.6927083333333  75 56.4084821428572  L 63.5 125.040178571429  C 63.3888888888889 125.755952380952  63.0277777777778 126.3203125  62.4166666666667 126.733258928571  C 61.8055555555556 127.146205357143  61.1388888888889 127.297619047619  60.4166666666667 127.1875  Z " fill-rule="nonzero" fill="#2b016a" stroke="none" transform="matrix(1 0 0 1 767 420 )" />
  </g>
</svg>