<?xml version="1.0" encoding="utf-8"?>
<svg version="1.1" xmlns:xlink="http://www.w3.org/1999/xlink" width="77px" height="77px" xmlns="http://www.w3.org/2000/svg">
  <g transform="matrix(1 0 0 1 -988 -100 )">
    <path d="M 19.1748046875 5.16341145833333  C 25.0734592013889 1.72113715277777  31.5151909722222 0  38.5 0  C 45.4848090277778 0  51.9265407986111 1.72113715277777  57.8251953125 5.16341145833333  C 63.7238498263889 8.60568576388888  68.3943142361111 13.2761501736111  71.8365885416667 19.1748046875  C 75.2788628472222 25.0734592013889  77 31.5151909722222  77 38.5  C 77 45.4848090277778  75.2788628472222 51.9265407986111  71.8365885416667 57.8251953125  C 68.3943142361111 63.7238498263889  63.7238498263889 68.3943142361111  57.8251953125 71.8365885416667  C 51.9265407986111 75.2788628472222  45.4848090277778 77  38.5 77  C 31.5151909722222 77  25.0734592013889 75.2788628472222  19.1748046875 71.8365885416667  C 13.2761501736111 68.3943142361111  8.60568576388889 63.7238498263889  5.16341145833333 57.8251953125  C 1.72113715277778 51.9265407986111  0 45.4848090277778  0 38.5  C 0 31.5151909722222  1.72113715277778 25.0734592013889  5.16341145833333 19.1748046875  C 8.60568576388889 13.2761501736111  13.2761501736111 8.60568576388888  19.1748046875 5.16341145833333  Z M 54.3912760416667 25.5162760416667  C 53.8231336805556 25.3491753472222  53.1046006944445 25.5496961805556  52.2356770833333 26.1178385416667  C 52.1688368055556 26.1512586805556  52.0100911458333 26.3100043402778  51.7594401041667 26.5940755208333  C 51.5087890625 26.8781467013889  51.283203125 27.0368923611111  51.0826822916667 27.0703125  C 51.1495225694445 27.0703125  51.2247178819445 26.9867621527778  51.3082682291667 26.8196614583333  C 51.3918185763889 26.6525607638889  51.4753689236111 26.46875  51.5589192708333 26.2682291666667  C 51.6424696180556 26.0677083333333  51.7009548611111 25.9507378472222  51.734375 25.9173177083333  C 51.9348958333333 25.6833767361111  52.3025173611111 25.4327256944444  52.8372395833333 25.1653645833333  C 53.3051215277778 24.96484375  54.1740451388889 24.7643229166667  55.4440104166667 24.5638020833333  C 56.5802951388889 24.2964409722222  57.4325086805556 24.4802517361111  58.0006510416667 25.115234375  C 57.9338107638889 25.0483940972222  58.0925564236111 24.8311631944444  58.4768880208333 24.4635416666667  C 58.8612196180556 24.0959201388889  59.103515625 23.8953993055556  59.2037760416667 23.8619791666667  C 59.3040364583333 23.7951388888889  59.5546875 23.7199435763889  59.9557291666667 23.6363932291667  C 60.3567708333333 23.5528428819444  60.607421875 23.4275173611111  60.7076822916667 23.2604166666667  L 60.8079427083333 22.1575520833333  C 60.4069010416667 22.1909722222222  60.1144748263889 22.0740017361111  59.9306640625 21.806640625  C 59.7468532986111 21.5392795138889  59.6382378472222 21.1883680555556  59.6048177083333 20.75390625  C 59.6048177083333 20.8207465277778  59.5045572916667 20.9544270833333  59.3040364583333 21.1549479166667  C 59.3040364583333 20.9210069444444  59.2288411458333 20.7873263888889  59.0784505208333 20.75390625  C 58.9280598958333 20.7204861111111  58.7358940972222 20.7371961805556  58.501953125 20.8040364583333  C 58.2680121527778 20.8708767361111  58.1176215277778 20.8875868055556  58.05078125 20.8541666666667  C 57.7165798611111 20.75390625  57.4659288194445 20.6285807291667  57.298828125 20.4781901041667  C 57.1317274305556 20.3277994791667  56.998046875 20.0520833333333  56.8977864583333 19.6510416666667  C 56.7975260416667 19.25  56.7306857638889 18.9993489583333  56.697265625 18.8990885416667  C 56.6304253472222 18.7319878472222  56.4716796875 18.5481770833333  56.2210286458333 18.34765625  C 55.9703776041667 18.1471354166667  55.8116319444445 17.9800347222222  55.7447916666667 17.8463541666667  C 55.7113715277778 17.7795138888889  55.6695963541667 17.6876085069444  55.6194661458333 17.5706380208333  C 55.5693359375 17.4536675347222  55.5192057291667 17.3450520833333  55.4690755208333 17.2447916666667  C 55.4189453125 17.14453125  55.3521050347222 17.0526258680556  55.2685546875 16.9690755208333  C 55.1850043402778 16.8855251736111  55.0930989583333 16.84375  54.9928385416667 16.84375  C 54.892578125 16.84375  54.7756076388889 16.9273003472222  54.6419270833333 17.0944010416667  C 54.5082465277778 17.2615017361111  54.3829210069445 17.4286024305556  54.2659505208333 17.595703125  C 54.1489800347222 17.7628038194444  54.0737847222222 17.8463541666667  54.0403645833333 17.8463541666667  C 53.9401041666667 17.7795138888889  53.83984375 17.7544487847222  53.7395833333333 17.7711588541667  C 53.6393229166667 17.7878689236111  53.5641276041667 17.8045789930556  53.5139973958333 17.8212890625  C 53.4638671875 17.8379991319444  53.388671875 17.8881293402778  53.2884114583333 17.9716796875  C 53.1881510416667 18.0552300347222  53.1046006944445 18.1137152777778  53.0377604166667 18.1471354166667  C 52.9375 18.2139756944444  52.7954644097222 18.2641059027778  52.6116536458333 18.2975260416667  C 52.4278428819445 18.3309461805556  52.2858072916667 18.3643663194444  52.185546875 18.3977864583333  C 52.6868489583333 18.2306857638889  52.6701388888889 18.046875  52.1354166666667 17.8463541666667  C 51.8012152777778 17.7126736111111  51.5338541666667 17.6625434027778  51.3333333333333 17.6959635416667  C 51.6341145833333 17.5622829861111  51.7594401041667 17.3617621527778  51.7093098958333 17.0944010416667  C 51.6591796875 16.8270399305556  51.5171440972222 16.5930989583333  51.283203125 16.392578125  L 51.5338541666667 16.392578125  C 51.5004340277778 16.2588975694444  51.3583984375 16.1168619791667  51.1077473958333 15.9664713541667  C 50.8570963541667 15.8160807291667  50.5646701388889 15.6740451388889  50.23046875 15.5403645833333  C 49.8962673611111 15.4066840277778  49.6790364583333 15.3064236111111  49.5787760416667 15.2395833333333  C 49.3114149305556 15.0724826388889  48.7432725694445 14.9137369791667  47.8743489583333 14.7633463541667  C 47.0054253472222 14.6129557291667  46.4539930555556 14.6046006944444  46.2200520833333 14.73828125  C 46.0529513888889 14.9388020833333  45.9777560763889 15.1142578125  45.9944661458333 15.2646484375  C 46.0111762152778 15.4150390625  46.0780164930556 15.6489800347222  46.1949869791667 15.9664713541667  C 46.3119574652778 16.2839626736111  46.3704427083333 16.4928385416667  46.3704427083333 16.5930989583333  C 46.4038628472222 16.7936197916667  46.3119574652778 17.0108506944444  46.0947265625 17.2447916666667  C 45.8774956597222 17.4787326388889  45.7688802083333 17.6792534722222  45.7688802083333 17.8463541666667  C 45.7688802083333 18.0802951388889  46.0028211805556 18.3393012152778  46.470703125 18.6233723958333  C 46.9385850694445 18.9074435763889  47.1056857638889 19.2667100694444  46.9720052083333 19.701171875  C 46.8717447916667 19.9685329861111  46.6043836805556 20.2358940972222  46.169921875 20.5032552083333  C 45.7354600694445 20.7706163194444  45.4680989583333 20.9711371527778  45.3678385416667 21.1048177083333  C 45.2007378472222 21.3721788194444  45.1756727430556 21.6813151041667  45.2926432291667 22.0322265625  C 45.4096137152778 22.3831380208333  45.5850694444445 22.6588541666667  45.8190104166667 22.859375  C 45.8858506944445 22.9262152777778  45.9109157986111 22.9930555555556  45.8942057291667 23.0598958333333  C 45.8774956597222 23.1267361111111  45.8190104166667 23.2019314236111  45.71875 23.2854817708333  C 45.6184895833333 23.3690321180556  45.5265842013889 23.4358723958333  45.4430338541667 23.4860026041667  C 45.3594835069445 23.5361328125  45.2508680555556 23.5946180555556  45.1171875 23.6614583333333  L 44.966796875 23.76171875  C 44.5991753472222 23.9288194444444  44.2566189236111 23.8285590277778  43.9391276041667 23.4609375  C 43.6216362847222 23.0933159722222  43.3960503472222 22.6588541666667  43.2623697916667 22.1575520833333  C 43.0284288194445 21.3220486111111  42.7610677083333 20.8207465277778  42.4602864583333 20.6536458333333  C 41.6916232638889 20.3862847222222  41.20703125 20.4029947916667  41.0065104166667 20.7037760416667  C 40.8394097222222 20.2693142361111  40.154296875 19.8348524305556  38.951171875 19.400390625  C 38.1156684027778 19.099609375  37.146484375 19.0327690972222  36.0436197916667 19.1998697916667  C 36.244140625 19.1664496527778  36.244140625 18.9157986111111  36.0436197916667 18.4479166666667  C 35.8096788194444 17.9466145833333  35.4921875 17.74609375  35.0911458333333 17.8463541666667  C 35.19140625 17.6458333333333  35.2582465277778 17.3534071180556  35.2916666666667 16.9690755208333  C 35.3250868055556 16.5847439236111  35.341796875 16.3591579861111  35.341796875 16.2923177083333  C 35.4420572916667 15.8578559027778  35.642578125 15.4735243055556  35.943359375 15.1393229166667  C 35.9767795138889 15.1059027777778  36.09375 14.9638671875  36.2942708333333 14.7132161458333  C 36.4947916666667 14.4625651041667  36.6535373263889 14.2369791666667  36.7705078125 14.0364583333333  C 36.8874782986111 13.8359375  36.8958333333333 13.7356770833333  36.7955729166667 13.7356770833333  C 37.9652777777778 13.8693576388889  38.80078125 13.685546875  39.3020833333333 13.1842447916667  C 39.4691840277778 13.0171440972222  39.6613498263889 12.7330729166667  39.8785807291667 12.33203125  C 40.0958116319445 11.9309895833333  40.2712673611111 11.6469184027778  40.4049479166667 11.4798177083333  C 40.7057291666667 11.279296875  40.9396701388889 11.1873914930556  41.1067708333333 11.2041015625  C 41.2738715277778 11.2208116319444  41.5161675347222 11.3127170138889  41.8336588541667 11.4798177083333  C 42.1511501736111 11.6469184027778  42.3934461805556 11.73046875  42.560546875 11.73046875  C 43.0284288194445 11.7638888888889  43.2874348958333 11.580078125  43.3375651041667 11.1790364583333  C 43.3876953125 10.7779947916667  43.2623697916667 10.4437934027778  42.9615885416667 10.1764322916667  C 43.3626302083333 10.2098524305556  43.4127604166667 9.92578125  43.1119791666667 9.32421875  C 42.9782986111111 9.09027777777777  42.8446180555556 8.93988715277777  42.7109375 8.873046875  C 42.3098958333333 8.73936631944444  41.8587239583333 8.82291666666667  41.357421875 9.12369791666667  C 41.0900607638889 9.25737847222221  41.1234809027778 9.39105902777777  41.4576822916667 9.52473958333333  C 41.4242621527778 9.49131944444444  41.2655164930556 9.66677517361111  40.9814453125 10.0511067708333  C 40.6973741319445 10.4354383680556  40.4216579861111 10.7278645833333  40.154296875 10.9283854166667  C 39.8869357638889 11.12890625  39.6195746527778 11.0453559027778  39.3522135416667 10.677734375  C 39.3187934027778 10.6443142361111  39.2268880208333 10.4187282986111  39.0764973958333 10.0009765625  C 38.9261067708333 9.58322482638888  38.7673611111111 9.35763888888888  38.6002604166667 9.32421875  C 38.3328993055556 9.32421875  38.0655381944444 9.57486979166667  37.7981770833333 10.076171875  C 37.8984375 9.80881076388888  37.7146267361111 9.55815972222221  37.2467447916667 9.32421875  C 36.7788628472222 9.09027777777777  36.3778211805556 8.95659722222221  36.0436197916667 8.92317708333333  C 36.6786024305556 8.52213541666667  36.544921875 8.07096354166667  35.642578125 7.56966145833333  C 35.4086371527778 7.43598090277777  35.0660807291667 7.35243055555555  34.6149088541667 7.31901041666667  C 34.1637369791667 7.28559027777777  33.837890625 7.35243055555555  33.6373697916667 7.51953125  C 33.4702690972222 7.75347222222221  33.3783637152778 7.94563802083333  33.3616536458333 8.09602864583333  C 33.3449435763889 8.24641927083333  33.4284939236111 8.38009982638888  33.6123046875 8.4970703125  C 33.7961154513889 8.61404079861111  33.9715711805556 8.70594618055555  34.138671875 8.77278645833333  C 34.3057725694444 8.83962673611111  34.4979383680556 8.90646701388888  34.7151692708333 8.97330729166667  C 34.9324001736111 9.04014756944444  35.0744357638889 9.09027777777777  35.1412760416667 9.12369791666667  C 35.6091579861111 9.45789930555555  35.7428385416667 9.69184027777777  35.5423177083333 9.82552083333333  C 35.4754774305556 9.85894097222221  35.3334418402778 9.91742621527777  35.1162109375 10.0009765625  C 34.8989800347222 10.0845269097222  34.7068142361111 10.1597222222222  34.5397135416667 10.2265625  C 34.3726128472222 10.2934027777778  34.2723524305556 10.3602430555556  34.2389322916667 10.4270833333333  C 34.138671875 10.5607638888889  34.138671875 10.7947048611111  34.2389322916667 11.12890625  C 34.3391927083333 11.4631076388889  34.3057725694444 11.6970486111111  34.138671875 11.8307291666667  C 33.9715711805556 11.6636284722222  33.8211805555556 11.3712022569444  33.6875 10.9534505208333  C 33.5538194444444 10.5356987847222  33.4368489583333 10.2599826388889  33.3365885416667 10.1263020833333  C 33.5705295138889 10.4270833333333  33.1527777777778 10.52734375  32.0833333333333 10.4270833333333  L 31.58203125 10.376953125  C 31.4483506944444 10.376953125  31.1809895833333 10.4103732638889  30.7799479166667 10.4772135416667  C 30.37890625 10.5440538194444  30.0363498263889 10.5607638888889  29.7522786458333 10.52734375  C 29.4682074652778 10.4939236111111  29.2426215277778 10.3602430555556  29.0755208333333 10.1263020833333  C 28.9418402777778 9.85894097222221  28.9418402777778 9.52473958333333  29.0755208333333 9.12369791666667  C 29.1089409722222 8.99001736111111  29.17578125 8.95659722222221  29.2760416666667 9.0234375  C 29.1423611111111 8.92317708333333  28.9585503472222 8.76443142361111  28.724609375 8.54720052083333  C 28.4906684027778 8.32996961805555  28.3235677083333 8.18793402777777  28.2233072916667 8.12109375  C 26.6859809027778 8.62239583333333  25.115234375 9.30750868055555  23.5110677083333 10.1764322916667  C 23.7115885416667 10.2098524305556  23.912109375 10.1931423611111  24.1126302083333 10.1263020833333  C 24.2797309027778 10.0594618055556  24.4969618055556 9.95084635416667  24.7643229166667 9.80045572916667  C 25.0316840277778 9.65006510416667  25.1987847222222 9.55815972222221  25.265625 9.52473958333333  C 26.4019097222222 9.05685763888888  27.1037326388889 8.93988715277777  27.37109375 9.173828125  L 27.6217447916667 8.92317708333333  C 28.0896267361111 9.45789930555555  28.423828125 9.87565104166667  28.6243489583333 10.1764322916667  C 28.3904079861111 10.0427517361111  27.8891059027778 10.0260416666667  27.1204427083333 10.1263020833333  C 26.4520399305556 10.3268229166667  26.0844184027778 10.52734375  26.017578125 10.7278645833333  C 26.2515190972222 11.12890625  26.3350694444444 11.4296875  26.2682291666667 11.6302083333333  C 26.1345486111111 11.5299479166667  25.9423828125 11.3628472222222  25.6917317708333 11.12890625  C 25.4410807291667 10.8949652777778  25.1987847222222 10.7111545138889  24.96484375 10.5774739583333  C 24.7309027777778 10.4437934027778  24.4802517361111 10.3602430555556  24.212890625 10.3268229166667  C 23.6781684027778 10.3268229166667  23.310546875 10.3435329861111  23.1100260416667 10.376953125  C 18.2306857638889 13.0505642361111  14.3038194444444 16.7601996527778  11.3294270833333 21.505859375  C 11.5633680555556 21.7398003472222  11.7638888888889 21.8734809027778  11.9309895833333 21.9069010416667  C 12.0646701388889 21.9403211805556  12.1482204861111 22.0907118055556  12.181640625 22.3580729166667  C 12.2150607638889 22.6254340277778  12.2568359375 22.8092447916667  12.3069661458333 22.9095052083333  C 12.3570963541667 23.009765625  12.5492621527778 22.9596354166667  12.8834635416667 22.7591145833333  C 13.1842447916667 23.0264756944444  13.234375 23.3439670138889  13.0338541666667 23.7115885416667  C 13.0672743055556 23.6781684027778  13.8025173611111 24.1293402777778  15.2395833333333 25.0651041666667  C 15.8745659722222 25.6332465277778  16.2254774305556 25.9841579861111  16.2923177083333 26.1178385416667  C 16.392578125 26.4854600694444  16.2254774305556 26.7862413194444  15.791015625 27.0201822916667  C 15.7575954861111 26.9533420138889  15.6072048611111 26.8029513888889  15.33984375 26.5690104166667  C 15.0724826388889 26.3350694444444  14.9220920138889 26.2682291666667  14.888671875 26.3684895833333  C 14.7884114583333 26.5355902777778  14.7967664930556 26.8447265625  14.9137369791667 27.2958984375  C 15.0307074652778 27.7470703125  15.2061631944444 27.9559461805556  15.4401041666667 27.9225260416667  C 15.2061631944444 27.9225260416667  15.0474175347222 28.1898871527778  14.9638671875 28.724609375  C 14.8803168402778 29.2593315972222  14.8385416666667 29.8525390625  14.8385416666667 30.5042317708333  C 14.8385416666667 31.1559244791667  14.8218315972222 31.5486111111111  14.7884114583333 31.6822916666667  L 14.888671875 31.732421875  C 14.7884114583333 32.1334635416667  14.8803168402778 32.7099609375  15.1643880208333 33.4619140625  C 15.4484592013889 34.2138671875  15.8077256944444 34.5397135416667  16.2421875 34.439453125  C 15.8077256944444 34.5397135416667  16.1419270833333 35.2582465277778  17.2447916666667 36.5950520833333  C 17.4453125 36.8624131944444  17.5789930555556 37.0128038194444  17.6458333333333 37.0462239583333  C 17.74609375 37.1130642361111  17.9466145833333 37.2383897569444  18.2473958333333 37.4222005208333  C 18.5481770833333 37.6060112847222  18.798828125 37.7731119791667  18.9993489583333 37.9235026041667  C 19.1998697916667 38.0738932291667  19.3669704861111 38.2493489583333  19.5006510416667 38.4498697916667  C 19.6343315972222 38.6169704861111  19.8014322916667 38.9929470486111  20.001953125 39.5777994791667  C 20.2024739583333 40.1626519097222  20.4364149305556 40.5553385416667  20.7037760416667 40.755859375  C 20.6369357638889 40.9563802083333  20.7956814236111 41.2905815972222  21.1800130208333 41.7584635416667  C 21.5643446180556 42.2263454861111  21.7398003472222 42.6106770833333  21.7063802083333 42.9114583333333  C 21.6729600694444 42.9114583333333  21.6311848958333 42.9281684027778  21.5810546875 42.9615885416667  C 21.5309244791667 42.9950086805556  21.4891493055556 43.01171875  21.4557291666667 43.01171875  C 21.5559895833333 43.2456597222222  21.8149956597222 43.4796006944444  22.2327473958333 43.7135416666667  C 22.6504991319444 43.9474826388889  22.9095052083333 44.1647135416667  23.009765625 44.365234375  C 23.0431857638889 44.4654947916667  23.0766059027778 44.6325954861111  23.1100260416667 44.8665364583333  C 23.1434461805556 45.1004774305556  23.1935763888889 45.2842881944444  23.2604166666667 45.41796875  C 23.3272569444444 45.5516493055556  23.4609375 45.5850694444444  23.6614583333333 45.5182291666667  C 23.7282986111111 44.8498263888889  23.3272569444444 43.8138020833333  22.4583333333333 42.41015625  C 21.95703125 41.5746527777778  21.6729600694444 41.0900607638889  21.6061197916667 40.9563802083333  C 21.505859375 40.7892795138889  21.4139539930556 40.5302734375  21.3304036458333 40.1793619791667  C 21.2468532986111 39.8284505208333  21.1716579861111 39.5861545138889  21.1048177083333 39.4524739583333  C 21.1716579861111 39.4524739583333  21.2719184027778 39.4775390625  21.4055989583333 39.5276692708333  C 21.5392795138889 39.5777994791667  21.6813151041667 39.6362847222222  21.8317057291667 39.703125  C 21.9820963541667 39.7699652777778  22.107421875 39.8368055555556  22.2076822916667 39.9036458333333  C 22.3079427083333 39.9704861111111  22.3413628472222 40.0206163194444  22.3079427083333 40.0540364583333  C 22.2076822916667 40.2879774305556  22.2411024305556 40.5804036458333  22.408203125 40.9313151041667  C 22.5753038194444 41.2822265625  22.7758246527778 41.5913628472222  23.009765625 41.8587239583333  C 23.2437065972222 42.1260850694444  23.5277777777778 42.4435763888889  23.8619791666667 42.8111979166667  C 24.1961805555556 43.1788194444444  24.3967013888889 43.3960503472222  24.4635416666667 43.462890625  C 24.6640625 43.6634114583333  24.8980034722222 43.9892578125  25.1653645833333 44.4404296875  C 25.4327256944444 44.8916015625  25.4327256944444 45.1171875  25.1653645833333 45.1171875  C 25.4661458333333 45.1171875  25.8003472222222 45.2926432291667  26.16796875 45.6435546875  C 26.5355902777778 45.9944661458333  26.8196614583333 46.3203125  27.0201822916667 46.62109375  C 27.1872829861111 46.8884548611111  27.3209635416667 47.3229166666667  27.4212239583333 47.9244791666667  C 27.521484375 48.5260416666667  27.6050347222222 48.9270833333333  27.671875 49.1276041666667  C 27.7387152777778 49.3615451388889  27.8807508680556 49.5871310763889  28.0979817708333 49.8043619791667  C 28.3152126736111 50.0215928819444  28.5240885416667 50.1803385416667  28.724609375 50.2805989583333  L 29.5266927083333 50.681640625  C 29.5266927083333 50.681640625  29.7439236111111 50.7986111111111  30.1783854166667 51.0325520833333  C 30.3454861111111 51.0993923611111  30.6546223958333 51.2748480902778  31.1057942708333 51.5589192708333  C 31.5569661458333 51.8429904513889  31.9162326388889 52.03515625  32.18359375 52.1354166666667  C 32.5177951388889 52.2690972222222  32.78515625 52.3359375  32.9856770833333 52.3359375  C 33.1861979166667 52.3359375  33.4284939236111 52.2941623263889  33.7125651041667 52.2106119791667  C 33.9966362847222 52.1270616319444  34.2222222222222 52.0685763888889  34.3893229166667 52.03515625  C 34.890625 51.9683159722222  35.3752170138889 52.2189670138889  35.8430989583333 52.787109375  C 36.3109809027778 53.3552517361111  36.6618923611111 53.7061631944444  36.8958333333333 53.83984375  C 38.0989583333333 54.4748263888889  39.0180121527778 54.6586371527778  39.6529947916667 54.3912760416667  C 39.5861545138889 54.4246961805555  39.5945095486111 54.5500217013889  39.6780598958333 54.7672526041667  C 39.7616102430556 54.9844835069444  39.8952907986111 55.2434895833333  40.0791015625 55.5442708333333  C 40.2629123263889 55.8450520833333  40.4133029513889 56.0873480902778  40.5302734375 56.2711588541667  C 40.6472439236111 56.4549696180555  40.7391493055556 56.5970052083333  40.8059895833333 56.697265625  C 40.9730902777778 56.8977864583333  41.2738715277778 57.1484375  41.7083333333333 57.44921875  C 42.1427951388889 57.75  42.4435763888889 58.0006510416667  42.6106770833333 58.201171875  C 42.8111979166667 58.0674913194444  42.9281684027778 57.9171006944444  42.9615885416667 57.75  C 42.861328125 58.0173611111111  42.9782986111111 58.3515625  43.3125 58.7526041666667  C 43.6467013888889 59.1536458333333  43.9474826388889 59.3207465277778  44.21484375 59.25390625  C 44.6827256944445 59.1536458333333  44.9166666666667 58.6189236111111  44.9166666666667 57.6497395833333  C 43.8806423611111 58.1510416666667  43.0618489583333 57.8502604166667  42.4602864583333 56.7473958333333  C 42.4602864583333 56.7139756944444  42.4185112847222 56.6220703125  42.3349609375 56.4716796875  C 42.2514105902778 56.3212890625  42.1845703125 56.1792534722222  42.1344401041667 56.0455729166667  C 42.0843098958333 55.9118923611111  42.0425347222222 55.7698567708333  42.0091145833333 55.6194661458333  C 41.9756944444445 55.4690755208333  41.9756944444445 55.34375  42.0091145833333 55.2434895833333  C 42.0425347222222 55.1432291666667  42.1260850694445 55.0930989583333  42.259765625 55.0930989583333  C 42.560546875 55.0930989583333  42.7276475694445 55.0346137152778  42.7610677083333 54.9176432291667  C 42.7944878472222 54.8006727430555  42.7610677083333 54.591796875  42.6608072916667 54.291015625  C 42.560546875 53.990234375  42.4937065972222 53.7730034722222  42.4602864583333 53.6393229166667  C 42.4268663194445 53.3719618055555  42.2430555555556 53.0377604166667  41.9088541666667 52.63671875  C 41.5746527777778 52.2356770833333  41.3741319444445 51.9850260416667  41.3072916666667 51.884765625  C 41.1401909722222 52.185546875  40.8728298611111 52.3192274305555  40.5052083333333 52.2858072916667  C 40.1375868055556 52.2523871527778  39.8702256944445 52.1019965277778  39.703125 51.8346354166667  C 39.703125 51.8680555555555  39.6780598958333 51.9599609375  39.6279296875 52.1103515625  C 39.5777994791667 52.2607421875  39.552734375 52.3693576388889  39.552734375 52.4361979166667  C 39.1182725694445 52.4361979166667  38.8676215277778 52.4194878472222  38.80078125 52.3860677083333  C 38.8342013888889 52.2858072916667  38.8759765625 51.9933810763889  38.9261067708333 51.5087890625  C 38.9762369791667 51.0241970486111  39.0347222222222 50.6482204861111  39.1015625 50.380859375  C 39.1349826388889 50.2471788194444  39.2268880208333 50.0466579861111  39.3772786458333 49.779296875  C 39.5276692708333 49.5119357638889  39.6529947916667 49.2696397569444  39.7532552083333 49.0524088541667  C 39.853515625 48.8351779513889  39.9203559027778 48.6263020833333  39.9537760416667 48.42578125  C 39.9871961805556 48.2252604166667  39.9120008680556 48.0665147569444  39.7281901041667 47.9495442708333  C 39.5443793402778 47.8325737847222  39.251953125 47.7907986111111  38.8509114583333 47.82421875  C 38.2159288194444 47.8576388888889  37.7814670138889 48.1918402777778  37.5475260416667 48.8268229166667  C 37.5141059027778 48.9270833333333  37.4639756944444 49.1025390625  37.3971354166667 49.3531901041667  C 37.3302951388889 49.6038411458333  37.2467447916667 49.7960069444444  37.146484375 49.9296875  C 37.0462239583333 50.0633680555555  36.8958333333333 50.1803385416667  36.6953125 50.2805989583333  C 36.4613715277778 50.380859375  36.0603298611111 50.4142795138889  35.4921875 50.380859375  C 34.9240451388889 50.3474392361111  34.5230034722222 50.2638888888889  34.2890625 50.1302083333333  C 33.8546006944444 49.8628472222222  33.4786241319444 49.3782552083333  33.1611328125 48.6764322916667  C 32.8436414930556 47.974609375  32.6848958333333 47.3563368055555  32.6848958333333 46.8216145833333  C 32.6848958333333 46.4874131944444  32.7266710069444 46.0445963541667  32.8102213541667 45.4931640625  C 32.8937717013889 44.9417317708333  32.9439019097222 44.5239800347222  32.9606119791667 44.2399088541667  C 32.9773220486111 43.9558376736111  32.8854166666667 43.5464409722222  32.6848958333333 43.01171875  C 32.78515625 42.9448784722222  32.935546875 42.7861328125  33.1360677083333 42.5354817708333  C 33.3365885416667 42.2848307291667  33.5036892361111 42.109375  33.6373697916667 42.0091145833333  C 33.7042100694444 41.9756944444444  33.7794053819444 41.9506293402778  33.8629557291667 41.9339192708333  C 33.9465060763889 41.9172092013889  34.0217013888889 41.9172092013889  34.0885416666667 41.9339192708333  C 34.1553819444444 41.9506293402778  34.2222222222222 41.9255642361111  34.2890625 41.8587239583333  C 34.3559027777778 41.7918836805556  34.4060329861111 41.6916232638889  34.439453125 41.5579427083333  C 34.4060329861111 41.5245225694444  34.3391927083333 41.4743923611111  34.2389322916667 41.4075520833333  C 34.138671875 41.3072916666667  34.0718315972222 41.2571614583333  34.0384114583333 41.2571614583333  C 34.2723524305556 41.357421875  34.7485894097222 41.3323567708333  35.4671223958333 41.1819661458333  C 36.1856553819444 41.0315755208333  36.6451822916667 41.056640625  36.845703125 41.2571614583333  C 37.3470052083333 41.6247829861111  37.7146267361111 41.5913628472222  37.9485677083333 41.1569010416667  C 37.9485677083333 41.1234809027778  37.9067925347222 40.9647352430556  37.8232421875 40.6806640625  C 37.7396918402778 40.3965928819444  37.7313368055556 40.1710069444444  37.7981770833333 40.00390625  C 37.9652777777778 40.90625  38.4498697916667 41.056640625  39.251953125 40.455078125  C 39.3522135416667 40.5553385416667  39.6112196180556 40.6388888888889  40.0289713541667 40.7057291666667  C 40.4467230902778 40.7725694444444  40.7391493055556 40.8561197916667  40.90625 40.9563802083333  C 41.0065104166667 41.0232204861111  41.1234809027778 41.1151258680556  41.2571614583333 41.2320963541667  C 41.3908420138889 41.3490668402778  41.4827473958333 41.4242621527778  41.5328776041667 41.4576822916667  C 41.5830078125 41.4911024305556  41.6665581597222 41.4827473958333  41.7835286458333 41.4326171875  C 41.9004991319445 41.3824869791667  42.0425347222222 41.2738715277778  42.2096354166667 41.1067708333333  C 42.5438368055556 41.5746527777778  42.7443576388889 41.9756944444444  42.8111979166667 42.3098958333333  C 43.1788194444445 43.6467013888889  43.4963107638889 44.3819444444444  43.763671875 44.515625  C 43.9976128472222 44.6158854166667  44.1814236111111 44.6493055555556  44.3151041666667 44.6158854166667  C 44.4487847222222 44.5824652777778  44.5239800347222 44.4237196180556  44.5406901041667 44.1396484375  C 44.5574001736111 43.8555772569444  44.5574001736111 43.6216362847222  44.5406901041667 43.4378255208333  C 44.5239800347222 43.2540147569444  44.4989149305556 43.0451388888889  44.4654947916667 42.8111979166667  L 44.4153645833333 42.41015625  L 44.4153645833333 41.5078125  L 44.365234375 41.1067708333333  C 43.8639322916667 41.0065104166667  43.5547960069445 40.8059895833333  43.4378255208333 40.5052083333333  C 43.3208550347222 40.2044270833333  43.3459201388889 39.8952907986111  43.5130208333333 39.5777994791667  C 43.6801215277778 39.2603081597222  43.9307725694445 38.951171875  44.2649739583333 38.650390625  C 44.2983940972222 38.6169704861111  44.4320746527778 38.5584852430556  44.666015625 38.4749348958333  C 44.8999565972222 38.3913845486111  45.1589626736111 38.2827690972222  45.4430338541667 38.1490885416667  C 45.7271050347222 38.0154079861111  45.9359809027778 37.8817274305556  46.0696614583333 37.748046875  C 46.771484375 37.1130642361111  47.0221354166667 36.5282118055556  46.8216145833333 35.9934895833333  C 47.0555555555556 35.9934895833333  47.2393663194445 35.8430989583333  47.373046875 35.5423177083333  C 47.3396267361111 35.5423177083333  47.2560763888889 35.4921875  47.1223958333333 35.3919270833333  C 46.9887152777778 35.2916666666667  46.8633897569445 35.2081163194444  46.7464192708333 35.1412760416667  C 46.6294487847222 35.0744357638889  46.5542534722222 35.041015625  46.5208333333333 35.041015625  C 46.8216145833333 34.8739149305556  46.8550347222222 34.6065538194444  46.62109375 34.2389322916667  C 46.7881944444445 34.138671875  46.9135199652778 33.9548611111111  46.9970703125 33.6875  C 47.0806206597222 33.4201388888889  47.2059461805556 33.2530381944444  47.373046875 33.1861979166667  C 47.673828125 33.5872395833333  48.0247395833333 33.6206597222222  48.42578125 33.2864583333333  C 48.6931423611111 33.0190972222222  48.7098524305556 32.7517361111111  48.4759114583333 32.484375  C 48.6430121527778 32.2504340277778  48.9855685763889 32.0749782986111  49.5035807291667 31.9580078125  C 50.0215928819445 31.8410373263889  50.3307291666667 31.6822916666667  50.4309895833333 31.4817708333333  C 50.6649305555556 31.5486111111111  50.7986111111111 31.5151909722222  50.83203125 31.3815104166667  C 50.8654513888889 31.2478298611111  50.8821614583333 31.0473090277778  50.8821614583333 30.7799479166667  C 50.8821614583333 30.5125868055556  50.9322916666667 30.3120659722222  51.0325520833333 30.1783854166667  C 51.1662326388889 30.0112847222222  51.4168836805556 29.8608940972222  51.7845052083333 29.7272135416667  C 52.1521267361111 29.5935329861111  52.3693576388889 29.5099826388889  52.4361979166667 29.4765625  L 53.2884114583333 28.9251302083333  C 53.388671875 28.7914496527778  53.388671875 28.724609375  53.2884114583333 28.724609375  C 53.8899739583333 28.7914496527778  54.4079861111111 28.6076388888889  54.8424479166667 28.1731770833333  C 55.1766493055556 27.8055555555556  55.0763888888889 27.4713541666667  54.5416666666667 27.1705729166667  C 54.6419270833333 26.9700520833333  54.591796875 26.8113064236111  54.3912760416667 26.6943359375  C 54.1907552083333 26.5773654513889  53.9401041666667 26.4854600694444  53.6393229166667 26.4186197916667  C 53.7395833333333 26.3851996527778  53.9317491319445 26.3768446180556  54.2158203125 26.3935546875  C 54.4998914930556 26.4102647569444  54.6753472222222 26.3851996527778  54.7421875 26.318359375  C 55.2434895833333 25.9841579861111  55.1265190972222 25.716796875  54.3912760416667 25.5162760416667  Z M 43.9641927083333 69.2799479166667  C 43.9641927083333 69.48046875  43.9976128472222 69.7478298611111  44.064453125 70.08203125  C 50.9490017361111 68.87890625  56.8142361111111 65.720703125  61.66015625 60.607421875  C 61.5598958333333 60.5071614583333  61.3510199652778 60.4319661458333  61.0335286458333 60.3818359375  C 60.7160373263889 60.3317057291667  60.5071614583333 60.2732204861111  60.4069010416667 60.2063802083333  C 59.8053385416667 59.9724392361111  59.404296875 59.8387586805556  59.2037760416667 59.8053385416667  C 59.2371961805556 59.5713975694444  59.1954210069445 59.3541666666667  59.0784505208333 59.1536458333333  C 58.9614800347222 58.953125  58.8277994791667 58.802734375  58.6774088541667 58.7024739583333  C 58.5270182291667 58.6022135416667  58.3181423611111 58.4685329861111  58.05078125 58.3014322916667  C 57.7834201388889 58.1343315972222  57.599609375 58.0173611111111  57.4993489583333 57.9505208333333  C 57.4325086805556 57.8836805555556  57.3155381944445 57.7834201388889  57.1484375 57.6497395833333  C 56.9813368055556 57.5160590277778  56.8643663194445 57.4241536458333  56.7975260416667 57.3740234375  C 56.7306857638889 57.3238932291667  56.6053602430556 57.2486979166667  56.4215494791667 57.1484375  C 56.2377387152778 57.0481770833333  56.095703125 57.0147569444444  55.9954427083333 57.0481770833333  C 55.8951822916667 57.0815972222222  55.7280815972222 57.0983072916667  55.494140625 57.0983072916667  L 55.34375 57.1484375  C 55.2434895833333 57.1818576388889  55.1515842013889 57.2236328125  55.0680338541667 57.2737630208333  C 54.9844835069445 57.3238932291667  54.892578125 57.3740234375  54.7923177083333 57.4241536458333  C 54.6920572916667 57.4742838541667  54.6252170138889 57.5244140625  54.591796875 57.5745442708333  C 54.5583767361111 57.6246744791667  54.5583767361111 57.6664496527778  54.591796875 57.6998697916667  C 53.8899739583333 57.1317274305555  53.2884114583333 56.7641059027778  52.787109375 56.5970052083333  C 52.6200086805556 56.5635850694444  52.4361979166667 56.4716796875  52.2356770833333 56.3212890625  C 52.03515625 56.1708984375  51.8597005208333 56.0539279513889  51.7093098958333 55.9703776041667  C 51.5589192708333 55.8868272569444  51.3918185763889 55.8617621527778  51.2080078125 55.8951822916667  C 51.0241970486111 55.9286024305555  50.83203125 56.0455729166667  50.6315104166667 56.24609375  C 50.4644097222222 56.4131944444444  50.3641493055556 56.6638454861111  50.3307291666667 56.998046875  C 50.2973090277778 57.3322482638889  50.2638888888889 57.5494791666667  50.23046875 57.6497395833333  C 49.9965277777778 57.4826388888889  49.9965277777778 57.1902126736111  50.23046875 56.7724609375  C 50.4644097222222 56.3547092013889  50.4978298611111 56.0455729166667  50.3307291666667 55.8450520833333  C 50.23046875 55.64453125  50.0550130208333 55.5693359375  49.8043619791667 55.6194661458333  C 49.5537109375 55.6695963541667  49.3531901041667 55.7447916666667  49.2027994791667 55.8450520833333  C 49.0524088541667 55.9453125  48.8602430555556 56.0873480902778  48.6263020833333 56.2711588541667  C 48.3923611111111 56.4549696180555  48.2419704861111 56.5635850694444  48.1751302083333 56.5970052083333  C 48.1082899305556 56.6304253472222  47.9662543402778 56.7223307291667  47.7490234375 56.8727213541667  C 47.5317925347222 57.0231119791667  47.3897569444445 57.1484375  47.3229166666667 57.2486979166667  C 47.22265625 57.3823784722222  47.1223958333333 57.5828993055555  47.0221354166667 57.8502604166667  C 46.921875 58.1176215277778  46.8383246527778 58.3014322916667  46.771484375 58.4016927083333  C 46.7046440972222 58.2680121527778  46.5124782986111 58.1593967013889  46.1949869791667 58.0758463541667  C 45.8774956597222 57.9922960069444  45.71875 57.900390625  45.71875 57.8001302083333  C 45.7855902777778 58.1343315972222  45.8524305555556 58.7191840277778  45.9192708333333 59.5546875  C 45.9861111111111 60.3901909722222  46.0696614583333 61.0251736111111  46.169921875 61.4596354166667  C 46.4038628472222 62.4956597222222  46.2033420138889 63.2977430555556  45.568359375 63.8658854166667  C 44.666015625 64.7013888888889  44.1814236111111 65.3697916666667  44.1145833333333 65.87109375  C 43.9809027777778 66.6063368055556  44.1814236111111 67.0407986111111  44.7161458333333 67.1744791666667  C 44.7161458333333 67.4084201388889  44.5824652777778 67.7509765625  44.3151041666667 68.2021484375  C 44.0477430555556 68.6533203125  43.9307725694445 69.0125868055556  43.9641927083333 69.2799479166667  Z " fill-rule="nonzero" fill="#5d1bc0" stroke="none" transform="matrix(1 0 0 1 988 100 )" />
  </g>
</svg>