<?xml version="1.0" encoding="utf-8"?>
<svg version="1.1" xmlns:xlink="http://www.w3.org/1999/xlink" width="77px" height="104px" xmlns="http://www.w3.org/2000/svg">
  <g transform="matrix(1 0 0 1 -148 -142 )">
    <path d="M 0.956249999999997 35.12375  C 0.955937500000005 33.7171875  0.949062499999997 32.3103125  0.935937500000001 30.9034375  C 0.909062499999997 23.520625  0.272500000000001 15.2134375  2.674375 8.12531250000001  C 4.5 2.725625  8.83781249999999 0.548125000000006  14.1840625 0.548125000000006  C 27.1071875 0.548125000000006  27.968125 13.6053125  28.0084375 27  L 65.3609375 27  C 71.2796875 26.7028125  75.6915625 32.65875  75.6915625 41.73625  C 75.6915625 50.820625  66.1315625 52.8571875  61.1103125 52  L 27.5896875 52  C 27.41875 58.4178125  27.2446875 62.9534375  27.2446875 65.7065625  C 27.2446875 71.5015625  29.5225 77.7521875  43.795625 77  L 63.8571875 77  C 68.8715625 77.7521875  76.30125 81.5175  76.30125 92.00875  C 76.30125 102.4934375  65.8334375 103.45125  62.1790625 103.45125  C 58.5309375 103.45125  38.3290625 102.9821875  33.1634375 102.9821875  C 28.0084375 102.9821875  1.11687499999999 94.675  1.11687499999999 65.385  C 1.11687499999999 60.1525  1.10343749999999 54.920625  1.096875 49.688125  C 1.0703125 44.83125  0.976249999999993 39.960625  0.956249999999997 35.12375  Z " fill-rule="nonzero" fill="#5d1bc0" stroke="none" transform="matrix(1 0 0 1 148 142 )" />
  </g>
</svg>