<?xml version="1.0" encoding="utf-8"?>
<svg version="1.1" xmlns:xlink="http://www.w3.org/1999/xlink" width="158px" height="126px" xmlns="http://www.w3.org/2000/svg">
  <g transform="matrix(1 0 0 1 -274 -415 )">
    <path d="M 152.9009296875 2.54804687499999  C 150.49 9.95478125  145.391734375 16.156765625  138.740828125 20.079828125  C 145.25925 19.313515625  151.46028125 17.6174296875  157.2328828125 15.09403125  C 152.921421875 21.448515625  147.45525 27.0371640625  141.1727265625 31.502078125  C 141.2337265625 32.8607578125  141.25421875 34.229921875  141.25421875 35.5990859375  C 141.25421875 77.4870234375  108.877515625 125.7713828125  49.6517578125 125.7713828125  C 31.476140625 125.7713828125  14.5472109375 120.5301484375  0.289890624999998 111.539796875  C 2.8132890625 111.825734375  5.3676640625 111.9791875  7.97303125 111.9791875  C 23.0681484375 111.9791875  36.9423125 106.911421875  47.96615625 98.4109765625  C 33.8775390625 98.156015625  21.99540625 88.9912421875  17.888390625 76.4042734375  C 19.86040625 76.771703125  21.8729296875 76.9761484375  23.9469296875 76.9761484375  C 26.8892265625 76.9761484375  29.7295390625 76.5882265625  32.436890625 75.862421875  C 17.7044375 72.9406171875  6.60386718749999 60.1287109375  6.60386718749999 44.7833984375  C 6.60386718749999 44.6509140625  6.60386718749999 44.50746875  6.60386718749999 44.3849921875  C 10.945828125 46.7554140625  15.916375 48.1755703125  21.188109375 48.33903125  C 12.5551796875 42.65840625  6.85930468749999 32.9627421875  6.85930468749999 21.969875  C 6.85930468749999 16.156765625  8.45292968749998 10.7110859375  11.2217578125 6.03171875  C 27.103203125 25.20859375  50.826484375 37.8260625  77.5840390625 39.1437578125  C 77.0421875 36.8248046875  76.75625 34.4133984375  76.75625 31.930984375  C 76.75625 14.4196953125  91.172265625 0.228617187499992  108.9485234375 0.228617187499992  C 118.21528125 0.228617187499992  126.582765625 4.08067187499999  132.44734375 10.2411953125  C 139.7830703125 8.82103906249999  146.6789296875 6.18517187499999  152.9009296875 2.54804687499999  Z " fill-rule="nonzero" fill="#2b016a" stroke="none" transform="matrix(1 0 0 1 274 415 )" />
  </g>
</svg>